<svg xmlns="http://www.w3.org/2000/svg" xmlns:xlink="http://www.w3.org/1999/xlink" width="2000" zoomAndPan="magnify" viewBox="0 0 1500 1499.999933" height="2000" preserveAspectRatio="xMidYMid meet" version="1.0"><defs><g/><clipPath id="b1f8791757"><path d="M -3.417969 0 L 1932.007812 1340.882812 L 1118.976562 2514.410156 L -816.449219 1173.527344 Z M -3.417969 0 " clip-rule="nonzero"/></clipPath><clipPath id="108d066888"><path d="M 0 0 L 1500 0 L 1500 1500 L 0 1500 Z M 0 0 " clip-rule="nonzero"/></clipPath><clipPath id="af14bccfb5"><path d="M -3.417969 0 L 1932.007812 1340.882812 L 1118.976562 2514.410156 L -816.449219 1173.527344 Z M -3.417969 0 " clip-rule="nonzero"/></clipPath><clipPath id="b18463afc0"><rect x="0" width="1500" y="0" height="1500"/></clipPath><clipPath id="da6b7e9bc2"><path d="M 302 291 L 1012 291 L 1012 453 L 302 453 Z M 302 291 " clip-rule="nonzero"/></clipPath><clipPath id="06ba426f89"><path d="M 294.871094 437.453125 L 1011.679688 272.78125 L 1025.019531 330.847656 L 308.210938 495.519531 Z M 294.871094 437.453125 " clip-rule="nonzero"/></clipPath><clipPath id="a682506a9a"><path d="M 294.871094 437.453125 L 1011.679688 272.78125 L 1025.019531 330.847656 L 308.210938 495.519531 Z M 294.871094 437.453125 " clip-rule="nonzero"/></clipPath><clipPath id="0836b91926"><path d="M 294.871094 437.453125 L 1011.679688 272.78125 L 1025.019531 330.847656 L 308.210938 495.519531 Z M 294.871094 437.453125 " clip-rule="nonzero"/></clipPath><clipPath id="fa94575a2b"><rect x="0" width="1026" y="0" height="497"/></clipPath></defs><g clip-path="url(#b1f8791757)"><g transform="matrix(1, 0, 0, 1, 0, 0.000000000000112861)"><g clip-path="url(#b18463afc0)"><g clip-path="url(#108d066888)"><g clip-path="url(#af14bccfb5)"><path fill="#fff500" d="M -3.417969 0 L 1931.066406 1340.230469 L 1118.039062 2513.757812 L -816.449219 1173.527344 Z M -3.417969 0 " fill-opacity="1" fill-rule="nonzero"/></g></g></g></g></g><g transform="matrix(1, 0, 0, 1, 95, 900)"><g clip-path="url(#fa94575a2b)"><g fill="#010101" fill-opacity="1"><g transform="translate(12.606554, 288.443993)"><g><path d="M 87.359375 -172.140625 C 94.753906 -170.617188 100.832031 -166.523438 105.59375 -159.859375 C 110.800781 -152.335938 114.023438 -144.570312 115.265625 -136.5625 C 115.578125 -134.039062 114.453125 -132.785156 111.890625 -132.796875 C 109.398438 -132.765625 107.644531 -134.050781 106.625 -136.65625 C 106.175781 -137.957031 105.78125 -139.242188 105.4375 -140.515625 C 105.207031 -141.378906 104.96875 -142.25 104.71875 -143.125 C 102.96875 -148.550781 100.222656 -153.640625 96.484375 -158.390625 C 91.648438 -164.585938 85.847656 -167.710938 79.078125 -167.765625 C 74.316406 -167.648438 70 -166.617188 66.125 -164.671875 C 55.769531 -159.753906 46.910156 -152.617188 39.546875 -143.265625 C 32.191406 -133.910156 26.207031 -123.09375 21.59375 -110.8125 C 16.988281 -98.53125 13.671875 -85.582031 11.640625 -71.96875 C 9.617188 -58.351562 8.691406 -44.832031 8.859375 -31.40625 C 9.023438 -17.988281 10.179688 -5.425781 12.328125 6.28125 C 14.484375 17.988281 17.457031 28.039062 21.25 36.4375 C 25.050781 44.84375 29.421875 51.234375 34.359375 55.609375 C 39.296875 59.992188 45.148438 61.273438 51.921875 59.453125 C 58.703125 57.628906 66.789062 48.691406 76.1875 32.640625 C 85.59375 16.585938 93.367188 -11.429688 99.515625 -51.421875 C 99.859375 -52.859375 99.753906 -53.832031 99.203125 -54.34375 C 98.648438 -54.851562 97.53125 -55.070312 95.84375 -55 C 95.769531 -55 95.660156 -54.992188 95.515625 -54.984375 C 95.191406 -54.972656 94.867188 -54.925781 94.546875 -54.84375 C 91.578125 -54.550781 88.566406 -54.234375 85.515625 -53.890625 C 77.554688 -52.984375 69.601562 -52.101562 61.65625 -51.25 C 59.4375 -51.09375 57.1875 -51.003906 54.90625 -50.984375 C 54.832031 -50.984375 54.796875 -50.984375 54.796875 -50.984375 C 54.242188 -51.035156 53.734375 -51.210938 53.265625 -51.515625 C 52.796875 -51.816406 52.441406 -52.203125 52.203125 -52.671875 C 51.921875 -53.128906 51.835938 -53.582031 51.953125 -54.03125 C 52.066406 -54.476562 52.359375 -54.800781 52.828125 -55 C 53.222656 -55.09375 53.617188 -55.21875 54.015625 -55.375 C 55.460938 -56.019531 56.929688 -56.453125 58.421875 -56.671875 C 66.210938 -57.847656 72.914062 -58.710938 78.53125 -59.265625 C 84.15625 -59.816406 91.664062 -61.019531 101.0625 -62.875 C 110.457031 -64.738281 115.148438 -60.734375 115.140625 -50.859375 C 115.128906 -40.984375 115.828125 -30.285156 117.234375 -18.765625 C 118.140625 -12.429688 119.085938 -6.09375 120.078125 0.25 C 121.140625 6.644531 122.3125 13.082031 123.59375 19.5625 C 124.101562 22.207031 124.648438 24.894531 125.234375 27.625 C 125.367188 28.238281 125.519531 28.835938 125.6875 29.421875 C 125.78125 30.035156 125.9375 30.632812 126.15625 31.21875 C 126.632812 33.28125 125.941406 34.382812 124.078125 34.53125 C 121.597656 34.894531 119.820312 34.085938 118.75 32.109375 C 118.164062 30.929688 117.644531 29.6875 117.1875 28.375 C 117.101562 28.226562 117.019531 28.03125 116.9375 27.78125 C 113.351562 18.65625 111.007812 9.578125 109.90625 0.546875 C 109.082031 -5.472656 108.28125 -11.523438 107.5 -17.609375 C 107.0625 -20.597656 106.613281 -23.566406 106.15625 -26.515625 C 105.3125 -25.742188 104.722656 -24.894531 104.390625 -23.96875 C 104.066406 -23.039062 103.882812 -22.082031 103.84375 -21.09375 C 103.789062 -20.613281 103.703125 -20.132812 103.578125 -19.65625 C 97.765625 1.125 91.019531 19.003906 83.34375 33.984375 C 75.675781 48.960938 67.289062 58.960938 58.1875 63.984375 C 49.09375 69.015625 41.070312 69.851562 34.125 66.5 C 27.175781 63.15625 21.078125 56.769531 15.828125 47.34375 C 10.585938 37.914062 6.410156 26.515625 3.296875 13.140625 C 0.179688 -0.234375 -1.695312 -14.617188 -2.34375 -30.015625 C -2.988281 -45.410156 -2.1875 -60.789062 0.0625 -76.15625 C 2.3125 -91.53125 6.210938 -105.894531 11.765625 -119.25 C 17.316406 -132.601562 24.703125 -143.941406 33.921875 -153.265625 C 43.148438 -162.585938 54.390625 -168.882812 67.640625 -172.15625 C 73.804688 -173.601562 80.378906 -173.597656 87.359375 -172.140625 Z M 87.359375 -172.140625 "/></g></g></g><g fill="#010101" fill-opacity="1"><g transform="translate(138.306919, 283.461495)"><g><path d="M 51.84375 -28.59375 C 52.625 -29.101562 53.394531 -29.5 54.15625 -29.78125 C 54.914062 -30.070312 55.414062 -30.078125 55.65625 -29.796875 C 55.90625 -29.515625 55.613281 -28.847656 54.78125 -27.796875 C 52.15625 -24.523438 48.984375 -21.503906 45.265625 -18.734375 C 41.554688 -15.972656 37.722656 -13.617188 33.765625 -11.671875 C 30.679688 -10.128906 27.410156 -8.863281 23.953125 -7.875 C 20.492188 -6.894531 17.046875 -6.570312 13.609375 -6.90625 C 10.171875 -7.25 6.988281 -8.640625 4.0625 -11.078125 C -0.375 -14.867188 -2.335938 -19.632812 -1.828125 -25.375 C -1.390625 -29.925781 0.21875 -33.84375 3 -37.125 C 5.789062 -40.40625 9.375 -42.703125 13.75 -44.015625 C 17.414062 -44.960938 21.109375 -45.195312 24.828125 -44.71875 C 26.523438 -44.539062 28.082031 -44.035156 29.5 -43.203125 C 30.8125 -42.265625 31.554688 -41.140625 31.734375 -39.828125 C 31.921875 -38.515625 31.472656 -37.234375 30.390625 -35.984375 C 28.140625 -33.804688 25.484375 -32.457031 22.421875 -31.9375 C 19.003906 -31.207031 15.554688 -30.703125 12.078125 -30.421875 C 10.398438 -30.347656 9.238281 -29.953125 8.59375 -29.234375 C 7.945312 -28.523438 7.601562 -27.328125 7.5625 -25.640625 C 7.1875 -21.046875 8.789062 -17.367188 12.375 -14.609375 C 14.613281 -12.972656 17.273438 -12.34375 20.359375 -12.71875 C 23.441406 -13.101562 26.6875 -14.066406 30.09375 -15.609375 C 33.507812 -17.160156 36.847656 -18.941406 40.109375 -20.953125 C 43.367188 -22.972656 46.289062 -24.875 48.875 -26.65625 C 49.988281 -27.445312 50.976562 -28.09375 51.84375 -28.59375 Z M 13.3125 -36.84375 C 13.3125 -36.769531 13.257812 -36.734375 13.15625 -36.734375 C 13.019531 -36.578125 12.832031 -36.394531 12.59375 -36.1875 C 12.363281 -35.976562 12.148438 -35.765625 11.953125 -35.546875 C 11.765625 -35.335938 11.671875 -35.195312 11.671875 -35.125 C 11.753906 -34.875 12.414062 -34.835938 13.65625 -35.015625 C 14.894531 -35.191406 16.257812 -35.460938 17.75 -35.828125 C 19.25 -36.203125 20.488281 -36.675781 21.46875 -37.25 C 22.457031 -37.820312 22.734375 -38.460938 22.296875 -39.171875 C 22.109375 -39.390625 21.875 -39.578125 21.59375 -39.734375 C 21.3125 -39.890625 21.003906 -39.992188 20.671875 -40.046875 C 19.210938 -39.992188 17.890625 -39.660156 16.703125 -39.046875 C 15.515625 -38.429688 14.382812 -37.695312 13.3125 -36.84375 Z M 13.3125 -36.84375 "/></g></g></g><g fill="#010101" fill-opacity="1"><g transform="translate(191.418193, 281.356275)"><g><path d="M 39.21875 -27.984375 C 41.164062 -30.015625 42.019531 -30.535156 41.78125 -29.546875 C 41.539062 -28.566406 40.5 -26.765625 38.65625 -24.140625 C 36.8125 -21.523438 34.503906 -18.675781 31.734375 -15.59375 C 28.972656 -12.519531 26.023438 -9.828125 22.890625 -7.515625 C 19.765625 -5.210938 16.753906 -3.914062 13.859375 -3.625 C 10.316406 -3.488281 7.429688 -4.429688 5.203125 -6.453125 C 2.984375 -8.472656 1.347656 -11.191406 0.296875 -14.609375 C -0.753906 -18.023438 -1.285156 -21.75 -1.296875 -25.78125 C -1.296875 -30.28125 -1.3125 -34.785156 -1.34375 -39.296875 C -1.351562 -41.566406 -1.363281 -43.78125 -1.375 -45.9375 C -1.332031 -49.5625 -1.347656 -53.1875 -1.421875 -56.8125 C -1.390625 -57.945312 -1.609375 -58.890625 -2.078125 -59.640625 C -2.554688 -60.398438 -3.363281 -60.796875 -4.5 -60.828125 C -5.789062 -60.847656 -7.40625 -60.816406 -9.34375 -60.734375 C -11.019531 -60.671875 -12.457031 -60.613281 -13.65625 -60.5625 C -15.34375 -60.675781 -16.484375 -61.078125 -17.078125 -61.765625 C -17.679688 -62.460938 -17.265625 -63.207031 -15.828125 -64 C -14.816406 -64.4375 -13.585938 -64.703125 -12.140625 -64.796875 C -10.703125 -64.890625 -9.289062 -64.925781 -7.90625 -64.90625 C -7.03125 -64.875 -6.257812 -64.867188 -5.59375 -64.890625 C -3.4375 -64.984375 -2.132812 -65.375 -1.6875 -66.0625 C -1.238281 -66.757812 -1 -68.117188 -0.96875 -70.140625 C -0.90625 -72.253906 -0.878906 -74.394531 -0.890625 -76.5625 C -0.859375 -77.707031 -0.8125 -78.847656 -0.75 -79.984375 C -0.8125 -81.660156 -0.429688 -83.191406 0.390625 -84.578125 C 1.285156 -85.898438 2.472656 -86.445312 3.953125 -86.21875 C 5.242188 -85.945312 5.988281 -85.171875 6.1875 -83.890625 C 6.375 -81.765625 6.515625 -79.617188 6.609375 -77.453125 C 6.734375 -76.253906 6.78125 -75.046875 6.75 -73.828125 C 6.800781 -72.546875 6.894531 -71.21875 7.03125 -69.84375 C 7.019531 -67.9375 7.28125 -66.742188 7.8125 -66.265625 C 8.34375 -65.796875 9.613281 -65.601562 11.625 -65.6875 C 14.914062 -65.820312 18.175781 -65.953125 21.40625 -66.078125 C 22.863281 -66.128906 27.207031 -66.398438 34.4375 -66.890625 C 41.675781 -67.378906 45.601562 -66.945312 46.21875 -65.59375 C 46.84375 -64.25 42.296875 -63.273438 32.578125 -62.671875 C 26.703125 -62.109375 22.15625 -61.765625 18.9375 -61.640625 C 16.78125 -61.628906 14.84375 -61.585938 13.125 -61.515625 C 10.226562 -61.398438 8.460938 -60.820312 7.828125 -59.78125 C 7.191406 -58.75 6.972656 -56.722656 7.171875 -53.703125 C 7.203125 -51.085938 7.195312 -47.9375 7.15625 -44.25 C 6.976562 -36.65625 7.046875 -28.925781 7.359375 -21.0625 C 7.753906 -15.644531 8.859375 -12.171875 10.671875 -10.640625 C 12.492188 -9.109375 14.796875 -8.894531 17.578125 -10 C 20.359375 -11.113281 23.332031 -13.023438 26.5 -15.734375 C 29.664062 -18.453125 32.800781 -21.351562 35.90625 -24.4375 C 36.5625 -25.382812 37.367188 -26.285156 38.328125 -27.140625 C 38.640625 -27.441406 38.9375 -27.722656 39.21875 -27.984375 Z M 39.21875 -27.984375 "/></g></g></g><g fill="#010101" fill-opacity="1"><g transform="translate(230.97734, 279.788234)"><g><path d="M 39.21875 -27.984375 C 41.164062 -30.015625 42.019531 -30.535156 41.78125 -29.546875 C 41.539062 -28.566406 40.5 -26.765625 38.65625 -24.140625 C 36.8125 -21.523438 34.503906 -18.675781 31.734375 -15.59375 C 28.972656 -12.519531 26.023438 -9.828125 22.890625 -7.515625 C 19.765625 -5.210938 16.753906 -3.914062 13.859375 -3.625 C 10.316406 -3.488281 7.429688 -4.429688 5.203125 -6.453125 C 2.984375 -8.472656 1.347656 -11.191406 0.296875 -14.609375 C -0.753906 -18.023438 -1.285156 -21.75 -1.296875 -25.78125 C -1.296875 -30.28125 -1.3125 -34.785156 -1.34375 -39.296875 C -1.351562 -41.566406 -1.363281 -43.78125 -1.375 -45.9375 C -1.332031 -49.5625 -1.347656 -53.1875 -1.421875 -56.8125 C -1.390625 -57.945312 -1.609375 -58.890625 -2.078125 -59.640625 C -2.554688 -60.398438 -3.363281 -60.796875 -4.5 -60.828125 C -5.789062 -60.847656 -7.40625 -60.816406 -9.34375 -60.734375 C -11.019531 -60.671875 -12.457031 -60.613281 -13.65625 -60.5625 C -15.34375 -60.675781 -16.484375 -61.078125 -17.078125 -61.765625 C -17.679688 -62.460938 -17.265625 -63.207031 -15.828125 -64 C -14.816406 -64.4375 -13.585938 -64.703125 -12.140625 -64.796875 C -10.703125 -64.890625 -9.289062 -64.925781 -7.90625 -64.90625 C -7.03125 -64.875 -6.257812 -64.867188 -5.59375 -64.890625 C -3.4375 -64.984375 -2.132812 -65.375 -1.6875 -66.0625 C -1.238281 -66.757812 -1 -68.117188 -0.96875 -70.140625 C -0.90625 -72.253906 -0.878906 -74.394531 -0.890625 -76.5625 C -0.859375 -77.707031 -0.8125 -78.847656 -0.75 -79.984375 C -0.8125 -81.660156 -0.429688 -83.191406 0.390625 -84.578125 C 1.285156 -85.898438 2.472656 -86.445312 3.953125 -86.21875 C 5.242188 -85.945312 5.988281 -85.171875 6.1875 -83.890625 C 6.375 -81.765625 6.515625 -79.617188 6.609375 -77.453125 C 6.734375 -76.253906 6.78125 -75.046875 6.75 -73.828125 C 6.800781 -72.546875 6.894531 -71.21875 7.03125 -69.84375 C 7.019531 -67.9375 7.28125 -66.742188 7.8125 -66.265625 C 8.34375 -65.796875 9.613281 -65.601562 11.625 -65.6875 C 14.914062 -65.820312 18.175781 -65.953125 21.40625 -66.078125 C 22.863281 -66.128906 27.207031 -66.398438 34.4375 -66.890625 C 41.675781 -67.378906 45.601562 -66.945312 46.21875 -65.59375 C 46.84375 -64.25 42.296875 -63.273438 32.578125 -62.671875 C 26.703125 -62.109375 22.15625 -61.765625 18.9375 -61.640625 C 16.78125 -61.628906 14.84375 -61.585938 13.125 -61.515625 C 10.226562 -61.398438 8.460938 -60.820312 7.828125 -59.78125 C 7.191406 -58.75 6.972656 -56.722656 7.171875 -53.703125 C 7.203125 -51.085938 7.195312 -47.9375 7.15625 -44.25 C 6.976562 -36.65625 7.046875 -28.925781 7.359375 -21.0625 C 7.753906 -15.644531 8.859375 -12.171875 10.671875 -10.640625 C 12.492188 -9.109375 14.796875 -8.894531 17.578125 -10 C 20.359375 -11.113281 23.332031 -13.023438 26.5 -15.734375 C 29.664062 -18.453125 32.800781 -21.351562 35.90625 -24.4375 C 36.5625 -25.382812 37.367188 -26.285156 38.328125 -27.140625 C 38.640625 -27.441406 38.9375 -27.722656 39.21875 -27.984375 Z M 39.21875 -27.984375 "/></g></g></g><g fill="#010101" fill-opacity="1"><g transform="translate(270.536455, 278.220194)"><g><path d="M 27.59375 -23.40625 C 26.550781 -21.019531 24.722656 -18.34375 22.109375 -15.375 C 19.492188 -12.414062 16.472656 -10.484375 13.046875 -9.578125 C 9.628906 -8.679688 6.285156 -9.738281 3.015625 -12.75 C 1.753906 -14.09375 0.800781 -15.660156 0.15625 -17.453125 C -0.476562 -19.242188 -0.757812 -21.019531 -0.6875 -22.78125 C -0.707031 -23.257812 -0.726562 -23.863281 -0.75 -24.59375 C -0.820312 -26.46875 -0.820312 -28.628906 -0.75 -31.078125 C -0.6875 -33.523438 -0.410156 -35.75 0.078125 -37.75 C 0.566406 -39.75 1.40625 -40.976562 2.59375 -41.4375 C 6.03125 -42.445312 7.960938 -41.3125 8.390625 -38.03125 C 8.429688 -36.96875 8.441406 -35.90625 8.421875 -34.84375 C 8.359375 -34.28125 8.335938 -33.757812 8.359375 -33.28125 C 8.335938 -31.75 8.320312 -30.21875 8.3125 -28.6875 C 8.363281 -27.476562 8.359375 -26.269531 8.296875 -25.0625 C 8.441406 -19.75 9.753906 -16.640625 12.234375 -15.734375 C 14.722656 -14.828125 17.476562 -16.007812 20.5 -19.28125 C 23.519531 -22.550781 25.472656 -25.25 26.359375 -27.375 C 27.242188 -29.5 27.929688 -29.96875 28.421875 -28.78125 C 28.910156 -27.59375 28.632812 -25.800781 27.59375 -23.40625 Z M 7.09375 -52.921875 C 6.625 -52.492188 6.050781 -52.210938 5.375 -52.078125 C 4.707031 -51.941406 4.113281 -51.972656 3.59375 -52.171875 C 3.175781 -52.492188 2.898438 -52.914062 2.765625 -53.4375 C 2.640625 -53.957031 2.5625 -54.585938 2.53125 -55.328125 C 2.53125 -55.472656 2.5625 -55.617188 2.625 -55.765625 C 2.675781 -56.429688 2.816406 -57.097656 3.046875 -57.765625 C 3.703125 -59.546875 5.1875 -60.410156 7.5 -60.359375 C 8.300781 -60.273438 8.941406 -59.96875 9.421875 -59.4375 C 9.910156 -58.914062 10.035156 -58.285156 9.796875 -57.546875 C 9.316406 -55.734375 8.414062 -54.191406 7.09375 -52.921875 Z M 7.09375 -52.921875 "/></g></g></g><g fill="#010101" fill-opacity="1"><g transform="translate(297.476193, 277.152359)"><g><path d="M 44.53125 -22.921875 C 47.164062 -27.503906 48.722656 -30.40625 49.203125 -31.625 C 49.691406 -32.851562 50.113281 -32.816406 50.46875 -31.515625 C 50.832031 -30.210938 50.046875 -27.203125 48.109375 -22.484375 C 46.179688 -17.773438 43.691406 -14.101562 40.640625 -11.46875 C 37.597656 -8.84375 34.703125 -7.804688 31.953125 -8.359375 C 29.210938 -8.910156 27.191406 -10.722656 25.890625 -13.796875 C 24.597656 -16.878906 24.097656 -20.804688 24.390625 -25.578125 C 24.378906 -25.648438 24.40625 -25.859375 24.46875 -26.203125 C 24.507812 -27.003906 24.597656 -28.191406 24.734375 -29.765625 C 24.867188 -31.347656 24.945312 -32.984375 24.96875 -34.671875 C 25 -36.359375 24.890625 -37.75 24.640625 -38.84375 C 24.398438 -39.9375 23.882812 -40.296875 23.09375 -39.921875 C 21.195312 -38.785156 19.382812 -36.632812 17.65625 -33.46875 C 15.9375 -30.3125 14.394531 -27.007812 13.03125 -23.5625 C 11.664062 -20.125 10.707031 -17.347656 10.15625 -15.234375 C 9.925781 -14.566406 9.71875 -13.859375 9.53125 -13.109375 C 9.238281 -12.148438 8.914062 -11.191406 8.5625 -10.234375 C 7.601562 -7.453125 5.796875 -6.320312 3.140625 -6.84375 C 1.660156 -7.101562 0.765625 -7.960938 0.453125 -9.421875 C 0.335938 -10.546875 0.257812 -11.617188 0.21875 -12.640625 C 0.1875 -13.304688 0.125 -13.910156 0.03125 -14.453125 C -0.425781 -22.566406 -0.953125 -30.734375 -1.546875 -38.953125 C -1.503906 -39.898438 -1.101562 -40.570312 -0.34375 -40.96875 C 0.40625 -41.375 1.3125 -41.597656 2.375 -41.640625 C 3.175781 -41.671875 3.941406 -41.476562 4.671875 -41.0625 C 5.398438 -40.65625 5.878906 -39.757812 6.109375 -38.375 C 6.203125 -37.90625 6.257812 -37.429688 6.28125 -36.953125 C 6.375 -36.703125 6.425781 -36.46875 6.4375 -36.25 C 6.625 -35.113281 6.734375 -34.144531 6.765625 -33.34375 C 6.816406 -32.132812 6.929688 -31.3125 7.109375 -30.875 C 7.285156 -30.445312 7.628906 -30.484375 8.140625 -30.984375 C 8.648438 -31.484375 9.472656 -32.648438 10.609375 -34.484375 C 12.554688 -37.785156 15.03125 -40.613281 18.03125 -42.96875 C 20.757812 -45.101562 23.816406 -46.066406 27.203125 -45.859375 C 30.097656 -45.679688 32.09375 -44.238281 33.1875 -41.53125 C 33.644531 -40.164062 33.898438 -38.773438 33.953125 -37.359375 C 34.015625 -35.953125 33.984375 -34.53125 33.859375 -33.09375 C 33.835938 -31.632812 33.785156 -30.132812 33.703125 -28.59375 C 33.609375 -28.113281 33.535156 -27.640625 33.484375 -27.171875 C 33.222656 -21.910156 33.523438 -18.40625 34.390625 -16.65625 C 35.265625 -14.914062 36.515625 -14.378906 38.140625 -15.046875 C 39.765625 -15.710938 41.894531 -18.335938 44.53125 -22.921875 Z M 44.53125 -22.921875 "/></g></g></g><g fill="#010101" fill-opacity="1"><g transform="translate(345.759177, 275.238523)"><g><path d="M 58.546875 -30.078125 C 59.265625 -30.285156 59.878906 -30.375 60.390625 -30.34375 C 60.910156 -30.3125 61.203125 -30.140625 61.265625 -29.828125 C 61.335938 -29.515625 60.890625 -29.015625 59.921875 -28.328125 C 59.535156 -28.085938 59.078125 -27.753906 58.546875 -27.328125 C 56.660156 -25.859375 54.46875 -24.234375 51.96875 -22.453125 C 49.300781 -20.472656 46.875 -18.660156 44.6875 -17.015625 C 42.5 -15.367188 41.054688 -14.132812 40.359375 -13.3125 C 39.597656 -12.132812 39.144531 -10.875 39 -9.53125 C 38.851562 -8.195312 38.773438 -6.757812 38.765625 -5.21875 C 38.691406 -4 38.609375 -2.789062 38.515625 -1.59375 C 36.941406 11.4375 33.859375 22.632812 29.265625 32 C 24.671875 41.363281 19.378906 48.882812 13.390625 54.5625 C 7.410156 60.238281 1.503906 64.023438 -4.328125 65.921875 C -10.171875 67.828125 -15.164062 67.804688 -19.3125 65.859375 C -23.457031 63.910156 -26.015625 60.023438 -26.984375 54.203125 C -27.566406 49.460938 -26.785156 44.566406 -24.640625 39.515625 C -22.492188 34.460938 -19.5625 29.59375 -15.84375 24.90625 C -12.132812 20.226562 -8.175781 15.910156 -3.96875 11.953125 C 0.226562 7.992188 4.125 4.695312 7.71875 2.0625 C 8.71875 1.289062 9.765625 0.515625 10.859375 -0.265625 C 15.953125 -4.085938 21.140625 -7.789062 26.421875 -11.375 C 29.773438 -13.445312 31.269531 -16.328125 30.90625 -20.015625 C 30.894531 -20.410156 30.875 -20.976562 30.84375 -21.71875 C 30.6875 -22.78125 30.582031 -23.914062 30.53125 -25.125 C 28.59375 -21.738281 25.78125 -18.632812 22.09375 -15.8125 C 18.40625 -12.988281 14.601562 -10.925781 10.6875 -9.625 C 6.769531 -8.320312 3.375 -8.253906 0.5 -9.421875 C -2.363281 -10.585938 -3.941406 -13.507812 -4.234375 -18.1875 C -4.222656 -20.613281 -3.613281 -22.851562 -2.40625 -24.90625 C 0.40625 -30.40625 4.457031 -34.800781 9.75 -38.09375 C 11.71875 -39.257812 14.117188 -40.144531 16.953125 -40.75 C 19.796875 -41.363281 22.550781 -41.4375 25.21875 -40.96875 C 27.882812 -40.507812 30.066406 -39.304688 31.765625 -37.359375 C 32.140625 -38.035156 32.707031 -38.488281 33.46875 -38.71875 C 34.226562 -38.957031 34.941406 -39.085938 35.609375 -39.109375 C 35.753906 -39.117188 35.863281 -39.125 35.9375 -39.125 C 38.914062 -39.53125 40.375 -38.210938 40.3125 -35.171875 C 40.320312 -32.960938 40.335938 -30.785156 40.359375 -28.640625 C 40.347656 -27.023438 40.316406 -25.445312 40.265625 -23.90625 C 40.441406 -22.082031 41.476562 -21.523438 43.375 -22.234375 C 45.28125 -22.953125 47.570312 -24.140625 50.25 -25.796875 C 53.320312 -27.742188 56.085938 -29.171875 58.546875 -30.078125 Z M 23.4375 -25.65625 C 26.664062 -29.1875 28.40625 -31.875 28.65625 -33.71875 C 27.800781 -35.144531 26.519531 -35.976562 24.8125 -36.21875 C 23.101562 -36.46875 21.375 -36.382812 19.625 -35.96875 C 17.875 -35.550781 16.410156 -34.953125 15.234375 -34.171875 C 11.984375 -31.953125 9.644531 -29.320312 8.21875 -26.28125 C 6.789062 -23.25 6.316406 -20.6875 6.796875 -18.59375 C 7.285156 -16.507812 8.878906 -15.847656 11.578125 -16.609375 C 14.273438 -17.367188 18.226562 -20.382812 23.4375 -25.65625 Z M 28.9375 -1.796875 C 28.9375 -1.910156 28.976562 -2.007812 29.0625 -2.09375 C 29.144531 -2.5625 29.207031 -3.164062 29.25 -3.90625 C 29.289062 -4.644531 29.238281 -5.25 29.09375 -5.71875 C 28.957031 -6.1875 28.65625 -6.25 28.1875 -5.90625 C 24.914062 -3.425781 21.488281 -0.703125 17.90625 2.265625 C 15.769531 3.953125 13.753906 5.515625 11.859375 6.953125 C 9.234375 9.066406 6.175781 11.800781 2.6875 15.15625 C -0.800781 18.519531 -4.203125 22.265625 -7.515625 26.390625 C -10.835938 30.515625 -13.539062 34.71875 -15.625 39 C -17.707031 43.28125 -18.671875 47.335938 -18.515625 51.171875 C -18.046875 56.648438 -16.378906 59.890625 -13.515625 60.890625 C -10.660156 61.898438 -7.148438 61.078125 -2.984375 58.421875 C 1.171875 55.765625 5.429688 51.5625 9.796875 45.8125 C 14.171875 40.070312 18.09375 33.148438 21.5625 25.046875 C 25.039062 16.941406 27.5 7.992188 28.9375 -1.796875 Z M 28.9375 -1.796875 "/></g></g></g><g fill="#010101" fill-opacity="1"><g transform="translate(403.863354, 272.935395)"><g/></g></g><g fill="#010101" fill-opacity="1"><g transform="translate(431.735788, 271.830591)"><g><path d="M 39.21875 -27.984375 C 41.164062 -30.015625 42.019531 -30.535156 41.78125 -29.546875 C 41.539062 -28.566406 40.5 -26.765625 38.65625 -24.140625 C 36.8125 -21.523438 34.503906 -18.675781 31.734375 -15.59375 C 28.972656 -12.519531 26.023438 -9.828125 22.890625 -7.515625 C 19.765625 -5.210938 16.753906 -3.914062 13.859375 -3.625 C 10.316406 -3.488281 7.429688 -4.429688 5.203125 -6.453125 C 2.984375 -8.472656 1.347656 -11.191406 0.296875 -14.609375 C -0.753906 -18.023438 -1.285156 -21.75 -1.296875 -25.78125 C -1.296875 -30.28125 -1.3125 -34.785156 -1.34375 -39.296875 C -1.351562 -41.566406 -1.363281 -43.78125 -1.375 -45.9375 C -1.332031 -49.5625 -1.347656 -53.1875 -1.421875 -56.8125 C -1.390625 -57.945312 -1.609375 -58.890625 -2.078125 -59.640625 C -2.554688 -60.398438 -3.363281 -60.796875 -4.5 -60.828125 C -5.789062 -60.847656 -7.40625 -60.816406 -9.34375 -60.734375 C -11.019531 -60.671875 -12.457031 -60.613281 -13.65625 -60.5625 C -15.34375 -60.675781 -16.484375 -61.078125 -17.078125 -61.765625 C -17.679688 -62.460938 -17.265625 -63.207031 -15.828125 -64 C -14.816406 -64.4375 -13.585938 -64.703125 -12.140625 -64.796875 C -10.703125 -64.890625 -9.289062 -64.925781 -7.90625 -64.90625 C -7.03125 -64.875 -6.257812 -64.867188 -5.59375 -64.890625 C -3.4375 -64.984375 -2.132812 -65.375 -1.6875 -66.0625 C -1.238281 -66.757812 -1 -68.117188 -0.96875 -70.140625 C -0.90625 -72.253906 -0.878906 -74.394531 -0.890625 -76.5625 C -0.859375 -77.707031 -0.8125 -78.847656 -0.75 -79.984375 C -0.8125 -81.660156 -0.429688 -83.191406 0.390625 -84.578125 C 1.285156 -85.898438 2.472656 -86.445312 3.953125 -86.21875 C 5.242188 -85.945312 5.988281 -85.171875 6.1875 -83.890625 C 6.375 -81.765625 6.515625 -79.617188 6.609375 -77.453125 C 6.734375 -76.253906 6.78125 -75.046875 6.75 -73.828125 C 6.800781 -72.546875 6.894531 -71.21875 7.03125 -69.84375 C 7.019531 -67.9375 7.28125 -66.742188 7.8125 -66.265625 C 8.34375 -65.796875 9.613281 -65.601562 11.625 -65.6875 C 14.914062 -65.820312 18.175781 -65.953125 21.40625 -66.078125 C 22.863281 -66.128906 27.207031 -66.398438 34.4375 -66.890625 C 41.675781 -67.378906 45.601562 -66.945312 46.21875 -65.59375 C 46.84375 -64.25 42.296875 -63.273438 32.578125 -62.671875 C 26.703125 -62.109375 22.15625 -61.765625 18.9375 -61.640625 C 16.78125 -61.628906 14.84375 -61.585938 13.125 -61.515625 C 10.226562 -61.398438 8.460938 -60.820312 7.828125 -59.78125 C 7.191406 -58.75 6.972656 -56.722656 7.171875 -53.703125 C 7.203125 -51.085938 7.195312 -47.9375 7.15625 -44.25 C 6.976562 -36.65625 7.046875 -28.925781 7.359375 -21.0625 C 7.753906 -15.644531 8.859375 -12.171875 10.671875 -10.640625 C 12.492188 -9.109375 14.796875 -8.894531 17.578125 -10 C 20.359375 -11.113281 23.332031 -13.023438 26.5 -15.734375 C 29.664062 -18.453125 32.800781 -21.351562 35.90625 -24.4375 C 36.5625 -25.382812 37.367188 -26.285156 38.328125 -27.140625 C 38.640625 -27.441406 38.9375 -27.722656 39.21875 -27.984375 Z M 39.21875 -27.984375 "/></g></g></g><g fill="#010101" fill-opacity="1"><g transform="translate(471.294935, 270.262549)"><g><path d="M 52.71875 -28.765625 C 55.6875 -32.335938 57.265625 -33.726562 57.453125 -32.9375 C 57.648438 -32.144531 57.054688 -30.242188 55.671875 -27.234375 C 54.296875 -24.234375 52.078125 -21.628906 49.015625 -19.421875 C 46.765625 -17.890625 44.816406 -16.847656 43.171875 -16.296875 C 41.535156 -15.742188 40.039062 -15.40625 38.6875 -15.28125 C 36.019531 -15.007812 33.945312 -15.691406 32.46875 -17.328125 C 31 -18.960938 29.9375 -21.09375 29.28125 -23.71875 C 28.632812 -26.34375 28.125 -29.054688 27.75 -31.859375 C 27.425781 -33.648438 27.128906 -35.253906 26.859375 -36.671875 C 26.429688 -38.921875 25.726562 -40.144531 24.75 -40.34375 C 23.769531 -40.550781 22.335938 -39.039062 20.453125 -35.8125 C 18.492188 -32.351562 16.804688 -28.5625 15.390625 -24.4375 C 13.984375 -20.320312 12.753906 -16.304688 11.703125 -12.390625 C 11.628906 -12.242188 11.5625 -12.035156 11.5 -11.765625 C 11.257812 -11.203125 11.082031 -10.632812 10.96875 -10.0625 C 10.5625 -8.425781 10.0625 -6.828125 9.46875 -5.265625 C 8.96875 -3.960938 8.054688 -3.082031 6.734375 -2.625 C 5.421875 -2.164062 4.019531 -2.207031 2.53125 -2.75 C 1.5625 -3.101562 0.894531 -3.753906 0.53125 -4.703125 C 0 -6.140625 -0.222656 -7.613281 -0.140625 -9.125 C -0.148438 -9.3125 -0.15625 -9.441406 -0.15625 -9.515625 C -0.0703125 -15.878906 -0.4375 -26.46875 -1.25 -41.28125 C -1.90625 -53.082031 -2.5 -65.785156 -3.03125 -79.390625 C -3.570312 -92.992188 -3.734375 -105.847656 -3.515625 -117.953125 C -3.296875 -130.054688 -2.488281 -139.757812 -1.09375 -147.0625 C -0.46875 -149.71875 0.640625 -152.132812 2.234375 -154.3125 C 3.828125 -156.488281 5.644531 -157.710938 7.6875 -157.984375 C 9.726562 -158.265625 11.707031 -156.941406 13.625 -154.015625 C 14.9375 -151.503906 15.796875 -148.8125 16.203125 -145.9375 C 17.347656 -137.40625 17.144531 -124.222656 15.59375 -106.390625 C 14.050781 -88.566406 12.316406 -72.945312 10.390625 -59.53125 C 8.472656 -46.125 7.691406 -34.960938 8.046875 -26.046875 C 8.785156 -27.429688 9.523438 -28.898438 10.265625 -30.453125 C 11.304688 -32.765625 12.488281 -35.070312 13.8125 -37.375 C 15.132812 -39.6875 16.722656 -41.671875 18.578125 -43.328125 C 20.441406 -44.984375 22.742188 -46.0625 25.484375 -46.5625 C 27.328125 -46.925781 29.21875 -46.875 31.15625 -46.40625 C 33.101562 -45.9375 34.445312 -44.648438 35.1875 -42.546875 C 36.132812 -38.878906 36.566406 -34.960938 36.484375 -30.796875 C 36.660156 -26.359375 37.535156 -23.582031 39.109375 -22.46875 C 40.691406 -21.363281 42.613281 -21.242188 44.875 -22.109375 C 47.132812 -22.972656 49.75 -25.191406 52.71875 -28.765625 Z M 7.234375 -140.578125 C 7.003906 -135.984375 6.847656 -128.328125 6.765625 -117.609375 C 6.679688 -106.898438 6.664062 -96.160156 6.71875 -85.390625 C 6.78125 -74.617188 6.957031 -65.664062 7.25 -58.53125 C 7.863281 -65.019531 8.585938 -73.453125 9.421875 -83.828125 C 10.253906 -94.203125 10.9375 -104.875 11.46875 -115.84375 C 12.007812 -126.8125 12.171875 -135.046875 11.953125 -140.546875 C 11.765625 -143.429688 11.476562 -145.570312 11.09375 -146.96875 C 10.71875 -148.363281 10.148438 -148.84375 9.390625 -148.40625 C 8.640625 -147.976562 8.09375 -146.929688 7.75 -145.265625 C 7.414062 -143.609375 7.242188 -142.046875 7.234375 -140.578125 Z M 7.234375 -140.578125 "/></g></g></g><g fill="#010101" fill-opacity="1"><g transform="translate(526.984947, 268.055114)"><g><path d="M 51.84375 -28.59375 C 52.625 -29.101562 53.394531 -29.5 54.15625 -29.78125 C 54.914062 -30.070312 55.414062 -30.078125 55.65625 -29.796875 C 55.90625 -29.515625 55.613281 -28.847656 54.78125 -27.796875 C 52.15625 -24.523438 48.984375 -21.503906 45.265625 -18.734375 C 41.554688 -15.972656 37.722656 -13.617188 33.765625 -11.671875 C 30.679688 -10.128906 27.410156 -8.863281 23.953125 -7.875 C 20.492188 -6.894531 17.046875 -6.570312 13.609375 -6.90625 C 10.171875 -7.25 6.988281 -8.640625 4.0625 -11.078125 C -0.375 -14.867188 -2.335938 -19.632812 -1.828125 -25.375 C -1.390625 -29.925781 0.21875 -33.84375 3 -37.125 C 5.789062 -40.40625 9.375 -42.703125 13.75 -44.015625 C 17.414062 -44.960938 21.109375 -45.195312 24.828125 -44.71875 C 26.523438 -44.539062 28.082031 -44.035156 29.5 -43.203125 C 30.8125 -42.265625 31.554688 -41.140625 31.734375 -39.828125 C 31.921875 -38.515625 31.472656 -37.234375 30.390625 -35.984375 C 28.140625 -33.804688 25.484375 -32.457031 22.421875 -31.9375 C 19.003906 -31.207031 15.554688 -30.703125 12.078125 -30.421875 C 10.398438 -30.347656 9.238281 -29.953125 8.59375 -29.234375 C 7.945312 -28.523438 7.601562 -27.328125 7.5625 -25.640625 C 7.1875 -21.046875 8.789062 -17.367188 12.375 -14.609375 C 14.613281 -12.972656 17.273438 -12.34375 20.359375 -12.71875 C 23.441406 -13.101562 26.6875 -14.066406 30.09375 -15.609375 C 33.507812 -17.160156 36.847656 -18.941406 40.109375 -20.953125 C 43.367188 -22.972656 46.289062 -24.875 48.875 -26.65625 C 49.988281 -27.445312 50.976562 -28.09375 51.84375 -28.59375 Z M 13.3125 -36.84375 C 13.3125 -36.769531 13.257812 -36.734375 13.15625 -36.734375 C 13.019531 -36.578125 12.832031 -36.394531 12.59375 -36.1875 C 12.363281 -35.976562 12.148438 -35.765625 11.953125 -35.546875 C 11.765625 -35.335938 11.671875 -35.195312 11.671875 -35.125 C 11.753906 -34.875 12.414062 -34.835938 13.65625 -35.015625 C 14.894531 -35.191406 16.257812 -35.460938 17.75 -35.828125 C 19.25 -36.203125 20.488281 -36.675781 21.46875 -37.25 C 22.457031 -37.820312 22.734375 -38.460938 22.296875 -39.171875 C 22.109375 -39.390625 21.875 -39.578125 21.59375 -39.734375 C 21.3125 -39.890625 21.003906 -39.992188 20.671875 -40.046875 C 19.210938 -39.992188 17.890625 -39.660156 16.703125 -39.046875 C 15.515625 -38.429688 14.382812 -37.695312 13.3125 -36.84375 Z M 13.3125 -36.84375 "/></g></g></g><g fill="#010101" fill-opacity="1"><g transform="translate(580.096261, 265.949893)"><g/></g></g><g fill="#010101" fill-opacity="1"><g transform="translate(607.968695, 264.845088)"><g><path d="M 4 -54.625 C 2.65625 -54.40625 1.664062 -54.816406 1.03125 -55.859375 C 0.4375 -56.941406 0.5625 -57.898438 1.40625 -58.734375 C 2.363281 -59.578125 3.5 -60.070312 4.8125 -60.21875 C 6.132812 -60.363281 7.332031 -60.09375 8.40625 -59.40625 C 8.632812 -59.269531 8.804688 -59.078125 8.921875 -58.828125 C 8.929688 -58.679688 8.972656 -58.515625 9.046875 -58.328125 C 8.972656 -58.253906 8.941406 -58.144531 8.953125 -58 C 8.859375 -57.738281 8.742188 -57.476562 8.609375 -57.21875 C 7.390625 -55.8125 5.851562 -54.945312 4 -54.625 Z M 40.5625 -29.046875 C 41.125 -28.804688 41.335938 -28.445312 41.203125 -27.96875 C 41.078125 -27.488281 40.816406 -27.070312 40.421875 -26.71875 C 39.253906 -25.601562 38.125 -24.550781 37.03125 -23.5625 C 33.144531 -20 29.359375 -16.457031 25.671875 -12.9375 C 21.984375 -9.425781 18.242188 -5.582031 14.453125 -1.40625 C 11.878906 1.300781 10.066406 3.414062 9.015625 4.9375 C 7.960938 6.46875 7.328125 8.140625 7.109375 9.953125 C 6.890625 11.773438 6.816406 14.5 6.890625 18.125 C 7.148438 33.113281 6.21875 48.066406 4.09375 62.984375 C 3.375 68.015625 2.101562 72.9375 0.28125 77.75 C -0.644531 80.457031 -2.070312 82.894531 -4 85.0625 C -5.84375 87.15625 -8.210938 88.296875 -11.109375 88.484375 C -14.796875 88.804688 -17.503906 87.5 -19.234375 84.5625 C -20.890625 81.726562 -21.910156 78.742188 -22.296875 75.609375 C -22.972656 70.335938 -23.078125 65.070312 -22.609375 59.8125 C -22.140625 54.550781 -21.273438 49.3125 -20.015625 44.09375 C -17.171875 32.414062 -11.957031 21.617188 -4.375 11.703125 C -2.007812 8.472656 -0.9375 4.972656 -1.15625 1.203125 C -1.21875 -8.460938 -1.234375 -18.101562 -1.203125 -27.71875 C -1.179688 -30.78125 -1.195312 -33.835938 -1.25 -36.890625 C -1.1875 -38.203125 -1.101562 -39.46875 -1 -40.6875 C -0.664062 -42.3125 0.507812 -43.109375 2.53125 -43.078125 C 4.207031 -43.140625 5.273438 -42.503906 5.734375 -41.171875 C 6.304688 -39.023438 6.660156 -36.847656 6.796875 -34.640625 C 6.929688 -32.429688 6.957031 -30.191406 6.875 -27.921875 C 6.882812 -25.898438 6.847656 -23.914062 6.765625 -21.96875 C 6.640625 -17.050781 6.691406 -11.648438 6.921875 -5.765625 C 6.929688 -5.546875 7.039062 -5.320312 7.25 -5.09375 C 7.457031 -4.875 7.679688 -4.71875 7.921875 -4.625 C 8.160156 -4.539062 8.441406 -4.640625 8.765625 -4.921875 C 9.304688 -5.410156 9.851562 -5.90625 10.40625 -6.40625 C 11.320312 -7.25 12.234375 -8.128906 13.140625 -9.046875 C 14.703125 -10.554688 17.398438 -12.914062 21.234375 -16.125 C 25.066406 -19.34375 28.878906 -22.300781 32.671875 -25 C 36.460938 -27.707031 39.09375 -29.054688 40.5625 -29.046875 Z M -4.6875 67.5625 C -3.238281 59.695312 -2.25 51.070312 -1.71875 41.6875 C -1.195312 32.3125 -0.894531 23.554688 -0.8125 15.421875 C -3.457031 18.273438 -5.726562 22.238281 -7.625 27.3125 C -9.53125 32.382812 -11.039062 37.84375 -12.15625 43.6875 C -13.28125 49.539062 -14.070312 55.015625 -14.53125 60.109375 C -15 65.203125 -15.175781 69.15625 -15.0625 71.96875 C -14.707031 78.007812 -13.875 81.421875 -12.5625 82.203125 C -11.25 82.992188 -9.84375 81.96875 -8.34375 79.125 C -6.851562 76.28125 -5.632812 72.425781 -4.6875 67.5625 Z M -4.6875 67.5625 "/></g></g></g><g fill="#010101" fill-opacity="1"><g transform="translate(645.388016, 263.361865)"><g><path d="M 40.953125 -31.671875 C 41.484375 -32.242188 41.800781 -31.585938 41.90625 -29.703125 C 42.019531 -27.828125 40.410156 -25.128906 37.078125 -21.609375 C 33.753906 -18.085938 30.25 -16.34375 26.5625 -16.375 C 25.75 -16.414062 25.0625 -16.320312 24.5 -16.09375 C 23.9375 -15.875 23.472656 -15.394531 23.109375 -14.65625 C 22.734375 -13.96875 22.28125 -13.34375 21.75 -12.78125 C 21.75 -12.78125 21.710938 -12.742188 21.640625 -12.671875 C 19.460938 -10.171875 16.863281 -8.472656 13.84375 -7.578125 C 10.820312 -6.691406 7.914062 -6.816406 5.125 -7.953125 C 2.332031 -9.085938 0.257812 -11.367188 -1.09375 -14.796875 C -2.09375 -17.898438 -2.285156 -21.023438 -1.671875 -24.171875 C -1.160156 -26.941406 -0.253906 -29.554688 1.046875 -32.015625 C 2.597656 -35.296875 4.691406 -37.660156 7.328125 -39.109375 C 9.960938 -40.554688 12.976562 -41.421875 16.375 -41.703125 C 21.414062 -42.160156 24.691406 -39.90625 26.203125 -34.9375 C 27.117188 -32.082031 27.4375 -29.164062 27.15625 -26.1875 C 27.070312 -25.53125 26.972656 -24.828125 26.859375 -24.078125 C 26.722656 -23.609375 26.613281 -23.128906 26.53125 -22.640625 C 26.445312 -21.023438 27.171875 -20.320312 28.703125 -20.53125 C 32.910156 -21.4375 36.992188 -25.148438 40.953125 -31.671875 Z M 11.828125 -11.78125 C 14.390625 -13.09375 16.125 -15.21875 17.03125 -18.15625 C 12.59375 -20.726562 9.550781 -24.566406 7.90625 -29.671875 C 6.644531 -27.203125 5.929688 -24.347656 5.765625 -21.109375 C 5.597656 -17.878906 6.019531 -15.234375 7.03125 -13.171875 C 8.050781 -11.109375 9.648438 -10.644531 11.828125 -11.78125 Z M 18.78125 -23.9375 C 19.425781 -24.988281 19.785156 -26.269531 19.859375 -27.78125 C 19.929688 -29.289062 19.800781 -30.773438 19.46875 -32.234375 C 19.132812 -33.691406 18.703125 -34.832031 18.171875 -35.65625 C 17.640625 -36.488281 17.113281 -36.726562 16.59375 -36.375 C 15.632812 -35.457031 15.128906 -34.175781 15.078125 -32.53125 C 15.035156 -30.882812 15.347656 -29.25 16.015625 -27.625 C 16.691406 -26 17.613281 -24.769531 18.78125 -23.9375 Z M 18.78125 -23.9375 "/></g></g></g><g fill="#010101" fill-opacity="1"><g transform="translate(686.263971, 261.741628)"><g><path d="M 52.359375 -27.90625 C 47.785156 -24.90625 42.503906 -22.847656 36.515625 -21.734375 C 35.398438 -19.335938 34.269531 -17.269531 33.125 -15.53125 C 30.207031 -11.800781 26.75 -9.4375 22.75 -8.4375 C 18.75 -7.4375 15.113281 -7.515625 11.84375 -8.671875 C 11.769531 -8.742188 11.695312 -8.773438 11.625 -8.765625 C 10.800781 -9.128906 9.984375 -9.378906 9.171875 -9.515625 C 8.367188 -9.648438 7.539062 -9.460938 6.6875 -8.953125 C 6.21875 -8.679688 5.65625 -8.570312 5 -8.625 C 4.851562 -8.613281 4.722656 -8.609375 4.609375 -8.609375 C 1.722656 -8.492188 0.1875 -9.867188 0 -12.734375 C -0.1875 -15.660156 -0.335938 -18.535156 -0.453125 -21.359375 C -0.660156 -24.796875 -0.925781 -28.207031 -1.25 -31.59375 C -2.25 -44.664062 -2.890625 -57.804688 -3.171875 -71.015625 C -3.453125 -84.234375 -3.617188 -97.457031 -3.671875 -110.6875 C -3.617188 -111.96875 -3.613281 -113.25 -3.65625 -114.53125 C -3.707031 -117.5 -3.515625 -121.207031 -3.078125 -125.65625 C -2.648438 -130.101562 -1.957031 -134.390625 -1 -138.515625 C -0.0390625 -142.648438 1.195312 -145.703125 2.71875 -147.671875 C 4.09375 -149.828125 5.875 -151.222656 8.0625 -151.859375 C 10.257812 -152.503906 12.414062 -152.507812 14.53125 -151.875 C 16.65625 -151.25 18.316406 -150.148438 19.515625 -148.578125 C 22.066406 -144.878906 23.5625 -139.554688 24 -132.609375 C 24.445312 -125.671875 24.15625 -117.898438 23.125 -109.296875 C 22.09375 -100.703125 20.65625 -92.082031 18.8125 -83.4375 C 16.96875 -74.789062 15.019531 -66.921875 12.96875 -59.828125 C 10.925781 -52.742188 9.054688 -47.222656 7.359375 -43.265625 C 10.492188 -45.253906 13.039062 -46.523438 15 -47.078125 C 16.957031 -47.640625 19.226562 -47.769531 21.8125 -47.46875 C 30.625 -46.71875 35.9375 -42.015625 37.75 -33.359375 C 37.769531 -32.960938 37.785156 -32.597656 37.796875 -32.265625 C 37.878906 -31.929688 37.925781 -31.617188 37.9375 -31.328125 C 38.132812 -30.140625 38.347656 -29.179688 38.578125 -28.453125 C 38.804688 -27.734375 40.851562 -28.035156 44.71875 -29.359375 C 48.582031 -30.691406 51.390625 -32.175781 53.140625 -33.8125 C 54.890625 -35.457031 56.007812 -36.160156 56.5 -35.921875 C 58.4375 -33.984375 57.054688 -31.3125 52.359375 -27.90625 Z M 6 -53.984375 C 6.28125 -54.242188 7.097656 -57.457031 8.453125 -63.625 C 9.816406 -69.800781 11.226562 -77.4375 12.6875 -86.53125 C 14.144531 -95.625 15.242188 -104.71875 15.984375 -113.8125 C 16.722656 -122.90625 16.601562 -130.523438 15.625 -136.671875 C 15.164062 -139.992188 14.535156 -142.664062 13.734375 -144.6875 C 12.941406 -146.707031 12.070312 -147.375 11.125 -146.6875 C 10.1875 -146.007812 9.28125 -143.347656 8.40625 -138.703125 C 7.0625 -131.804688 6.285156 -122.453125 6.078125 -110.640625 C 5.867188 -98.828125 5.832031 -87.191406 5.96875 -75.734375 C 6.050781 -66.953125 6.0625 -59.703125 6 -53.984375 Z M 17.046875 -15.015625 C 16.796875 -13.941406 17.09375 -13.398438 17.9375 -13.390625 C 18.78125 -13.390625 19.847656 -13.71875 21.140625 -14.375 C 22.429688 -15.03125 23.5625 -15.863281 24.53125 -16.875 C 25.5 -17.882812 25.925781 -18.914062 25.8125 -19.96875 C 25.8125 -20.039062 25.753906 -20.113281 25.640625 -20.1875 C 25.523438 -20.257812 25.410156 -20.289062 25.296875 -20.28125 C 23.867188 -20.300781 22.5625 -19.96875 21.375 -19.28125 C 20.195312 -18.59375 19.09375 -17.75 18.0625 -16.75 C 17.613281 -16.257812 17.273438 -15.679688 17.046875 -15.015625 Z M 28.734375 -29.28125 C 28.765625 -32.09375 27.960938 -34.757812 26.328125 -37.28125 C 24.691406 -39.800781 22.691406 -41.414062 20.328125 -42.125 C 17.972656 -42.84375 15.742188 -41.953125 13.640625 -39.453125 C 12.128906 -37.253906 11.179688 -34.398438 10.796875 -30.890625 C 10.421875 -27.390625 10.34375 -23.863281 10.5625 -20.3125 C 13.175781 -21.882812 15.804688 -23.222656 18.453125 -24.328125 C 21.109375 -25.441406 23.875 -26.222656 26.75 -26.671875 C 27.40625 -26.773438 27.90625 -27.070312 28.25 -27.5625 C 28.59375 -28.050781 28.753906 -28.625 28.734375 -29.28125 Z M 28.734375 -29.28125 "/></g></g></g><g fill="#010101" fill-opacity="1"><g transform="translate(739.53985, 259.629884)"><g/></g></g><g fill="#010101" fill-opacity="1"><g transform="translate(767.412283, 258.525079)"><g><path d="M 85.03125 -30.1875 C 85.332031 -30.832031 85.816406 -31.1875 86.484375 -31.25 C 87.148438 -31.3125 87.742188 -30.910156 88.265625 -30.046875 C 88.460938 -29.828125 88.316406 -29.203125 87.828125 -28.171875 C 87.335938 -27.148438 86.675781 -25.988281 85.84375 -24.6875 C 85.019531 -23.394531 84.222656 -22.207031 83.453125 -21.125 C 82.691406 -20.050781 82.15625 -19.347656 81.84375 -19.015625 C 78.375 -14.847656 74.847656 -11.75 71.265625 -9.71875 C 67.691406 -7.695312 63.742188 -7.140625 59.421875 -8.046875 C 55.097656 -8.953125 50.179688 -11.804688 44.671875 -16.609375 C 43.835938 -17.453125 43.003906 -18.300781 42.171875 -19.15625 C 41.929688 -19.394531 41.71875 -19.617188 41.53125 -19.828125 C 40.613281 -20.785156 39.640625 -20.878906 38.609375 -20.109375 C 37.535156 -19.253906 36.445312 -18.398438 35.34375 -17.546875 C 34.382812 -16.785156 33.40625 -16.070312 32.40625 -15.40625 C 29.101562 -12.925781 25.597656 -10.8125 21.890625 -9.0625 C 17.941406 -7.101562 13.75 -6.238281 9.3125 -6.46875 C 2.363281 -7 -1.375 -10.679688 -1.90625 -17.515625 C -2.164062 -22.335938 -1.300781 -26.703125 0.6875 -30.609375 C 2.675781 -34.515625 5.539062 -37.445312 9.28125 -39.40625 C 13.03125 -41.375 17.414062 -41.90625 22.4375 -41 C 23 -40.914062 23.742188 -40.785156 24.671875 -40.609375 C 25.210938 -40.441406 25.894531 -40.300781 26.71875 -40.1875 C 26.195312 -41.300781 25.710938 -42.285156 25.265625 -43.140625 C 24.484375 -44.585938 23.789062 -45.898438 23.1875 -47.078125 C 19.59375 -53.785156 16.578125 -61.492188 14.140625 -70.203125 C 11.703125 -78.921875 10.316406 -87.90625 9.984375 -97.15625 C 9.660156 -106.414062 10.867188 -115.09375 13.609375 -123.1875 C 16.347656 -131.28125 21.160156 -138.046875 28.046875 -143.484375 C 32.429688 -146.710938 37.015625 -148.546875 41.796875 -148.984375 C 46.578125 -149.429688 51.144531 -148.566406 55.5 -146.390625 C 59.851562 -144.210938 63.457031 -140.835938 66.3125 -136.265625 C 70 -129.972656 72.390625 -123.273438 73.484375 -116.171875 C 75.398438 -104.703125 75.585938 -93.9375 74.046875 -83.875 C 72.503906 -73.820312 69.457031 -64.25 64.90625 -55.15625 C 60.363281 -46.070312 54.472656 -37.191406 47.234375 -28.515625 C 46.535156 -27.691406 46.175781 -27.039062 46.15625 -26.5625 C 46.132812 -26.082031 46.507812 -25.414062 47.28125 -24.5625 C 48.882812 -22.613281 50.628906 -20.722656 52.515625 -18.890625 C 54.410156 -17.066406 56.5 -15.554688 58.78125 -14.359375 C 61.988281 -13.128906 65.351562 -13.242188 68.875 -14.703125 C 72.40625 -16.171875 75.640625 -18.351562 78.578125 -21.25 C 81.523438 -24.15625 83.675781 -27.132812 85.03125 -30.1875 Z M 31.375 -23.234375 C 32.300781 -24.066406 32.335938 -24.976562 31.484375 -25.96875 C 30.992188 -26.550781 30.5 -27.140625 30 -27.734375 C 28.632812 -29.296875 27.070312 -30.890625 25.3125 -32.515625 C 23.5625 -34.148438 21.757812 -35.367188 19.90625 -36.171875 C 18.0625 -36.972656 16.222656 -36.972656 14.390625 -36.171875 C 11.867188 -34.859375 9.847656 -32.644531 8.328125 -29.53125 C 6.816406 -26.414062 5.976562 -23.242188 5.8125 -20.015625 C 5.644531 -16.785156 6.359375 -14.359375 7.953125 -12.734375 C 9.554688 -11.109375 12.179688 -11.046875 15.828125 -12.546875 C 21.535156 -15.335938 26.71875 -18.898438 31.375 -23.234375 Z M 43.09375 -35.609375 C 50.457031 -45.023438 55.875 -54.210938 59.34375 -63.171875 C 62.8125 -72.140625 64.984375 -82.554688 65.859375 -94.421875 C 66.148438 -97.335938 66.1875 -101.132812 65.96875 -105.8125 C 65.75 -110.488281 65.132812 -115.363281 64.125 -120.4375 C 63.125 -125.507812 61.5 -130.097656 59.25 -134.203125 C 57 -138.316406 53.957031 -141.222656 50.125 -142.921875 C 46.300781 -144.617188 41.503906 -144.414062 35.734375 -142.3125 C 29.453125 -138.28125 24.878906 -133.085938 22.015625 -126.734375 C 19.148438 -120.378906 17.648438 -113.367188 17.515625 -105.703125 C 17.378906 -98.035156 18.191406 -90.242188 19.953125 -82.328125 C 21.722656 -74.410156 24.035156 -66.929688 26.890625 -59.890625 C 29.742188 -52.847656 32.757812 -46.726562 35.9375 -41.53125 C 36.289062 -40.882812 36.644531 -40.242188 37 -39.609375 C 37.96875 -37.472656 39.328125 -35.5625 41.078125 -33.875 C 41.328125 -34.101562 41.578125 -34.3125 41.828125 -34.5 C 42.296875 -34.820312 42.71875 -35.191406 43.09375 -35.609375 Z M 43.09375 -35.609375 "/></g></g></g><g fill="#010101" fill-opacity="1"><g transform="translate(853.004878, 255.132368)"><g><path d="M 40.953125 -31.671875 C 41.484375 -32.242188 41.800781 -31.585938 41.90625 -29.703125 C 42.019531 -27.828125 40.410156 -25.128906 37.078125 -21.609375 C 33.753906 -18.085938 30.25 -16.34375 26.5625 -16.375 C 25.75 -16.414062 25.0625 -16.320312 24.5 -16.09375 C 23.9375 -15.875 23.472656 -15.394531 23.109375 -14.65625 C 22.734375 -13.96875 22.28125 -13.34375 21.75 -12.78125 C 21.75 -12.78125 21.710938 -12.742188 21.640625 -12.671875 C 19.460938 -10.171875 16.863281 -8.472656 13.84375 -7.578125 C 10.820312 -6.691406 7.914062 -6.816406 5.125 -7.953125 C 2.332031 -9.085938 0.257812 -11.367188 -1.09375 -14.796875 C -2.09375 -17.898438 -2.285156 -21.023438 -1.671875 -24.171875 C -1.160156 -26.941406 -0.253906 -29.554688 1.046875 -32.015625 C 2.597656 -35.296875 4.691406 -37.660156 7.328125 -39.109375 C 9.960938 -40.554688 12.976562 -41.421875 16.375 -41.703125 C 21.414062 -42.160156 24.691406 -39.90625 26.203125 -34.9375 C 27.117188 -32.082031 27.4375 -29.164062 27.15625 -26.1875 C 27.070312 -25.53125 26.972656 -24.828125 26.859375 -24.078125 C 26.722656 -23.609375 26.613281 -23.128906 26.53125 -22.640625 C 26.445312 -21.023438 27.171875 -20.320312 28.703125 -20.53125 C 32.910156 -21.4375 36.992188 -25.148438 40.953125 -31.671875 Z M 11.828125 -11.78125 C 14.390625 -13.09375 16.125 -15.21875 17.03125 -18.15625 C 12.59375 -20.726562 9.550781 -24.566406 7.90625 -29.671875 C 6.644531 -27.203125 5.929688 -24.347656 5.765625 -21.109375 C 5.597656 -17.878906 6.019531 -15.234375 7.03125 -13.171875 C 8.050781 -11.109375 9.648438 -10.644531 11.828125 -11.78125 Z M 18.78125 -23.9375 C 19.425781 -24.988281 19.785156 -26.269531 19.859375 -27.78125 C 19.929688 -29.289062 19.800781 -30.773438 19.46875 -32.234375 C 19.132812 -33.691406 18.703125 -34.832031 18.171875 -35.65625 C 17.640625 -36.488281 17.113281 -36.726562 16.59375 -36.375 C 15.632812 -35.457031 15.128906 -34.175781 15.078125 -32.53125 C 15.035156 -30.882812 15.347656 -29.25 16.015625 -27.625 C 16.691406 -26 17.613281 -24.769531 18.78125 -23.9375 Z M 18.78125 -23.9375 "/></g></g></g><g fill="#010101" fill-opacity="1"><g transform="translate(893.880768, 253.512134)"><g><path d="M 44.53125 -22.921875 C 47.164062 -27.503906 48.722656 -30.40625 49.203125 -31.625 C 49.691406 -32.851562 50.113281 -32.816406 50.46875 -31.515625 C 50.832031 -30.210938 50.046875 -27.203125 48.109375 -22.484375 C 46.179688 -17.773438 43.691406 -14.101562 40.640625 -11.46875 C 37.597656 -8.84375 34.703125 -7.804688 31.953125 -8.359375 C 29.210938 -8.910156 27.191406 -10.722656 25.890625 -13.796875 C 24.597656 -16.878906 24.097656 -20.804688 24.390625 -25.578125 C 24.378906 -25.648438 24.40625 -25.859375 24.46875 -26.203125 C 24.507812 -27.003906 24.597656 -28.191406 24.734375 -29.765625 C 24.867188 -31.347656 24.945312 -32.984375 24.96875 -34.671875 C 25 -36.359375 24.890625 -37.75 24.640625 -38.84375 C 24.398438 -39.9375 23.882812 -40.296875 23.09375 -39.921875 C 21.195312 -38.785156 19.382812 -36.632812 17.65625 -33.46875 C 15.9375 -30.3125 14.394531 -27.007812 13.03125 -23.5625 C 11.664062 -20.125 10.707031 -17.347656 10.15625 -15.234375 C 9.925781 -14.566406 9.71875 -13.859375 9.53125 -13.109375 C 9.238281 -12.148438 8.914062 -11.191406 8.5625 -10.234375 C 7.601562 -7.453125 5.796875 -6.320312 3.140625 -6.84375 C 1.660156 -7.101562 0.765625 -7.960938 0.453125 -9.421875 C 0.335938 -10.546875 0.257812 -11.617188 0.21875 -12.640625 C 0.1875 -13.304688 0.125 -13.910156 0.03125 -14.453125 C -0.425781 -22.566406 -0.953125 -30.734375 -1.546875 -38.953125 C -1.503906 -39.898438 -1.101562 -40.570312 -0.34375 -40.96875 C 0.40625 -41.375 1.3125 -41.597656 2.375 -41.640625 C 3.175781 -41.671875 3.941406 -41.476562 4.671875 -41.0625 C 5.398438 -40.65625 5.878906 -39.757812 6.109375 -38.375 C 6.203125 -37.90625 6.257812 -37.429688 6.28125 -36.953125 C 6.375 -36.703125 6.425781 -36.46875 6.4375 -36.25 C 6.625 -35.113281 6.734375 -34.144531 6.765625 -33.34375 C 6.816406 -32.132812 6.929688 -31.3125 7.109375 -30.875 C 7.285156 -30.445312 7.628906 -30.484375 8.140625 -30.984375 C 8.648438 -31.484375 9.472656 -32.648438 10.609375 -34.484375 C 12.554688 -37.785156 15.03125 -40.613281 18.03125 -42.96875 C 20.757812 -45.101562 23.816406 -46.066406 27.203125 -45.859375 C 30.097656 -45.679688 32.09375 -44.238281 33.1875 -41.53125 C 33.644531 -40.164062 33.898438 -38.773438 33.953125 -37.359375 C 34.015625 -35.953125 33.984375 -34.53125 33.859375 -33.09375 C 33.835938 -31.632812 33.785156 -30.132812 33.703125 -28.59375 C 33.609375 -28.113281 33.535156 -27.640625 33.484375 -27.171875 C 33.222656 -21.910156 33.523438 -18.40625 34.390625 -16.65625 C 35.265625 -14.914062 36.515625 -14.378906 38.140625 -15.046875 C 39.765625 -15.710938 41.894531 -18.335938 44.53125 -22.921875 Z M 44.53125 -22.921875 "/></g></g></g><g fill="#010101" fill-opacity="1"><g transform="translate(942.163752, 251.598298)"><g><path d="M 51.84375 -28.59375 C 52.625 -29.101562 53.394531 -29.5 54.15625 -29.78125 C 54.914062 -30.070312 55.414062 -30.078125 55.65625 -29.796875 C 55.90625 -29.515625 55.613281 -28.847656 54.78125 -27.796875 C 52.15625 -24.523438 48.984375 -21.503906 45.265625 -18.734375 C 41.554688 -15.972656 37.722656 -13.617188 33.765625 -11.671875 C 30.679688 -10.128906 27.410156 -8.863281 23.953125 -7.875 C 20.492188 -6.894531 17.046875 -6.570312 13.609375 -6.90625 C 10.171875 -7.25 6.988281 -8.640625 4.0625 -11.078125 C -0.375 -14.867188 -2.335938 -19.632812 -1.828125 -25.375 C -1.390625 -29.925781 0.21875 -33.84375 3 -37.125 C 5.789062 -40.40625 9.375 -42.703125 13.75 -44.015625 C 17.414062 -44.960938 21.109375 -45.195312 24.828125 -44.71875 C 26.523438 -44.539062 28.082031 -44.035156 29.5 -43.203125 C 30.8125 -42.265625 31.554688 -41.140625 31.734375 -39.828125 C 31.921875 -38.515625 31.472656 -37.234375 30.390625 -35.984375 C 28.140625 -33.804688 25.484375 -32.457031 22.421875 -31.9375 C 19.003906 -31.207031 15.554688 -30.703125 12.078125 -30.421875 C 10.398438 -30.347656 9.238281 -29.953125 8.59375 -29.234375 C 7.945312 -28.523438 7.601562 -27.328125 7.5625 -25.640625 C 7.1875 -21.046875 8.789062 -17.367188 12.375 -14.609375 C 14.613281 -12.972656 17.273438 -12.34375 20.359375 -12.71875 C 23.441406 -13.101562 26.6875 -14.066406 30.09375 -15.609375 C 33.507812 -17.160156 36.847656 -18.941406 40.109375 -20.953125 C 43.367188 -22.972656 46.289062 -24.875 48.875 -26.65625 C 49.988281 -27.445312 50.976562 -28.09375 51.84375 -28.59375 Z M 13.3125 -36.84375 C 13.3125 -36.769531 13.257812 -36.734375 13.15625 -36.734375 C 13.019531 -36.578125 12.832031 -36.394531 12.59375 -36.1875 C 12.363281 -35.976562 12.148438 -35.765625 11.953125 -35.546875 C 11.765625 -35.335938 11.671875 -35.195312 11.671875 -35.125 C 11.753906 -34.875 12.414062 -34.835938 13.65625 -35.015625 C 14.894531 -35.191406 16.257812 -35.460938 17.75 -35.828125 C 19.25 -36.203125 20.488281 -36.675781 21.46875 -37.25 C 22.457031 -37.820312 22.734375 -38.460938 22.296875 -39.171875 C 22.109375 -39.390625 21.875 -39.578125 21.59375 -39.734375 C 21.3125 -39.890625 21.003906 -39.992188 20.671875 -40.046875 C 19.210938 -39.992188 17.890625 -39.660156 16.703125 -39.046875 C 15.515625 -38.429688 14.382812 -37.695312 13.3125 -36.84375 Z M 13.3125 -36.84375 "/></g></g></g><g clip-path="url(#da6b7e9bc2)"><g clip-path="url(#06ba426f89)"><g clip-path="url(#a682506a9a)"><g clip-path="url(#0836b91926)"><path fill="#000000" d="M 996.292969 293.789062 C 996.175781 293.933594 996.054688 294.074219 995.933594 294.214844 C 994.914062 294.539062 993.839844 294.804688 992.792969 295.015625 C 992.074219 295.148438 992.214844 295.085938 991.285156 295.296875 C 987.519531 296.140625 983.917969 297.109375 980.195312 298.085938 C 981.152344 297.984375 982.105469 297.886719 983.0625 297.792969 C 980.675781 298.269531 978.285156 298.746094 975.894531 299.222656 C 975.582031 299.167969 975.273438 299.113281 974.964844 299.0625 C 976.457031 298.65625 977.953125 298.246094 979.445312 297.832031 C 976.445312 298.371094 973.167969 299.152344 970.1875 299.867188 C 968.796875 300.234375 967.402344 300.597656 966.007812 300.960938 C 966.289062 300.976562 966.570312 300.988281 966.855469 301.003906 C 963.207031 301.761719 959.5625 302.523438 955.914062 303.28125 C 947.917969 305.078125 939.921875 306.863281 931.921875 308.652344 C 934.507812 308.183594 937.09375 307.71875 939.675781 307.253906 C 935.585938 308.164062 931.492188 309.082031 927.394531 309.949219 C 915.207031 312.554688 902.949219 315.34375 890.804688 318.15625 C 888.640625 318.660156 886.476562 319.167969 884.308594 319.675781 C 886.898438 318.980469 867.84375 323.46875 864.015625 324.382812 C 859.601562 325.441406 819.742188 335.085938 819.753906 335.15625 C 806.921875 338.421875 794.101562 341.824219 781.265625 345.050781 C 772.429688 347.21875 763.582031 349.429688 754.726562 351.523438 C 742.265625 354.527344 729.625 357.804688 717.265625 361.21875 C 715.601562 361.6875 713.933594 362.15625 712.265625 362.628906 C 697.800781 366.617188 683.453125 370.773438 669.101562 375.183594 C 650.964844 380.835938 633.074219 386.722656 615.648438 394.332031 C 609.695312 397.007812 604.128906 399.710938 598.671875 403.3125 C 596.554688 404.746094 594.761719 406.113281 592.9375 407.910156 C 591.261719 409.632812 590.105469 411.125 589.171875 413.359375 C 588.792969 414.429688 588.699219 415.214844 588.90625 416.335938 C 589.035156 416.925781 589.199219 417.375 589.488281 417.894531 C 589.90625 418.613281 590.328125 419.089844 590.992188 419.589844 C 591.757812 420.125 592.425781 420.394531 593.347656 420.546875 C 597.523438 420.894531 601.492188 420.625 605.644531 420.269531 C 610.613281 419.847656 615.574219 419.226562 620.507812 418.503906 C 624.792969 417.859375 629.066406 417.164062 633.339844 416.441406 C 636.425781 415.867188 639.511719 415.28125 642.597656 414.683594 C 645.914062 414.152344 649.230469 413.605469 652.542969 413.046875 C 651.332031 413.402344 650.117188 413.757812 648.90625 414.109375 C 651.496094 413.828125 654.679688 413.132812 657.277344 412.621094 C 658.859375 412.285156 660.441406 411.949219 662.023438 411.613281 C 662.039062 411.6875 662.050781 411.761719 662.066406 411.839844 C 665.28125 411.535156 666.679688 411.277344 670.09375 410.578125 C 679.507812 408.625 672.15625 409.859375 667.972656 410.417969 C 670.296875 409.859375 672.621094 409.292969 674.945312 408.726562 C 680.128906 407.722656 685.304688 406.703125 690.480469 405.667969 C 700.296875 403.558594 710.179688 401.597656 720.015625 399.578125 C 727.453125 398.050781 734.890625 396.503906 742.320312 394.941406 C 748.3125 393.617188 754.296875 392.285156 760.28125 390.945312 C 766.957031 389.535156 773.628906 388.121094 780.300781 386.695312 C 784.964844 385.777344 789.628906 384.816406 794.285156 383.851562 C 797.734375 382.917969 801.214844 382.066406 804.703125 381.289062 C 810.46875 380.027344 816.203125 378.621094 821.972656 377.347656 C 826.414062 376.367188 830.761719 375.179688 835.183594 374.136719 C 839.28125 373.167969 843.394531 372.21875 847.472656 371.167969 C 848.128906 370.988281 851.910156 369.824219 852.15625 369.226562 C 852.140625 369.152344 852.125 369.078125 852.109375 369.003906 C 852.78125 365.675781 854.625 362.773438 857.835938 361.417969 C 860.179688 360.644531 862.542969 359.949219 864.882812 359.179688 C 867.398438 358.265625 871.027344 356.433594 873.359375 355.070312 C 874.015625 354.710938 877.527344 353.484375 877.007812 352.980469 C 876.703125 352.394531 879.753906 351.195312 880.269531 350.984375 C 878.019531 351.257812 881.476562 350.484375 881.667969 350.441406 C 882.132812 350.335938 888.914062 348.691406 884.90625 349.492188 C 882.148438 350.070312 879.390625 350.722656 876.660156 351.410156 C 875.558594 351.644531 871.097656 352.648438 870.367188 352.628906 C 870.339844 352.492188 870.917969 352.453125 870.339844 352.492188 C 869.816406 352.515625 871.207031 352.199219 869.628906 352.546875 C 868.117188 352.886719 866.582031 353.214844 865.109375 353.699219 C 863.277344 354.304688 861.453125 354.644531 859.546875 354.941406 C 858.53125 355.109375 857.515625 355.273438 856.5 355.441406 C 855.804688 355.421875 854.042969 355.902344 853.378906 356.085938 C 851.285156 356.683594 849.183594 357.257812 847.082031 357.828125 C 843.046875 358.679688 838.976562 359.546875 834.972656 360.523438 C 833.054688 360.996094 832.269531 361.011719 830.390625 361.347656 C 827.773438 361.828125 825.320312 362.425781 822.742188 363.042969 C 819.199219 363.890625 815.632812 364.683594 812.101562 365.582031 C 805.226562 367.25 798.246094 368.777344 791.335938 370.316406 C 783.378906 372.074219 775.453125 373.777344 767.511719 375.617188 C 762.695312 376.734375 757.839844 378.03125 752.953125 378.78125 C 748.476562 379.484375 743.917969 380.460938 739.484375 381.433594 C 732.753906 382.847656 726.023438 384.25 719.289062 385.636719 C 712.429688 387.070312 724.382812 384.980469 725.121094 384.859375 C 719.214844 386.082031 713.277344 387.371094 707.339844 388.402344 C 702.285156 389.332031 697.199219 390.410156 692.164062 391.449219 C 688.277344 392.207031 684.394531 392.953125 680.507812 393.695312 C 677.449219 394.398438 674.378906 395.066406 671.308594 395.695312 C 667.386719 396.488281 663.460938 397.273438 659.53125 398.039062 C 644.453125 400.929688 608.863281 408.140625 594.9375 407.4375 C 596.507812 407.660156 597.496094 408 598.800781 408.914062 C 599.78125 409.652344 600.414062 410.355469 601.03125 411.410156 C 601.457031 412.179688 601.691406 412.835938 601.882812 413.703125 C 602.164062 415.226562 602.078125 416.449219 601.585938 417.921875 C 601.5625 418.289062 601.328125 418.390625 601.539062 418.128906 C 601.625 418.019531 602.316406 417.234375 602.347656 417.253906 C 602.351562 417.257812 602.4375 417.167969 602.445312 417.160156 C 603.566406 416.070312 604.773438 415.191406 606.0625 414.3125 C 610.808594 411.175781 615.835938 408.765625 621.011719 406.4375 C 622.621094 405.71875 624.234375 405.023438 625.859375 404.34375 C 632.695312 401.457031 639.664062 398.84375 646.660156 396.371094 C 655.390625 393.3125 664.128906 390.480469 672.960938 387.734375 C 678.789062 385.929688 684.621094 384.175781 690.476562 382.457031 C 689.246094 382.890625 688.015625 383.328125 686.789062 383.769531 C 695.605469 381.085938 704.460938 378.449219 713.347656 376.011719 C 718.808594 374.515625 724.289062 373.070312 729.742188 371.550781 C 735.972656 369.804688 742.304688 368.371094 748.527344 366.59375 C 766.761719 361.542969 785.476562 356.871094 803.871094 352.394531 C 810.164062 350.878906 816.457031 349.355469 822.753906 347.851562 C 880.367188 334.238281 944.320312 322.148438 1000.582031 306.683594 C 999.273438 307.144531 997.949219 307.578125 996.628906 307.996094 C 998.210938 307.582031 999.785156 307.152344 1001.359375 306.722656 C 1002.742188 306.347656 1004.148438 305.972656 1005.507812 305.53125 C 1006.199219 305.28125 1006.890625 305.007812 1007.546875 304.675781 C 1015.882812 300.625 1009.023438 291.085938 1011.273438 295.261719 C 1012.40625 299.730469 1011.265625 303.09375 1006.964844 304.734375 C 1014.34375 301.398438 1012.210938 291.132812 1003.53125 291.160156 C 1002.625 291.175781 1001.726562 291.25 1000.824219 291.335938 C 1000.808594 291.25 983.164062 293.058594 981.292969 293.246094 C 960.089844 295.527344 937.9375 298.828125 916.898438 301.898438 C 887.609375 306.445312 856.628906 311.308594 827.589844 317.542969 C 821.414062 318.734375 815.242188 319.945312 809.070312 321.175781 C 804.292969 322.066406 799.511719 322.96875 794.734375 323.882812 C 787.226562 325.328125 779.726562 326.800781 772.230469 328.296875 C 769.78125 328.882812 767.335938 329.472656 764.890625 330.0625 C 760.621094 330.976562 756.351562 331.898438 752.078125 332.8125 C 748.121094 333.65625 744.152344 334.460938 740.207031 335.359375 C 727.21875 338.320312 714.238281 341.273438 701.265625 344.304688 C 699.359375 344.671875 697.453125 345.039062 695.546875 345.40625 C 686.230469 347.578125 676.925781 349.789062 667.613281 351.976562 C 654.753906 354.972656 641.90625 358.207031 629.09375 361.394531 C 602.089844 368.078125 575.019531 374.816406 548.132812 381.953125 C 539.019531 384.445312 529.738281 386.480469 520.625 389.015625 C 514.632812 390.683594 508.660156 392.269531 502.652344 393.878906 C 501.863281 394.539062 499.277344 395.316406 498.320312 395.589844 C 486.816406 398.792969 475.269531 401.910156 463.808594 405.273438 C 454.636719 407.957031 445.339844 410.371094 436.210938 413.167969 C 424.347656 416.726562 412.410156 420.214844 400.511719 423.667969 C 380.523438 429.453125 360.378906 434.730469 340.554688 441.082031 C 339.0625 441.558594 326.246094 445.648438 334.730469 442.757812 C 332.773438 443.34375 330.820312 443.925781 328.863281 444.511719 C 324.152344 445.84375 319.441406 447.183594 314.730469 448.53125 C 312.371094 449.121094 310.011719 449.710938 307.652344 450.304688 C 307.121094 450.464844 300.496094 452.414062 302.335938 452.078125 C 305.03125 451.464844 307.871094 450.601562 310.53125 449.808594 C 317.058594 454.957031 348.9375 450.457031 356.027344 449.464844 C 361.503906 447.738281 370.691406 444.578125 375.96875 443.65625 C 379.234375 443.292969 385.386719 441.324219 388.722656 440.371094 C 392.472656 439.296875 396.191406 438.144531 399.949219 437.078125 C 407.613281 434.902344 415.296875 432.683594 423.003906 430.675781 C 433.09375 427.953125 443.253906 424.664062 453.363281 421.804688 C 473.9375 416.035156 494.421875 410.105469 515.09375 404.679688 C 529.089844 401 543.09375 397.332031 557.085938 393.625 C 552.222656 395.050781 547.359375 396.488281 542.5 397.929688 C 552.902344 395.246094 563.304688 392.546875 573.691406 389.792969 C 580.503906 387.980469 587.339844 386.167969 594.183594 384.472656 C 597.296875 383.792969 600.410156 383.121094 603.527344 382.445312 C 628.410156 376.308594 653.425781 370.410156 678.253906 364.101562 C 683.84375 362.652344 689.410156 361.171875 695.015625 359.785156 C 701.164062 358.277344 707.34375 356.898438 713.558594 355.691406 C 722.175781 353.722656 730.804688 351.777344 739.445312 349.894531 C 744.960938 348.683594 750.480469 347.433594 755.976562 346.144531 C 768.625 343.355469 781.285156 340.628906 793.960938 337.972656 C 799.277344 336.953125 804.589844 335.925781 809.898438 334.886719 C 835.507812 329.839844 861.183594 325.09375 886.929688 320.804688 C 896.53125 319.195312 906.144531 317.546875 915.730469 315.84375 C 918.320312 315.449219 920.910156 315.0625 923.5 314.683594 C 934.503906 312.945312 945.527344 311.3125 956.566406 309.816406 C 961.886719 309.0625 968.34375 308.058594 973.632812 307.824219 C 976.898438 307.792969 980.046875 307.382812 983.304688 307.09375 C 989.039062 306.585938 994.769531 306.09375 1000.507812 305.632812 C 1000.976562 305.578125 1001.449219 305.523438 1001.921875 305.46875 C 1008.324219 304.445312 992.617188 304.542969 999.890625 293.335938 C 1003.277344 290.492188 1001.144531 292.5 996.292969 293.789062 Z M 996.292969 293.789062 " fill-opacity="1" fill-rule="nonzero"/></g></g></g></g></g></g></svg>