<svg xmlns="http://www.w3.org/2000/svg" xmlns:xlink="http://www.w3.org/1999/xlink" width="2000" zoomAndPan="magnify" viewBox="0 0 1500 1499.999933" height="2000" preserveAspectRatio="xMidYMid meet" version="1.0"><defs><g/><clipPath id="4f7ffcfcfb"><path d="M -3.417969 0 L 1932.007812 1340.882812 L 1118.976562 2514.410156 L -816.449219 1173.527344 Z M -3.417969 0 " clip-rule="nonzero"/></clipPath><clipPath id="bd08593254"><path d="M 0 0 L 1500 0 L 1500 1500 L 0 1500 Z M 0 0 " clip-rule="nonzero"/></clipPath><clipPath id="dfb8418101"><path d="M -3.417969 0 L 1932.007812 1340.882812 L 1118.976562 2514.410156 L -816.449219 1173.527344 Z M -3.417969 0 " clip-rule="nonzero"/></clipPath><clipPath id="0044e65433"><rect x="0" width="1500" y="0" height="1500"/></clipPath><clipPath id="619d21329a"><path d="M 0.0390625 0 L 767 0 L 767 257 L 0.0390625 257 Z M 0.0390625 0 " clip-rule="nonzero"/></clipPath><clipPath id="ce3dbcfe93"><rect x="0" width="767" y="0" height="257"/></clipPath><clipPath id="20fd801a14"><path d="M 257 199 L 761 199 L 761 314 L 257 314 Z M 257 199 " clip-rule="nonzero"/></clipPath><clipPath id="a9df41d694"><path d="M 251.957031 302.632812 L 760.003906 185.921875 L 769.519531 227.339844 L 261.472656 344.054688 Z M 251.957031 302.632812 " clip-rule="nonzero"/></clipPath><clipPath id="0c4cda412b"><path d="M 251.957031 302.632812 L 760.003906 185.921875 L 769.519531 227.339844 L 261.472656 344.054688 Z M 251.957031 302.632812 " clip-rule="nonzero"/></clipPath><clipPath id="c817715d91"><path d="M 251.957031 302.632812 L 760.003906 185.921875 L 769.519531 227.339844 L 261.472656 344.054688 Z M 251.957031 302.632812 " clip-rule="nonzero"/></clipPath><clipPath id="ded25a778b"><rect x="0" width="770" y="0" height="345"/></clipPath></defs><g clip-path="url(#4f7ffcfcfb)"><g transform="matrix(1, 0, 0, 1, 0, 0.000000000000112861)"><g clip-path="url(#0044e65433)"><g clip-path="url(#bd08593254)"><g clip-path="url(#dfb8418101)"><path fill="#fff500" d="M -3.417969 0 L 1931.066406 1340.230469 L 1118.039062 2513.757812 L -816.449219 1173.527344 Z M -3.417969 0 " fill-opacity="1" fill-rule="nonzero"/></g></g></g></g></g><g transform="matrix(1, 0, 0, 1, 155, 1050)"><g clip-path="url(#ded25a778b)"><g clip-path="url(#619d21329a)"><g transform="matrix(1, 0, 0, 1, -0.000000000000028422, 0.000000000000227374)"><g clip-path="url(#ce3dbcfe93)"><g fill="#010101" fill-opacity="1"><g transform="translate(6.657804, 186.733791)"><g><path d="M 151.765625 -120.40625 C 153.804688 -119.21875 154.550781 -117.472656 154 -115.171875 C 153.625 -114.046875 153.117188 -112.984375 152.484375 -111.984375 C 151.441406 -110.367188 150.179688 -108.921875 148.703125 -107.640625 C 141.835938 -101.304688 133.8125 -97.253906 124.625 -95.484375 C 122.613281 -95.078125 120.597656 -94.640625 118.578125 -94.171875 C 117.660156 -93.921875 116.796875 -93.929688 115.984375 -94.203125 C 115.460938 -94.390625 115.195312 -94.710938 115.1875 -95.171875 C 115.21875 -95.378906 115.28125 -95.582031 115.375 -95.78125 C 115.46875 -95.988281 115.585938 -96.117188 115.734375 -96.171875 C 116.390625 -96.566406 117.070312 -96.847656 117.78125 -97.015625 C 118.675781 -97.203125 119.582031 -97.398438 120.5 -97.609375 C 121.164062 -97.671875 121.84375 -97.789062 122.53125 -97.96875 C 127.0625 -98.976562 131.1875 -100.671875 134.90625 -103.046875 C 138.632812 -105.429688 142.054688 -108.34375 145.171875 -111.78125 C 146.109375 -112.738281 146.800781 -113.851562 147.25 -115.125 C 147.75 -116.6875 147.28125 -117.757812 145.84375 -118.34375 C 143.976562 -118.9375 142.085938 -119.222656 140.171875 -119.203125 C 137.765625 -119.109375 135.394531 -119.015625 133.0625 -118.921875 C 132.050781 -118.878906 131.035156 -118.835938 130.015625 -118.796875 C 123.972656 -118.554688 117.96875 -118 112 -117.125 C 106.039062 -116.257812 100.085938 -115.28125 94.140625 -114.1875 C 84.679688 -112.582031 75.265625 -110.734375 65.890625 -108.640625 C 65.972656 -107.367188 66.039062 -106.097656 66.09375 -104.828125 C 66.726562 -88.734375 67.363281 -72.664062 68 -56.625 C 68.21875 -51.34375 68.429688 -46.054688 68.640625 -40.765625 C 68.835938 -35.585938 69.039062 -30.429688 69.25 -25.296875 C 69.832031 -10.421875 70.421875 4.457031 71.015625 19.34375 C 71.171875 23.289062 71.257812 27.253906 71.28125 31.234375 C 71.363281 33.359375 70.390625 34.285156 68.359375 34.015625 C 67.328125 33.890625 66.71875 33.359375 66.53125 32.421875 C 66.507812 32.003906 66.46875 31.585938 66.40625 31.171875 C 66.164062 29.265625 66.007812 27.328125 65.9375 25.359375 C 65.375 12.566406 64.835938 -0.253906 64.328125 -13.109375 C 63.085938 -44.554688 61.84375 -76.003906 60.59375 -107.453125 C 60.5 -107.378906 60.394531 -107.335938 60.28125 -107.328125 C 59.976562 -107.273438 59.707031 -107.21875 59.46875 -107.15625 C 51.988281 -105.382812 44.609375 -103.335938 37.328125 -101.015625 C 30.046875 -98.691406 22.882812 -96.007812 15.84375 -92.96875 C 13.34375 -91.925781 10.863281 -90.765625 8.40625 -89.484375 C 7.664062 -89.117188 6.957031 -88.765625 6.28125 -88.421875 C 4.914062 -87.847656 3.859375 -86.882812 3.109375 -85.53125 C 2.578125 -84.707031 1.75 -84.257812 0.625 -84.1875 C -0.488281 -84.125 -1.484375 -84.398438 -2.359375 -85.015625 C -3.054688 -85.609375 -3.164062 -86.273438 -2.6875 -87.015625 C -2.15625 -87.796875 -1.507812 -88.460938 -0.75 -89.015625 C 0.0078125 -89.578125 0.820312 -90.109375 1.6875 -90.609375 C 5.945312 -93.003906 10.3125 -95.109375 14.78125 -96.921875 C 26.132812 -101.585938 37.722656 -105.457031 49.546875 -108.53125 C 53.191406 -109.4375 56.828125 -110.304688 60.453125 -111.140625 C 60.472656 -111.898438 60.488281 -112.644531 60.5 -113.375 C 60.625 -114.34375 61.066406 -115.03125 61.828125 -115.4375 C 62.597656 -115.851562 63.476562 -115.851562 64.46875 -115.4375 C 65.195312 -115.070312 65.554688 -114.46875 65.546875 -113.625 C 65.554688 -113.1875 65.59375 -112.742188 65.65625 -112.296875 C 74.375 -114.160156 83.128906 -115.882812 91.921875 -117.46875 C 101.054688 -119.144531 110.242188 -120.523438 119.484375 -121.609375 C 126.648438 -122.398438 133.863281 -122.753906 141.125 -122.671875 C 143.445312 -122.628906 145.757812 -122.359375 148.0625 -121.859375 C 149.394531 -121.617188 150.628906 -121.132812 151.765625 -120.40625 Z M 151.765625 -120.40625 "/></g></g></g><g fill="#010101" fill-opacity="1"><g transform="translate(91.142136, 183.385009)"><g><path d="M 33.265625 -18.15625 C 35.140625 -20.414062 36.140625 -21.289062 36.265625 -20.78125 C 36.390625 -20.28125 36.015625 -19.082031 35.140625 -17.1875 C 34.265625 -15.289062 32.859375 -13.644531 30.921875 -12.25 C 29.515625 -11.300781 28.289062 -10.648438 27.25 -10.296875 C 26.21875 -9.941406 25.273438 -9.722656 24.421875 -9.640625 C 22.734375 -9.484375 21.421875 -9.914062 20.484375 -10.9375 C 19.554688 -11.96875 18.890625 -13.3125 18.484375 -14.96875 C 18.078125 -16.625 17.753906 -18.335938 17.515625 -20.109375 C 17.304688 -21.242188 17.113281 -22.253906 16.9375 -23.140625 C 16.675781 -24.566406 16.238281 -25.34375 15.625 -25.46875 C 15.007812 -25.59375 14.101562 -24.640625 12.90625 -22.609375 C 11.664062 -20.429688 10.601562 -18.035156 9.71875 -15.421875 C 8.84375 -12.816406 8.066406 -10.28125 7.390625 -7.8125 C 7.347656 -7.71875 7.304688 -7.59375 7.265625 -7.4375 C 7.117188 -7.09375 7.007812 -6.726562 6.9375 -6.34375 C 6.664062 -5.320312 6.34375 -4.3125 5.96875 -3.3125 C 5.65625 -2.5 5.082031 -1.945312 4.25 -1.65625 C 3.414062 -1.375 2.53125 -1.394531 1.59375 -1.71875 C 0.988281 -1.957031 0.570312 -2.375 0.34375 -2.96875 C 0 -3.875 -0.144531 -4.800781 -0.09375 -5.75 C -0.09375 -5.863281 -0.09375 -5.945312 -0.09375 -6 C -0.0390625 -10.019531 -0.269531 -16.707031 -0.78125 -26.0625 C -1.195312 -33.5 -1.578125 -41.507812 -1.921875 -50.09375 C -2.265625 -58.6875 -2.363281 -66.800781 -2.21875 -74.4375 C -2.082031 -82.082031 -1.570312 -88.207031 -0.6875 -92.8125 C -0.289062 -94.488281 0.40625 -96.007812 1.40625 -97.375 C 2.414062 -98.75 3.566406 -99.523438 4.859375 -99.703125 C 6.148438 -99.878906 7.394531 -99.046875 8.59375 -97.203125 C 9.414062 -95.609375 9.957031 -93.90625 10.21875 -92.09375 C 10.9375 -86.71875 10.804688 -78.398438 9.828125 -67.140625 C 8.859375 -55.890625 7.765625 -46.03125 6.546875 -37.5625 C 5.335938 -29.101562 4.847656 -22.054688 5.078125 -16.421875 C 5.554688 -17.296875 6.03125 -18.226562 6.5 -19.21875 C 7.15625 -20.6875 7.894531 -22.144531 8.71875 -23.59375 C 9.550781 -25.050781 10.550781 -26.300781 11.71875 -27.34375 C 12.894531 -28.382812 14.34375 -29.070312 16.0625 -29.40625 C 17.238281 -29.625 18.4375 -29.582031 19.65625 -29.28125 C 20.882812 -28.988281 21.734375 -28.179688 22.203125 -26.859375 C 22.804688 -24.546875 23.078125 -22.066406 23.015625 -19.421875 C 23.128906 -16.628906 23.6875 -14.882812 24.6875 -14.1875 C 25.6875 -13.488281 26.894531 -13.410156 28.3125 -13.953125 C 29.738281 -14.492188 31.390625 -15.894531 33.265625 -18.15625 Z M 4.578125 -88.71875 C 4.429688 -85.820312 4.328125 -80.988281 4.265625 -74.21875 C 4.210938 -67.457031 4.207031 -60.675781 4.25 -53.875 C 4.289062 -47.082031 4.398438 -41.4375 4.578125 -36.9375 C 4.960938 -41.019531 5.421875 -46.335938 5.953125 -52.890625 C 6.484375 -59.441406 6.910156 -66.179688 7.234375 -73.109375 C 7.566406 -80.035156 7.664062 -85.234375 7.53125 -88.703125 C 7.414062 -90.515625 7.234375 -91.859375 6.984375 -92.734375 C 6.742188 -93.617188 6.390625 -93.925781 5.921875 -93.65625 C 5.453125 -93.382812 5.109375 -92.722656 4.890625 -91.671875 C 4.679688 -90.628906 4.578125 -89.644531 4.578125 -88.71875 Z M 4.578125 -88.71875 "/></g></g></g><g fill="#010101" fill-opacity="1"><g transform="translate(126.28624, 181.991971)"><g><path d="M 17.40625 -14.75 C 16.75 -13.25 15.597656 -11.566406 13.953125 -9.703125 C 12.304688 -7.847656 10.398438 -6.628906 8.234375 -6.046875 C 6.078125 -5.472656 3.96875 -6.144531 1.90625 -8.0625 C 1.101562 -8.90625 0.5 -9.890625 0.09375 -11.015625 C -0.300781 -12.140625 -0.472656 -13.253906 -0.421875 -14.359375 C -0.441406 -14.660156 -0.457031 -15.046875 -0.46875 -15.515625 C -0.519531 -16.691406 -0.523438 -18.054688 -0.484375 -19.609375 C -0.441406 -21.160156 -0.265625 -22.566406 0.046875 -23.828125 C 0.359375 -25.085938 0.890625 -25.863281 1.640625 -26.15625 C 3.804688 -26.789062 5.023438 -26.070312 5.296875 -24 C 5.316406 -23.332031 5.320312 -22.664062 5.3125 -22 C 5.269531 -21.632812 5.253906 -21.304688 5.265625 -21.015625 C 5.265625 -20.046875 5.257812 -19.070312 5.25 -18.09375 C 5.28125 -17.332031 5.273438 -16.570312 5.234375 -15.8125 C 5.316406 -12.457031 6.144531 -10.492188 7.71875 -9.921875 C 9.289062 -9.347656 11.03125 -10.09375 12.9375 -12.15625 C 14.84375 -14.226562 16.078125 -15.929688 16.640625 -17.265625 C 17.203125 -18.609375 17.632812 -18.898438 17.9375 -18.140625 C 18.25 -17.390625 18.070312 -16.257812 17.40625 -14.75 Z M 4.46875 -33.40625 C 4.1875 -33.132812 3.828125 -32.953125 3.390625 -32.859375 C 2.960938 -32.773438 2.585938 -32.796875 2.265625 -32.921875 C 2.003906 -33.117188 1.832031 -33.382812 1.75 -33.71875 C 1.664062 -34.0625 1.617188 -34.460938 1.609375 -34.921875 C 1.597656 -35.015625 1.613281 -35.109375 1.65625 -35.203125 C 1.6875 -35.617188 1.773438 -36.035156 1.921875 -36.453125 C 2.335938 -37.578125 3.273438 -38.125 4.734375 -38.09375 C 5.242188 -38.039062 5.648438 -37.847656 5.953125 -37.515625 C 6.253906 -37.179688 6.335938 -36.773438 6.203125 -36.296875 C 5.898438 -35.160156 5.320312 -34.195312 4.46875 -33.40625 Z M 4.46875 -33.40625 "/></g></g></g><g fill="#010101" fill-opacity="1"><g transform="translate(143.286978, 181.318097)"><g><path d="M 28.09375 -14.453125 C 29.757812 -17.335938 30.742188 -19.171875 31.046875 -19.953125 C 31.359375 -20.734375 31.628906 -20.707031 31.859375 -19.875 C 32.085938 -19.050781 31.59375 -17.15625 30.375 -14.1875 C 29.15625 -11.21875 27.582031 -8.898438 25.65625 -7.234375 C 23.726562 -5.578125 21.894531 -4.921875 20.15625 -5.265625 C 18.425781 -5.617188 17.148438 -6.765625 16.328125 -8.703125 C 15.515625 -10.640625 15.203125 -13.125 15.390625 -16.15625 C 15.378906 -16.195312 15.394531 -16.320312 15.4375 -16.53125 C 15.457031 -17.039062 15.507812 -17.789062 15.59375 -18.78125 C 15.6875 -19.78125 15.738281 -20.8125 15.75 -21.875 C 15.769531 -22.945312 15.703125 -23.828125 15.546875 -24.515625 C 15.398438 -25.203125 15.078125 -25.429688 14.578125 -25.203125 C 13.367188 -24.484375 12.21875 -23.125 11.125 -21.125 C 10.039062 -19.132812 9.066406 -17.050781 8.203125 -14.875 C 7.347656 -12.695312 6.753906 -10.945312 6.421875 -9.625 C 6.273438 -9.207031 6.144531 -8.765625 6.03125 -8.296875 C 5.84375 -7.679688 5.628906 -7.066406 5.390625 -6.453125 C 4.796875 -4.703125 3.660156 -3.988281 1.984375 -4.3125 C 1.046875 -4.488281 0.476562 -5.03125 0.28125 -5.9375 C 0.207031 -6.65625 0.160156 -7.335938 0.140625 -7.984375 C 0.117188 -8.398438 0.078125 -8.78125 0.015625 -9.125 C -0.273438 -14.25 -0.601562 -19.40625 -0.96875 -24.59375 C -0.957031 -25.1875 -0.707031 -25.609375 -0.21875 -25.859375 C 0.257812 -26.117188 0.832031 -26.257812 1.5 -26.28125 C 2.007812 -26.300781 2.492188 -26.179688 2.953125 -25.921875 C 3.410156 -25.660156 3.710938 -25.09375 3.859375 -24.21875 C 3.921875 -23.914062 3.957031 -23.613281 3.96875 -23.3125 C 4.019531 -23.164062 4.046875 -23.023438 4.046875 -22.890625 C 4.171875 -22.171875 4.242188 -21.554688 4.265625 -21.046875 C 4.296875 -20.285156 4.367188 -19.769531 4.484375 -19.5 C 4.597656 -19.226562 4.816406 -19.242188 5.140625 -19.546875 C 5.460938 -19.859375 5.984375 -20.597656 6.703125 -21.765625 C 7.941406 -23.847656 9.492188 -25.632812 11.359375 -27.125 C 13.097656 -28.457031 15.03125 -29.0625 17.15625 -28.9375 C 18.988281 -28.832031 20.253906 -27.925781 20.953125 -26.21875 C 21.234375 -25.351562 21.390625 -24.472656 21.421875 -23.578125 C 21.460938 -22.691406 21.441406 -21.796875 21.359375 -20.890625 C 21.359375 -19.960938 21.328125 -19.015625 21.265625 -18.046875 C 21.210938 -17.734375 21.171875 -17.425781 21.140625 -17.125 C 20.960938 -13.8125 21.148438 -11.609375 21.703125 -10.515625 C 22.265625 -9.421875 23.054688 -9.082031 24.078125 -9.5 C 25.097656 -9.925781 26.4375 -11.578125 28.09375 -14.453125 Z M 28.09375 -14.453125 "/></g></g></g><g fill="#010101" fill-opacity="1"><g transform="translate(173.756737, 180.11034)"><g><path d="M 33.484375 -18.015625 C 34.140625 -18.628906 34.597656 -18.929688 34.859375 -18.921875 C 35.117188 -18.910156 35.21875 -18.722656 35.15625 -18.359375 C 35.101562 -18.003906 34.9375 -17.597656 34.65625 -17.140625 C 33.9375 -15.984375 33.007812 -14.785156 31.875 -13.546875 C 30.75 -12.316406 29.941406 -11.46875 29.453125 -11 C 26.140625 -7.757812 23.113281 -5.957031 20.375 -5.59375 C 17.632812 -5.238281 15.21875 -5.71875 13.125 -7.03125 C 11.039062 -8.34375 9.34375 -9.875 8.03125 -11.625 C 6.726562 -13.375 5.859375 -14.75 5.421875 -15.75 C 5.265625 -15.445312 5.179688 -14.785156 5.171875 -13.765625 C 5.171875 -12.742188 5.195312 -11.539062 5.25 -10.15625 C 5.257812 -8.800781 5.257812 -7.460938 5.25 -6.140625 C 5.25 -4.828125 5.160156 -3.75 4.984375 -2.90625 C 4.742188 -1.28125 3.789062 -0.535156 2.125 -0.671875 C 0.9375 -0.765625 0.242188 -1.347656 0.046875 -2.421875 C -0.078125 -3.117188 -0.15625 -3.828125 -0.1875 -4.546875 C -0.238281 -6.066406 -0.296875 -7.566406 -0.359375 -9.046875 C -0.554688 -15.128906 -0.710938 -21.203125 -0.828125 -27.265625 C -0.941406 -30.191406 -0.988281 -34.832031 -0.96875 -41.1875 C -0.945312 -47.550781 -0.757812 -54.289062 -0.40625 -61.40625 C -0.0507812 -68.519531 0.554688 -74.660156 1.421875 -79.828125 C 1.753906 -81.867188 2.363281 -83.8125 3.25 -85.65625 C 4.144531 -87.507812 5.59375 -88.726562 7.59375 -89.3125 C 8.457031 -89.539062 9.316406 -89.414062 10.171875 -88.9375 C 11.023438 -88.46875 11.816406 -87.484375 12.546875 -85.984375 C 13.253906 -84.398438 13.675781 -82.738281 13.8125 -81 C 14.101562 -77.15625 13.832031 -72.269531 13 -66.34375 C 12.175781 -60.414062 11.097656 -54.242188 9.765625 -47.828125 C 8.441406 -41.421875 7.179688 -35.566406 5.984375 -30.265625 C 5.285156 -27.285156 4.691406 -24.722656 4.203125 -22.578125 C 4.785156 -23.703125 5.566406 -24.984375 6.546875 -26.421875 C 7.523438 -27.859375 8.484375 -29.015625 9.421875 -29.890625 C 11.628906 -31.804688 14.210938 -32.539062 17.171875 -32.09375 C 20.460938 -31.507812 21.535156 -29.691406 20.390625 -26.640625 C 19.128906 -23.953125 17.519531 -21.867188 15.5625 -20.390625 C 13.601562 -18.921875 11.703125 -17.769531 9.859375 -16.9375 C 11.941406 -14.257812 14.257812 -12.15625 16.8125 -10.625 C 18.632812 -9.675781 20.597656 -9.585938 22.703125 -10.359375 C 24.804688 -11.140625 26.820312 -12.289062 28.75 -13.8125 C 30.675781 -15.332031 32.253906 -16.734375 33.484375 -18.015625 Z M 5.953125 -77.71875 C 5.296875 -71.945312 4.796875 -64.691406 4.453125 -55.953125 C 4.117188 -47.210938 3.9375 -40.019531 3.90625 -34.375 C 4.675781 -36.707031 5.507812 -40.582031 6.40625 -46 C 7.3125 -51.414062 8.132812 -57.03125 8.875 -62.84375 C 9.625 -68.65625 10.117188 -73.320312 10.359375 -76.84375 C 10.628906 -80.71875 10.472656 -83.226562 9.890625 -84.375 C 9.316406 -85.519531 8.628906 -85.503906 7.828125 -84.328125 C 7.035156 -83.148438 6.410156 -80.945312 5.953125 -77.71875 Z M 5.78125 -19.453125 C 6 -19.335938 6.566406 -19.453125 7.484375 -19.796875 C 8.410156 -20.148438 9.429688 -20.625 10.546875 -21.21875 C 11.660156 -21.820312 12.5625 -22.519531 13.25 -23.3125 C 14.90625 -25.3125 15.632812 -26.660156 15.4375 -27.359375 C 15.238281 -28.066406 14.601562 -28.300781 13.53125 -28.0625 C 12.46875 -27.820312 11.441406 -27.242188 10.453125 -26.328125 C 9.359375 -25.171875 8.3125 -23.90625 7.3125 -22.53125 C 6.320312 -21.164062 5.8125 -20.140625 5.78125 -19.453125 Z M 5.78125 -19.453125 "/></g></g></g><g fill="#010101" fill-opacity="1"><g transform="translate(207.342726, 178.779062)"><g><path d="M 6.296875 -8.484375 C 8.179688 -8.554688 8.882812 -7.664062 8.40625 -5.8125 C 8.1875 -5.09375 7.925781 -4.414062 7.625 -3.78125 C 7.34375 -3.21875 6.925781 -2.832031 6.375 -2.625 C 5.832031 -2.425781 5.25 -2.445312 4.625 -2.6875 C 4.101562 -2.875 3.804688 -3.21875 3.734375 -3.71875 C 3.660156 -4.53125 3.65625 -5.363281 3.71875 -6.21875 C 3.8125 -7.75 4.671875 -8.503906 6.296875 -8.484375 Z M 6.296875 -8.484375 "/></g></g></g><g fill="#010101" fill-opacity="1"><g transform="translate(220.604004, 178.253413)"><g/></g></g><g fill="#010101" fill-opacity="1"><g transform="translate(238.193355, 177.556208)"><g><path d="M 130.6875 -103.625 C 134.164062 -101.039062 137.035156 -98.035156 139.296875 -94.609375 C 141.566406 -91.179688 143.144531 -87.300781 144.03125 -82.96875 C 144.488281 -80.738281 144.65625 -78.53125 144.53125 -76.34375 C 144.414062 -74.164062 144.125 -71.992188 143.65625 -69.828125 C 142.914062 -66.222656 141.78125 -62.789062 140.25 -59.53125 C 138.726562 -56.28125 136.914062 -53.164062 134.8125 -50.1875 C 132.007812 -46.300781 128.847656 -42.816406 125.328125 -39.734375 C 121.816406 -36.648438 118.050781 -33.828125 114.03125 -31.265625 C 105.5625 -25.835938 96.613281 -21.34375 87.1875 -17.78125 C 86.550781 -17.5 85.878906 -17.210938 85.171875 -16.921875 C 84.210938 -16.585938 83.535156 -16.296875 83.140625 -16.046875 C 82.742188 -15.804688 82.5 -15.453125 82.40625 -14.984375 C 82.320312 -14.515625 82.300781 -13.800781 82.34375 -12.84375 C 82.820312 -0.8125 83.273438 11.191406 83.703125 23.171875 C 83.765625 24.742188 83.828125 26.289062 83.890625 27.8125 C 83.890625 27.925781 83.890625 28.003906 83.890625 28.046875 C 83.929688 28.898438 83.953125 29.75 83.953125 30.59375 C 83.960938 31.445312 83.859375 32.285156 83.640625 33.109375 C 83.328125 34.503906 82.507812 35.191406 81.1875 35.171875 C 80.03125 35.171875 79.25 34.625 78.84375 33.53125 C 78.300781 31.726562 78.03125 29.851562 78.03125 27.90625 C 77.957031 26.082031 77.882812 24.257812 77.8125 22.4375 C 77.40625 12.15625 77 1.894531 76.59375 -8.34375 C 76.570312 -8.71875 76.554688 -9.101562 76.546875 -9.5 C 76.628906 -10.71875 76.453125 -12.035156 76.015625 -13.453125 C 75.296875 -13.347656 74.664062 -13.191406 74.125 -12.984375 C 73.195312 -12.703125 72.304688 -12.609375 71.453125 -12.703125 C 71.128906 -12.742188 70.835938 -12.820312 70.578125 -12.9375 C 70.316406 -13.050781 70.15625 -13.289062 70.09375 -13.65625 C 70.070312 -14.375 70.363281 -14.835938 70.96875 -15.046875 C 72.15625 -15.609375 73.378906 -16.097656 74.640625 -16.515625 C 75.742188 -16.953125 76.253906 -17.757812 76.171875 -18.9375 C 76.140625 -19.65625 76.109375 -20.394531 76.078125 -21.15625 C 76.066406 -21.550781 76.050781 -21.976562 76.03125 -22.4375 C 75.78125 -28.582031 75.535156 -34.695312 75.296875 -40.78125 C 74.796875 -54.40625 74.273438 -68.050781 73.734375 -81.71875 C 73.734375 -81.851562 73.726562 -82.023438 73.71875 -82.234375 C 73.675781 -83.253906 73.664062 -84.25 73.6875 -85.21875 C 73.769531 -87.007812 74.703125 -87.9375 76.484375 -88 C 78.191406 -88.019531 79.164062 -87.144531 79.40625 -85.375 C 79.476562 -84.5 79.507812 -83.632812 79.5 -82.78125 C 79.519531 -82.476562 79.535156 -82.175781 79.546875 -81.875 C 79.710938 -77.601562 79.878906 -73.359375 80.046875 -69.140625 C 80.671875 -54.367188 81.273438 -39.59375 81.859375 -24.8125 C 81.878906 -24.445312 81.894531 -24.066406 81.90625 -23.671875 C 81.863281 -22.441406 82.015625 -21.25 82.359375 -20.09375 C 82.671875 -19.84375 82.960938 -19.75 83.234375 -19.8125 C 83.515625 -19.882812 83.785156 -19.972656 84.046875 -20.078125 C 91.035156 -23.015625 97.722656 -26.4375 104.109375 -30.34375 C 110.503906 -34.25 116.445312 -38.804688 121.9375 -44.015625 C 129.03125 -50.753906 133.921875 -58.878906 136.609375 -68.390625 C 137.972656 -73.640625 138.222656 -78.472656 137.359375 -82.890625 C 136.503906 -87.316406 134.773438 -91.242188 132.171875 -94.671875 C 129.566406 -98.109375 126.34375 -100.988281 122.5 -103.3125 C 115.800781 -107.332031 107.953125 -109.671875 98.953125 -110.328125 C 89.960938 -110.992188 80.582031 -110.289062 70.8125 -108.21875 C 61.050781 -106.15625 51.671875 -103.054688 42.671875 -98.921875 C 33.679688 -94.796875 25.851562 -89.960938 19.1875 -84.421875 C 12.519531 -78.878906 7.765625 -72.976562 4.921875 -66.71875 C 4.253906 -65.457031 3.796875 -64.15625 3.546875 -62.8125 C 3.296875 -61.476562 3.375 -60.085938 3.78125 -58.640625 C 4.019531 -57.828125 3.925781 -57.207031 3.5 -56.78125 C 3.082031 -56.363281 2.46875 -56.195312 1.65625 -56.28125 C 0.03125 -56.46875 -1.125 -57.273438 -1.8125 -58.703125 C -2.375 -59.953125 -2.515625 -61.257812 -2.234375 -62.625 C -1.785156 -65.28125 -0.84375 -67.726562 0.59375 -69.96875 C 5.226562 -77.320312 11.8125 -83.953125 20.34375 -89.859375 C 28.882812 -95.773438 38.414062 -100.722656 48.9375 -104.703125 C 59.457031 -108.679688 70.03125 -111.394531 80.65625 -112.84375 C 91.28125 -114.300781 100.972656 -114.238281 109.734375 -112.65625 C 113.578125 -111.957031 117.242188 -110.875 120.734375 -109.40625 C 124.222656 -107.9375 127.539062 -106.007812 130.6875 -103.625 Z M 130.6875 -103.625 "/></g></g></g><g fill="#010101" fill-opacity="1"><g transform="translate(366.928079, 172.453434)"><g><path d="M 57.078125 -22.765625 C 57.628906 -22.878906 58.195312 -22.929688 58.78125 -22.921875 C 59.375 -22.921875 59.957031 -22.785156 60.53125 -22.515625 C 60.625 -22.421875 60.710938 -22.257812 60.796875 -22.03125 C 60.890625 -21.800781 60.96875 -21.585938 61.03125 -21.390625 C 61.03125 -21.296875 60.976562 -21.179688 60.875 -21.046875 C 60.78125 -20.921875 60.691406 -20.800781 60.609375 -20.6875 C 60.347656 -20.53125 60.097656 -20.414062 59.859375 -20.34375 C 56.578125 -19.5625 53.5625 -18.34375 50.8125 -16.6875 C 48.0625 -15.03125 45.453125 -13.132812 42.984375 -11 C 39.628906 -8.164062 36.554688 -5.078125 33.765625 -1.734375 C 30.972656 1.597656 28.351562 5.070312 25.90625 8.6875 C 21.25 15.476562 16.945312 22.507812 13 29.78125 C 12.09375 31.46875 11.171875 33.117188 10.234375 34.734375 C 10.097656 35.023438 9.929688 35.304688 9.734375 35.578125 C 9.304688 36.359375 8.828125 37.09375 8.296875 37.78125 C 6.878906 39.40625 5.160156 39.859375 3.140625 39.140625 C 2.316406 38.753906 1.828125 38.222656 1.671875 37.546875 C 1.523438 36.867188 1.519531 36.144531 1.65625 35.375 C 2.363281 25.3125 2.625 15.28125 2.4375 5.28125 C 2.300781 -8.144531 2.03125 -21.566406 1.625 -34.984375 C 1.21875 -48.398438 0.472656 -61.789062 -0.609375 -75.15625 C -1.273438 -83.1875 -2.050781 -91.226562 -2.9375 -99.28125 C -3.332031 -102.96875 -3.726562 -106.660156 -4.125 -110.359375 C -4.132812 -110.660156 -4.179688 -110.929688 -4.265625 -111.171875 C -4.347656 -111.929688 -4.40625 -112.695312 -4.4375 -113.46875 C -4.351562 -114.65625 -3.71875 -115.335938 -2.53125 -115.515625 C -1.8125 -115.660156 -1.164062 -115.613281 -0.59375 -115.375 C -0.0195312 -115.144531 0.320312 -114.785156 0.4375 -114.296875 C 0.96875 -112.410156 1.375 -110.515625 1.65625 -108.609375 C 1.675781 -108.054688 1.722656 -107.492188 1.796875 -106.921875 C 2.972656 -96.484375 4.046875 -86.050781 5.015625 -75.625 C 5.984375 -65.28125 6.660156 -54.914062 7.046875 -44.53125 C 7.429688 -34.144531 7.707031 -23.738281 7.875 -13.3125 C 8.039062 -4.789062 8.144531 3.742188 8.1875 12.296875 C 8.226562 14.285156 8.203125 16.265625 8.109375 18.234375 C 8.066406 19.367188 8.046875 20.492188 8.046875 21.609375 C 8.035156 22.578125 8.015625 23.566406 7.984375 24.578125 C 8.003906 25.046875 8.003906 25.507812 7.984375 25.96875 C 8.140625 26.019531 8.265625 26.0625 8.359375 26.09375 C 8.515625 26.09375 8.664062 26.109375 8.8125 26.140625 C 9.050781 25.742188 9.289062 25.351562 9.53125 24.96875 C 10.15625 23.882812 10.800781 22.796875 11.46875 21.703125 C 15.875 13.984375 20.800781 6.648438 26.25 -0.296875 C 28.988281 -3.835938 31.941406 -7.128906 35.109375 -10.171875 C 38.273438 -13.222656 41.765625 -15.945312 45.578125 -18.34375 C 47.378906 -19.425781 49.21875 -20.359375 51.09375 -21.140625 C 52.96875 -21.929688 54.960938 -22.472656 57.078125 -22.765625 Z M 57.078125 -22.765625 "/></g></g></g><g fill="#010101" fill-opacity="1"><g transform="translate(422.98553, 170.231434)"><g><path d="M 38.453125 -19.34375 C 37.898438 -17.382812 36.734375 -15.113281 34.953125 -12.53125 C 33.171875 -9.957031 30.890625 -8.253906 28.109375 -7.421875 C 25.328125 -6.597656 22.890625 -6.601562 20.796875 -7.4375 C 18.703125 -8.269531 17.472656 -10.664062 17.109375 -14.625 C 14.953125 -10.007812 12.84375 -7.023438 10.78125 -5.671875 C 8.726562 -4.316406 6.550781 -3.742188 4.25 -3.953125 C 1.644531 -4.265625 -0.140625 -5.195312 -1.109375 -6.75 C -2.085938 -8.3125 -2.46875 -10.140625 -2.25 -12.234375 C -2.03125 -14.335938 -1.472656 -16.363281 -0.578125 -18.3125 C 0.117188 -19.78125 1.117188 -21.15625 2.421875 -22.4375 C 3.734375 -23.71875 5.109375 -24.726562 6.546875 -25.46875 C 8.335938 -26.46875 10.15625 -26.976562 12 -27 C 13.851562 -27.03125 15.847656 -26.5 17.984375 -25.40625 C 18.046875 -25.363281 18.070312 -25.410156 18.0625 -25.546875 C 18.050781 -25.753906 18.09375 -26.015625 18.1875 -26.328125 C 18.28125 -26.648438 18.445312 -26.910156 18.6875 -27.109375 C 19.363281 -27.640625 20.175781 -27.921875 21.125 -27.953125 C 22.070312 -27.992188 22.816406 -27.550781 23.359375 -26.625 C 23.503906 -25.40625 23.441406 -23.84375 23.171875 -21.9375 C 22.578125 -17.75 22.691406 -14.757812 23.515625 -12.96875 C 24.347656 -11.175781 25.722656 -10.378906 27.640625 -10.578125 C 29.554688 -10.785156 31.976562 -12.789062 34.90625 -16.59375 C 37.832031 -20.394531 39.015625 -21.3125 38.453125 -19.34375 Z M 4.78125 -8.25 C 5.875 -7.519531 7.082031 -7.664062 8.40625 -8.6875 C 9.738281 -9.71875 11.003906 -11.144531 12.203125 -12.96875 C 13.410156 -14.789062 14.410156 -16.609375 15.203125 -18.421875 C 15.992188 -20.242188 16.421875 -21.582031 16.484375 -22.4375 C 13.847656 -23.71875 11.625 -23.863281 9.8125 -22.875 C 8.007812 -21.894531 6.597656 -20.347656 5.578125 -18.234375 C 4.554688 -16.128906 3.976562 -14.097656 3.84375 -12.140625 C 3.71875 -10.179688 4.03125 -8.882812 4.78125 -8.25 Z M 4.78125 -8.25 "/></g></g></g><g fill="#010101" fill-opacity="1"><g transform="translate(459.687709, 168.776637)"><g><path d="M 28.09375 -14.453125 C 29.757812 -17.335938 30.742188 -19.171875 31.046875 -19.953125 C 31.359375 -20.734375 31.628906 -20.707031 31.859375 -19.875 C 32.085938 -19.050781 31.59375 -17.15625 30.375 -14.1875 C 29.15625 -11.21875 27.582031 -8.898438 25.65625 -7.234375 C 23.726562 -5.578125 21.894531 -4.921875 20.15625 -5.265625 C 18.425781 -5.617188 17.148438 -6.765625 16.328125 -8.703125 C 15.515625 -10.640625 15.203125 -13.125 15.390625 -16.15625 C 15.378906 -16.195312 15.394531 -16.320312 15.4375 -16.53125 C 15.457031 -17.039062 15.507812 -17.789062 15.59375 -18.78125 C 15.6875 -19.78125 15.738281 -20.8125 15.75 -21.875 C 15.769531 -22.945312 15.703125 -23.828125 15.546875 -24.515625 C 15.398438 -25.203125 15.078125 -25.429688 14.578125 -25.203125 C 13.367188 -24.484375 12.21875 -23.125 11.125 -21.125 C 10.039062 -19.132812 9.066406 -17.050781 8.203125 -14.875 C 7.347656 -12.695312 6.753906 -10.945312 6.421875 -9.625 C 6.273438 -9.207031 6.144531 -8.765625 6.03125 -8.296875 C 5.84375 -7.679688 5.628906 -7.066406 5.390625 -6.453125 C 4.796875 -4.703125 3.660156 -3.988281 1.984375 -4.3125 C 1.046875 -4.488281 0.476562 -5.03125 0.28125 -5.9375 C 0.207031 -6.65625 0.160156 -7.335938 0.140625 -7.984375 C 0.117188 -8.398438 0.078125 -8.78125 0.015625 -9.125 C -0.273438 -14.25 -0.601562 -19.40625 -0.96875 -24.59375 C -0.957031 -25.1875 -0.707031 -25.609375 -0.21875 -25.859375 C 0.257812 -26.117188 0.832031 -26.257812 1.5 -26.28125 C 2.007812 -26.300781 2.492188 -26.179688 2.953125 -25.921875 C 3.410156 -25.660156 3.710938 -25.09375 3.859375 -24.21875 C 3.921875 -23.914062 3.957031 -23.613281 3.96875 -23.3125 C 4.019531 -23.164062 4.046875 -23.023438 4.046875 -22.890625 C 4.171875 -22.171875 4.242188 -21.554688 4.265625 -21.046875 C 4.296875 -20.285156 4.367188 -19.769531 4.484375 -19.5 C 4.597656 -19.226562 4.816406 -19.242188 5.140625 -19.546875 C 5.460938 -19.859375 5.984375 -20.597656 6.703125 -21.765625 C 7.941406 -23.847656 9.492188 -25.632812 11.359375 -27.125 C 13.097656 -28.457031 15.03125 -29.0625 17.15625 -28.9375 C 18.988281 -28.832031 20.253906 -27.925781 20.953125 -26.21875 C 21.234375 -25.351562 21.390625 -24.472656 21.421875 -23.578125 C 21.460938 -22.691406 21.441406 -21.796875 21.359375 -20.890625 C 21.359375 -19.960938 21.328125 -19.015625 21.265625 -18.046875 C 21.210938 -17.734375 21.171875 -17.425781 21.140625 -17.125 C 20.960938 -13.8125 21.148438 -11.609375 21.703125 -10.515625 C 22.265625 -9.421875 23.054688 -9.082031 24.078125 -9.5 C 25.097656 -9.925781 26.4375 -11.578125 28.09375 -14.453125 Z M 28.09375 -14.453125 "/></g></g></g><g fill="#010101" fill-opacity="1"><g transform="translate(490.157468, 167.568879)"><g><path d="M 6.296875 -8.484375 C 8.179688 -8.554688 8.882812 -7.664062 8.40625 -5.8125 C 8.1875 -5.09375 7.925781 -4.414062 7.625 -3.78125 C 7.34375 -3.21875 6.925781 -2.832031 6.375 -2.625 C 5.832031 -2.425781 5.25 -2.445312 4.625 -2.6875 C 4.101562 -2.875 3.804688 -3.21875 3.734375 -3.71875 C 3.660156 -4.53125 3.65625 -5.363281 3.71875 -6.21875 C 3.8125 -7.75 4.671875 -8.503906 6.296875 -8.484375 Z M 6.296875 -8.484375 "/></g></g></g><g fill="#010101" fill-opacity="1"><g transform="translate(503.418745, 167.04323)"><g/></g></g><g fill="#010101" fill-opacity="1"><g transform="translate(521.008096, 166.346025)"><g><path d="M 105.203125 -24.90625 C 105.710938 -24.976562 105.960938 -24.597656 105.953125 -23.765625 C 105.941406 -22.941406 105.632812 -22.5 105.03125 -22.4375 C 104.457031 -22.320312 103.941406 -22.019531 103.484375 -21.53125 C 103.035156 -21.050781 102.820312 -20.535156 102.84375 -19.984375 C 103.164062 -15.085938 102.71875 -10.332031 101.5 -5.71875 C 100.289062 -1.113281 98.601562 3.34375 96.4375 7.65625 C 92.15625 16.613281 86.847656 24.640625 80.515625 31.734375 C 74.191406 38.828125 66.703125 44.890625 58.046875 49.921875 C 53.285156 52.660156 48.347656 54.765625 43.234375 56.234375 C 38.128906 57.710938 32.800781 58.398438 27.25 58.296875 C 22.613281 58.210938 18.222656 57.148438 14.078125 55.109375 C 9.140625 52.429688 5.804688 48.828125 4.078125 44.296875 C 2.347656 39.765625 2.441406 34.867188 4.359375 29.609375 C 6.398438 24.492188 9.734375 19.671875 14.359375 15.140625 C 18.992188 10.617188 24.425781 6.410156 30.65625 2.515625 C 36.882812 -1.378906 43.394531 -4.859375 50.1875 -7.921875 C 56.988281 -10.984375 63.554688 -13.628906 69.890625 -15.859375 C 76.234375 -18.085938 81.882812 -19.804688 86.84375 -21.015625 C 88.175781 -21.390625 89.5 -21.734375 90.8125 -22.046875 C 92.226562 -22.359375 93.613281 -22.691406 94.96875 -23.046875 C 96.132812 -23.296875 96.523438 -23.945312 96.140625 -25 C 94.773438 -29.820312 92.265625 -33.914062 88.609375 -37.28125 C 85.984375 -39.675781 83.148438 -41.675781 80.109375 -43.28125 C 77.078125 -44.882812 73.882812 -46.207031 70.53125 -47.25 C 60.488281 -50.363281 50.175781 -51.925781 39.59375 -51.9375 C 38.875 -51.988281 38.132812 -52 37.375 -51.96875 C 36.519531 -51.863281 36.085938 -51.382812 36.078125 -50.53125 C 36.003906 -49.519531 35.984375 -48.503906 36.015625 -47.484375 C 36.296875 -39.515625 36.59375 -31.539062 36.90625 -23.5625 C 36.988281 -20.050781 37.101562 -16.515625 37.25 -12.953125 C 37.257812 -12.703125 37.269531 -12.484375 37.28125 -12.296875 C 37.300781 -11.785156 37.316406 -11.28125 37.328125 -10.78125 C 37.171875 -8.488281 36.019531 -7.644531 33.875 -8.25 C 33.03125 -8.46875 32.5625 -8.992188 32.46875 -9.828125 C 32.34375 -10.960938 32.28125 -12.125 32.28125 -13.3125 C 31.945312 -20.519531 31.640625 -27.695312 31.359375 -34.84375 C 31.210938 -38.46875 31.070312 -42.0625 30.9375 -45.625 C 30.914062 -45.925781 30.898438 -46.222656 30.890625 -46.515625 C 30.859375 -47.367188 30.800781 -48.257812 30.71875 -49.1875 C 30.675781 -50.144531 30.503906 -50.769531 30.203125 -51.0625 C 29.910156 -51.351562 29.304688 -51.5 28.390625 -51.5 C 27.972656 -51.488281 27.597656 -51.472656 27.265625 -51.453125 C 26.296875 -51.492188 25.347656 -51.539062 24.421875 -51.59375 C 23.609375 -51.65625 23.039062 -52.0625 22.71875 -52.8125 C 22.414062 -53.769531 22.628906 -54.578125 23.359375 -55.234375 C 24.347656 -56.085938 25.390625 -56.914062 26.484375 -57.71875 C 26.921875 -58.039062 27.316406 -58.3125 27.671875 -58.53125 C 28.492188 -59.113281 29.09375 -59.59375 29.46875 -59.96875 C 29.84375 -60.34375 30.054688 -60.753906 30.109375 -61.203125 C 30.171875 -61.660156 30.1875 -62.375 30.15625 -63.34375 C 30.0625 -63.882812 30 -64.539062 29.96875 -65.3125 C 29.8125 -71.0625 29.617188 -76.835938 29.390625 -82.640625 C 29.265625 -85.828125 29.132812 -89.039062 29 -92.28125 C 29 -92.332031 29 -92.414062 29 -92.53125 C 28.945312 -93.632812 28.945312 -94.71875 29 -95.78125 C 29.039062 -97.164062 29.820312 -97.867188 31.34375 -97.890625 C 32.820312 -97.992188 33.691406 -97.394531 33.953125 -96.09375 C 34.097656 -94.75 34.195312 -93.394531 34.25 -92.03125 C 34.394531 -88.582031 34.535156 -85.132812 34.671875 -81.6875 C 34.835938 -77.46875 35.039062 -73.28125 35.28125 -69.125 C 35.21875 -68.820312 35.191406 -68.546875 35.203125 -68.296875 C 35.148438 -67.117188 35.390625 -65.773438 35.921875 -64.265625 C 39.179688 -66.335938 43.125 -68.945312 47.75 -72.09375 C 52.382812 -75.25 57.097656 -78.628906 61.890625 -82.234375 C 66.679688 -85.835938 70.910156 -89.414062 74.578125 -92.96875 C 78.253906 -96.519531 80.773438 -99.769531 82.140625 -102.71875 C 83.585938 -106.082031 82.765625 -108.769531 79.671875 -110.78125 C 75.878906 -113.113281 71.046875 -114.28125 65.171875 -114.28125 C 59.296875 -114.28125 53.132812 -113.414062 46.6875 -111.6875 C 40.238281 -109.957031 34.273438 -107.660156 28.796875 -104.796875 C 23.316406 -101.941406 19.023438 -98.800781 15.921875 -95.375 C 14.941406 -94.25 14.070312 -92.925781 13.3125 -91.40625 C 12.5625 -89.894531 11.976562 -88.390625 11.5625 -86.890625 C 11.257812 -85.953125 10.601562 -85.382812 9.59375 -85.1875 C 8.582031 -85 7.703125 -85.25 6.953125 -85.9375 C 6.597656 -86.4375 6.472656 -86.984375 6.578125 -87.578125 C 6.972656 -89.328125 7.707031 -90.941406 8.78125 -92.421875 C 12.195312 -97.179688 17.148438 -101.414062 23.640625 -105.125 C 30.128906 -108.84375 37.210938 -111.742188 44.890625 -113.828125 C 52.566406 -115.910156 59.890625 -116.941406 66.859375 -116.921875 C 73.835938 -116.898438 79.519531 -115.539062 83.90625 -112.84375 C 88.375 -110.039062 89.457031 -106.242188 87.15625 -101.453125 C 85.976562 -99.066406 84.207031 -96.617188 81.84375 -94.109375 C 79.476562 -91.609375 76.953125 -89.222656 74.265625 -86.953125 C 71.578125 -84.679688 69.191406 -82.71875 67.109375 -81.0625 C 63.328125 -78.070312 59.429688 -75.1875 55.421875 -72.40625 C 51.410156 -69.625 47.375 -66.90625 43.3125 -64.25 C 43.21875 -64.195312 43.113281 -64.117188 43 -64.015625 C 40.96875 -62.753906 38.988281 -61.453125 37.0625 -60.109375 C 35.6875 -58.984375 35.3125 -57.546875 35.9375 -55.796875 C 35.988281 -55.640625 36.109375 -55.476562 36.296875 -55.3125 C 36.484375 -55.144531 36.671875 -55.066406 36.859375 -55.078125 C 37.703125 -54.941406 38.53125 -54.890625 39.34375 -54.921875 C 39.382812 -54.921875 39.453125 -54.925781 39.546875 -54.9375 C 50.546875 -55.0625 61.316406 -53.609375 71.859375 -50.578125 C 77.703125 -48.972656 83.179688 -46.515625 88.296875 -43.203125 C 91.398438 -41.191406 94.050781 -38.851562 96.25 -36.1875 C 98.457031 -33.53125 100.144531 -30.445312 101.3125 -26.9375 C 101.675781 -25.789062 102.078125 -25.097656 102.515625 -24.859375 C 102.953125 -24.628906 103.847656 -24.644531 105.203125 -24.90625 Z M 97.34375 -15.890625 C 97.46875 -17.972656 97.265625 -19.234375 96.734375 -19.671875 C 96.210938 -20.117188 94.910156 -20.046875 92.828125 -19.453125 C 87.910156 -18.242188 82.363281 -16.597656 76.1875 -14.515625 C 70.019531 -12.441406 63.6875 -9.945312 57.1875 -7.03125 C 50.695312 -4.125 44.472656 -0.835938 38.515625 2.828125 C 32.554688 6.503906 27.332031 10.523438 22.84375 14.890625 C 18.351562 19.265625 15.039062 24 12.90625 29.09375 C 11.375 32.976562 10.75 36.609375 11.03125 39.984375 C 11.320312 43.359375 12.304688 46.238281 13.984375 48.625 C 15.660156 51.019531 17.8125 52.679688 20.4375 53.609375 C 23.789062 54.742188 27.25 55.300781 30.8125 55.28125 C 31.0625 55.269531 31.289062 55.234375 31.5 55.171875 C 32 55.085938 32.503906 55.035156 33.015625 55.015625 C 39.679688 54.097656 45.929688 52.019531 51.765625 48.78125 C 62.398438 42.988281 71.285156 35.695312 78.421875 26.90625 C 85.554688 18.125 91.078125 8.039062 94.984375 -3.34375 C 96.359375 -7.425781 97.144531 -11.609375 97.34375 -15.890625 Z M 97.34375 -15.890625 "/></g></g></g><g fill="#010101" fill-opacity="1"><g transform="translate(631.737986, 161.956925)"><g><path d="M 35.109375 -18.84375 C 35.617188 -18.8125 35.554688 -18.109375 34.921875 -16.734375 C 34.296875 -15.359375 33.238281 -13.765625 31.75 -11.953125 C 30.269531 -10.140625 28.585938 -8.554688 26.703125 -7.203125 C 24.828125 -5.859375 22.929688 -5.207031 21.015625 -5.25 C 19.578125 -5.320312 18.503906 -5.703125 17.796875 -6.390625 C 17.085938 -7.078125 16.585938 -7.847656 16.296875 -8.703125 C 16.003906 -9.566406 15.8125 -10.316406 15.71875 -10.953125 C 15.65625 -11.410156 15.582031 -11.753906 15.5 -11.984375 C 15.425781 -12.210938 15.289062 -12.21875 15.09375 -12 C 13.75 -8.5625 11.253906 -6.769531 7.609375 -6.625 C 5.578125 -6.539062 3.890625 -7.375 2.546875 -9.125 C 1.203125 -10.875 0.3125 -13.097656 -0.125 -15.796875 C -0.5625 -18.492188 -0.410156 -21.253906 0.328125 -24.078125 C 0.503906 -25.015625 1.046875 -25.675781 1.953125 -26.0625 C 2.585938 -26.34375 3.257812 -26.34375 3.96875 -26.0625 C 4.675781 -25.789062 5.0625 -25.351562 5.125 -24.75 C 5.144531 -24.125 5.117188 -23.515625 5.046875 -22.921875 C 4.953125 -22.453125 4.894531 -22.003906 4.875 -21.578125 C 4.84375 -19.921875 4.941406 -18.097656 5.171875 -16.109375 C 5.398438 -14.128906 5.992188 -12.457031 6.953125 -11.09375 C 7.878906 -10 8.851562 -9.890625 9.875 -10.765625 C 10.90625 -11.648438 11.785156 -13 12.515625 -14.8125 C 13.078125 -16.25 13.507812 -17.671875 13.8125 -19.078125 C 14.125 -20.492188 14.3125 -21.585938 14.375 -22.359375 C 14.457031 -22.679688 14.492188 -22.890625 14.484375 -22.984375 C 14.617188 -23.585938 14.757812 -24.179688 14.90625 -24.765625 C 15.125 -25.628906 15.34375 -26.46875 15.5625 -27.28125 C 15.945312 -28.875 17.023438 -29.582031 18.796875 -29.40625 C 19.898438 -29.351562 20.515625 -28.84375 20.640625 -27.875 C 20.785156 -26.550781 20.863281 -25.234375 20.875 -23.921875 C 20.882812 -22.535156 20.867188 -21.1875 20.828125 -19.875 C 20.785156 -17.9375 20.773438 -16.023438 20.796875 -14.140625 C 20.867188 -11.398438 21.484375 -9.828125 22.640625 -9.421875 C 23.796875 -9.015625 25.175781 -9.359375 26.78125 -10.453125 C 28.382812 -11.554688 29.914062 -13.03125 31.375 -14.875 C 31.507812 -15.03125 31.675781 -15.242188 31.875 -15.515625 C 32.15625 -15.910156 32.503906 -16.359375 32.921875 -16.859375 C 33.347656 -17.367188 33.753906 -17.8125 34.140625 -18.1875 C 34.535156 -18.5625 34.859375 -18.78125 35.109375 -18.84375 Z M 35.109375 -18.84375 "/></g></g></g><g fill="#010101" fill-opacity="1"><g transform="translate(665.497102, 160.618785)"><g><path d="M 17.40625 -14.75 C 16.75 -13.25 15.597656 -11.566406 13.953125 -9.703125 C 12.304688 -7.847656 10.398438 -6.628906 8.234375 -6.046875 C 6.078125 -5.472656 3.96875 -6.144531 1.90625 -8.0625 C 1.101562 -8.90625 0.5 -9.890625 0.09375 -11.015625 C -0.300781 -12.140625 -0.472656 -13.253906 -0.421875 -14.359375 C -0.441406 -14.660156 -0.457031 -15.046875 -0.46875 -15.515625 C -0.519531 -16.691406 -0.523438 -18.054688 -0.484375 -19.609375 C -0.441406 -21.160156 -0.265625 -22.566406 0.046875 -23.828125 C 0.359375 -25.085938 0.890625 -25.863281 1.640625 -26.15625 C 3.804688 -26.789062 5.023438 -26.070312 5.296875 -24 C 5.316406 -23.332031 5.320312 -22.664062 5.3125 -22 C 5.269531 -21.632812 5.253906 -21.304688 5.265625 -21.015625 C 5.265625 -20.046875 5.257812 -19.070312 5.25 -18.09375 C 5.28125 -17.332031 5.273438 -16.570312 5.234375 -15.8125 C 5.316406 -12.457031 6.144531 -10.492188 7.71875 -9.921875 C 9.289062 -9.347656 11.03125 -10.09375 12.9375 -12.15625 C 14.84375 -14.226562 16.078125 -15.929688 16.640625 -17.265625 C 17.203125 -18.609375 17.632812 -18.898438 17.9375 -18.140625 C 18.25 -17.390625 18.070312 -16.257812 17.40625 -14.75 Z M 4.46875 -33.40625 C 4.1875 -33.132812 3.828125 -32.953125 3.390625 -32.859375 C 2.960938 -32.773438 2.585938 -32.796875 2.265625 -32.921875 C 2.003906 -33.117188 1.832031 -33.382812 1.75 -33.71875 C 1.664062 -34.0625 1.617188 -34.460938 1.609375 -34.921875 C 1.597656 -35.015625 1.613281 -35.109375 1.65625 -35.203125 C 1.6875 -35.617188 1.773438 -36.035156 1.921875 -36.453125 C 2.335938 -37.578125 3.273438 -38.125 4.734375 -38.09375 C 5.242188 -38.039062 5.648438 -37.847656 5.953125 -37.515625 C 6.253906 -37.179688 6.335938 -36.773438 6.203125 -36.296875 C 5.898438 -35.160156 5.320312 -34.195312 4.46875 -33.40625 Z M 4.46875 -33.40625 "/></g></g></g><g fill="#010101" fill-opacity="1"><g transform="translate(682.49784, 159.944911)"><g><path d="M 24.359375 -17.109375 C 24.710938 -18.078125 25.117188 -18.566406 25.578125 -18.578125 C 26.046875 -18.597656 26.21875 -18.132812 26.09375 -17.1875 C 25.425781 -14.800781 24.601562 -12.507812 23.625 -10.3125 C 22.644531 -8.125 21.28125 -6.132812 19.53125 -4.34375 C 18.195312 -2.90625 16.582031 -1.953125 14.6875 -1.484375 C 12.082031 -1.003906 9.914062 -1.226562 8.1875 -2.15625 C 6.457031 -3.082031 5.054688 -4.457031 3.984375 -6.28125 C 2.910156 -8.101562 2.085938 -10.101562 1.515625 -12.28125 C 0.953125 -14.46875 0.5625 -16.597656 0.34375 -18.671875 C -0.1875 -22.578125 -0.664062 -27.722656 -1.09375 -34.109375 C -1.519531 -40.503906 -1.722656 -47.269531 -1.703125 -54.40625 C -1.679688 -61.550781 -1.242188 -68.191406 -0.390625 -74.328125 C 0.460938 -80.472656 1.882812 -85.265625 3.875 -88.703125 C 5.039062 -90.367188 6.429688 -91.25 8.046875 -91.34375 C 9.671875 -91.4375 11.148438 -90.75 12.484375 -89.28125 C 13.390625 -88.132812 14.085938 -86.910156 14.578125 -85.609375 C 15.066406 -84.316406 15.40625 -82.992188 15.59375 -81.640625 C 16.25 -76.960938 16.390625 -72.007812 16.015625 -66.78125 C 15.640625 -61.550781 14.941406 -55.957031 13.921875 -50 C 12.910156 -44.050781 11.628906 -38.789062 10.078125 -34.21875 C 8.535156 -29.644531 7.242188 -26.019531 6.203125 -23.34375 C 5.617188 -22.257812 5.445312 -20.644531 5.6875 -18.5 C 5.988281 -16.175781 6.53125 -13.757812 7.3125 -11.25 C 8.09375 -8.738281 9.125 -6.769531 10.40625 -5.34375 C 11.601562 -4.15625 12.910156 -3.820312 14.328125 -4.34375 C 15.742188 -4.863281 17.128906 -5.890625 18.484375 -7.421875 C 19.835938 -8.960938 21.023438 -10.625 22.046875 -12.40625 C 23.066406 -14.1875 23.835938 -15.753906 24.359375 -17.109375 Z M 4.5 -51.8125 C 4.425781 -50.28125 4.382812 -47.972656 4.375 -44.890625 C 4.363281 -41.804688 4.367188 -38.671875 4.390625 -35.484375 C 4.429688 -31.910156 4.4375 -29.132812 4.40625 -27.15625 C 5.4375 -29.726562 6.601562 -33.472656 7.90625 -38.390625 C 9.207031 -43.304688 10.347656 -49.078125 11.328125 -55.703125 C 12.304688 -62.328125 12.828125 -69.472656 12.890625 -77.140625 C 12.503906 -81.628906 11.847656 -84.648438 10.921875 -86.203125 C 9.992188 -87.765625 9.046875 -87.863281 8.078125 -86.5 C 7.117188 -85.144531 6.425781 -82.34375 6 -78.09375 C 5.34375 -71.0625 4.90625 -64.03125 4.6875 -57 C 4.613281 -55.25 4.550781 -53.519531 4.5 -51.8125 Z M 4.5 -51.8125 "/></g></g></g><g fill="#010101" fill-opacity="1"><g transform="translate(707.116048, 158.969097)"><g><path d="M 53.65625 -19.046875 C 53.851562 -19.453125 54.160156 -19.671875 54.578125 -19.703125 C 55.003906 -19.742188 55.382812 -19.492188 55.71875 -18.953125 C 55.832031 -18.816406 55.734375 -18.425781 55.421875 -17.78125 C 55.109375 -17.132812 54.691406 -16.398438 54.171875 -15.578125 C 53.648438 -14.765625 53.144531 -14.015625 52.65625 -13.328125 C 52.175781 -12.648438 51.835938 -12.207031 51.640625 -12 C 49.460938 -9.375 47.242188 -7.421875 44.984375 -6.140625 C 42.722656 -4.859375 40.222656 -4.503906 37.484375 -5.078125 C 34.753906 -5.648438 31.660156 -7.453125 28.203125 -10.484375 C 27.671875 -11.015625 27.140625 -11.546875 26.609375 -12.078125 C 26.460938 -12.234375 26.332031 -12.378906 26.21875 -12.515625 C 25.632812 -13.109375 25.015625 -13.164062 24.359375 -12.6875 C 23.691406 -12.144531 23.007812 -11.609375 22.3125 -11.078125 C 21.707031 -10.597656 21.085938 -10.148438 20.453125 -9.734375 C 18.367188 -8.171875 16.15625 -6.832031 13.8125 -5.71875 C 11.3125 -4.488281 8.664062 -3.941406 5.875 -4.078125 C 1.488281 -4.421875 -0.867188 -6.742188 -1.203125 -11.046875 C -1.367188 -14.085938 -0.828125 -16.84375 0.421875 -19.3125 C 1.679688 -21.78125 3.492188 -23.632812 5.859375 -24.875 C 8.222656 -26.125 10.988281 -26.457031 14.15625 -25.875 C 14.507812 -25.820312 14.976562 -25.738281 15.5625 -25.625 C 15.90625 -25.519531 16.332031 -25.429688 16.84375 -25.359375 C 16.519531 -26.066406 16.222656 -26.691406 15.953125 -27.234375 C 15.453125 -28.140625 15.007812 -28.96875 14.625 -29.71875 C 12.351562 -33.945312 10.453125 -38.804688 8.921875 -44.296875 C 7.398438 -49.796875 6.53125 -55.46875 6.3125 -61.3125 C 6.101562 -67.15625 6.859375 -72.632812 8.578125 -77.75 C 10.304688 -82.863281 13.347656 -87.128906 17.703125 -90.546875 C 20.460938 -92.578125 23.351562 -93.734375 26.375 -94.015625 C 29.394531 -94.296875 32.273438 -93.75 35.015625 -92.375 C 37.765625 -91.007812 40.039062 -88.890625 41.84375 -86.015625 C 44.1875 -82.023438 45.691406 -77.789062 46.359375 -73.3125 C 47.578125 -66.070312 47.703125 -59.273438 46.734375 -52.921875 C 45.765625 -46.578125 43.84375 -40.535156 40.96875 -34.796875 C 38.09375 -29.066406 34.367188 -23.46875 29.796875 -18 C 29.347656 -17.476562 29.117188 -17.0625 29.109375 -16.75 C 29.109375 -16.445312 29.347656 -16.03125 29.828125 -15.5 C 30.847656 -14.269531 31.953125 -13.078125 33.140625 -11.921875 C 34.335938 -10.765625 35.65625 -9.816406 37.09375 -9.078125 C 39.113281 -8.296875 41.238281 -8.363281 43.46875 -9.28125 C 45.707031 -10.207031 47.75 -11.582031 49.59375 -13.40625 C 51.445312 -15.226562 52.800781 -17.109375 53.65625 -19.046875 Z M 19.8125 -14.65625 C 20.394531 -15.1875 20.414062 -15.765625 19.875 -16.390625 C 19.5625 -16.742188 19.25 -17.113281 18.9375 -17.5 C 18.0625 -18.488281 17.070312 -19.492188 15.96875 -20.515625 C 14.863281 -21.546875 13.726562 -22.316406 12.5625 -22.828125 C 11.394531 -23.335938 10.234375 -23.335938 9.078125 -22.828125 C 7.492188 -22.003906 6.222656 -20.609375 5.265625 -18.640625 C 4.304688 -16.671875 3.769531 -14.664062 3.65625 -12.625 C 3.550781 -10.59375 4.003906 -9.0625 5.015625 -8.03125 C 6.035156 -7.007812 7.691406 -6.972656 9.984375 -7.921875 C 13.585938 -9.679688 16.863281 -11.925781 19.8125 -14.65625 Z M 27.203125 -22.46875 C 31.835938 -28.414062 35.253906 -34.21875 37.453125 -39.875 C 39.648438 -45.539062 41.023438 -52.113281 41.578125 -59.59375 C 41.753906 -61.425781 41.773438 -63.816406 41.640625 -66.765625 C 41.503906 -69.722656 41.113281 -72.800781 40.46875 -76 C 39.832031 -79.207031 38.800781 -82.101562 37.375 -84.6875 C 35.957031 -87.28125 34.039062 -89.109375 31.625 -90.171875 C 29.21875 -91.242188 26.195312 -91.117188 22.5625 -89.796875 C 18.59375 -87.273438 15.703125 -84.003906 13.890625 -79.984375 C 12.085938 -75.972656 11.140625 -71.550781 11.046875 -66.71875 C 10.960938 -61.882812 11.476562 -56.96875 12.59375 -51.96875 C 13.707031 -46.976562 15.164062 -42.253906 16.96875 -37.796875 C 18.769531 -33.347656 20.675781 -29.488281 22.6875 -26.21875 C 22.90625 -25.8125 23.128906 -25.40625 23.359375 -25 C 23.960938 -23.65625 24.816406 -22.453125 25.921875 -21.390625 C 26.085938 -21.523438 26.242188 -21.65625 26.390625 -21.78125 C 26.691406 -21.976562 26.960938 -22.207031 27.203125 -22.46875 Z M 27.203125 -22.46875 "/></g></g></g></g></g></g><g clip-path="url(#20fd801a14)"><g clip-path="url(#a9df41d694)"><g clip-path="url(#0c4cda412b)"><g clip-path="url(#c817715d91)"><path fill="#000000" d="M 749.128906 200.882812 C 749.042969 200.984375 748.957031 201.085938 748.871094 201.1875 C 748.148438 201.417969 747.390625 201.605469 746.648438 201.753906 C 746.136719 201.847656 746.234375 201.804688 745.578125 201.953125 C 742.910156 202.550781 740.355469 203.238281 737.71875 203.929688 C 738.394531 203.859375 739.074219 203.792969 739.75 203.722656 C 738.058594 204.0625 736.363281 204.402344 734.667969 204.738281 C 734.449219 204.699219 734.226562 204.660156 734.007812 204.621094 C 735.066406 204.332031 736.128906 204.042969 737.183594 203.75 C 735.058594 204.128906 732.734375 204.683594 730.625 205.191406 C 729.636719 205.453125 728.648438 205.710938 727.660156 205.96875 C 727.859375 205.976562 728.058594 205.988281 728.261719 206 C 725.675781 206.535156 723.089844 207.074219 720.507812 207.613281 C 714.839844 208.886719 709.171875 210.152344 703.5 211.417969 C 705.332031 211.085938 707.164062 210.757812 708.996094 210.429688 C 706.097656 211.074219 703.199219 211.722656 700.292969 212.339844 C 691.652344 214.183594 682.964844 216.164062 674.355469 218.15625 C 672.820312 218.511719 671.289062 218.871094 669.753906 219.230469 C 671.589844 218.738281 658.082031 221.917969 655.371094 222.570312 C 652.238281 223.320312 623.988281 230.15625 623.996094 230.207031 C 614.902344 232.523438 605.8125 234.9375 596.71875 237.226562 C 590.453125 238.761719 584.183594 240.332031 577.90625 241.816406 C 569.074219 243.941406 560.117188 246.269531 551.355469 248.691406 C 550.175781 249.023438 548.992188 249.359375 547.8125 249.691406 C 537.558594 252.519531 527.390625 255.472656 517.222656 258.601562 C 504.367188 262.613281 491.6875 266.796875 479.339844 272.203125 C 475.121094 274.105469 471.175781 276.027344 467.308594 278.589844 C 465.8125 279.613281 464.542969 280.585938 463.25 281.863281 C 462.0625 283.09375 461.246094 284.15625 460.585938 285.746094 C 460.316406 286.511719 460.253906 287.070312 460.398438 287.871094 C 460.492188 288.289062 460.609375 288.609375 460.8125 288.980469 C 461.109375 289.492188 461.410156 289.832031 461.882812 290.191406 C 462.425781 290.574219 462.898438 290.765625 463.554688 290.875 C 466.515625 291.128906 469.328125 290.941406 472.273438 290.691406 C 475.796875 290.394531 479.3125 289.957031 482.808594 289.445312 C 485.84375 288.992188 488.875 288.5 491.90625 287.988281 C 494.09375 287.582031 496.28125 287.167969 498.464844 286.742188 C 500.820312 286.367188 503.167969 285.980469 505.519531 285.585938 C 504.660156 285.835938 503.796875 286.089844 502.9375 286.339844 C 504.773438 286.144531 507.03125 285.648438 508.875 285.285156 C 509.996094 285.050781 511.117188 284.8125 512.238281 284.574219 C 512.246094 284.628906 512.257812 284.679688 512.265625 284.734375 C 514.546875 284.523438 515.539062 284.335938 517.960938 283.84375 C 524.632812 282.460938 519.421875 283.332031 516.453125 283.726562 C 518.101562 283.328125 519.75 282.929688 521.398438 282.527344 C 525.070312 281.816406 528.742188 281.09375 532.410156 280.359375 C 539.367188 278.867188 546.371094 277.476562 553.34375 276.046875 C 558.617188 274.964844 563.886719 273.871094 569.15625 272.761719 C 573.398438 271.824219 577.644531 270.882812 581.886719 269.929688 C 586.617188 268.933594 591.34375 267.929688 596.074219 266.921875 C 599.382812 266.273438 602.6875 265.589844 605.988281 264.90625 C 608.429688 264.246094 610.898438 263.640625 613.371094 263.089844 C 617.457031 262.195312 621.523438 261.199219 625.609375 260.296875 C 628.757812 259.601562 631.84375 258.757812 634.976562 258.019531 C 637.878906 257.332031 640.796875 256.660156 643.683594 255.914062 C 644.148438 255.785156 646.832031 254.960938 647.003906 254.535156 C 646.992188 254.480469 646.980469 254.429688 646.96875 254.375 C 647.445312 252.003906 648.75 249.933594 651.023438 248.972656 C 652.683594 248.421875 654.359375 247.929688 656.019531 247.382812 C 657.800781 246.734375 660.371094 245.429688 662.023438 244.460938 C 662.488281 244.207031 664.976562 243.332031 664.609375 242.976562 C 664.390625 242.554688 666.554688 241.703125 666.921875 241.554688 C 665.324219 241.746094 667.773438 241.199219 667.910156 241.167969 C 668.238281 241.09375 673.046875 239.925781 670.207031 240.496094 C 668.253906 240.902344 666.296875 241.367188 664.359375 241.855469 C 663.582031 242.019531 660.417969 242.734375 659.902344 242.71875 C 659.878906 242.621094 660.292969 242.59375 659.878906 242.621094 C 659.507812 242.636719 660.492188 242.410156 659.378906 242.660156 C 658.304688 242.898438 657.21875 243.132812 656.171875 243.476562 C 654.875 243.90625 653.582031 244.148438 652.230469 244.355469 C 651.511719 244.472656 650.792969 244.589844 650.070312 244.707031 C 649.578125 244.695312 648.328125 245.035156 647.859375 245.164062 C 646.375 245.589844 644.886719 245.996094 643.394531 246.402344 C 640.535156 247.003906 637.648438 247.617188 634.8125 248.3125 C 633.453125 248.644531 632.894531 248.65625 631.5625 248.894531 C 629.710938 249.234375 627.96875 249.660156 626.144531 250.09375 C 623.632812 250.695312 621.105469 251.257812 618.601562 251.898438 C 613.726562 253.078125 608.78125 254.164062 603.882812 255.253906 C 598.242188 256.496094 592.625 257.703125 586.996094 259.007812 C 583.582031 259.800781 580.140625 260.722656 576.675781 261.25 C 573.503906 261.75 570.273438 262.441406 567.128906 263.128906 C 562.359375 264.128906 557.585938 265.125 552.8125 266.105469 C 547.953125 267.121094 556.425781 265.644531 556.949219 265.554688 C 552.761719 266.421875 548.554688 267.335938 544.34375 268.066406 C 540.761719 268.722656 537.15625 269.488281 533.585938 270.222656 C 530.835938 270.757812 528.078125 271.289062 525.324219 271.8125 C 523.160156 272.3125 520.984375 272.785156 518.804688 273.230469 C 516.023438 273.792969 513.242188 274.347656 510.457031 274.890625 C 499.769531 276.9375 474.542969 282.042969 464.667969 281.527344 C 465.78125 281.6875 466.484375 281.929688 467.410156 282.585938 C 468.105469 283.113281 468.554688 283.613281 468.992188 284.367188 C 469.296875 284.917969 469.464844 285.382812 469.597656 286.003906 C 469.800781 287.09375 469.738281 287.960938 469.394531 289.011719 C 469.375 289.273438 469.210938 289.347656 469.359375 289.160156 C 469.421875 289.082031 469.910156 288.523438 469.929688 288.535156 C 469.933594 288.539062 469.996094 288.476562 470 288.472656 C 470.792969 287.695312 471.648438 287.066406 472.5625 286.441406 C 475.925781 284.210938 479.484375 282.496094 483.15625 280.839844 C 484.292969 280.332031 485.4375 279.835938 486.589844 279.355469 C 491.433594 277.300781 496.371094 275.445312 501.328125 273.6875 C 507.515625 271.515625 513.707031 269.503906 519.96875 267.554688 C 524.097656 266.273438 528.234375 265.03125 532.382812 263.808594 C 531.511719 264.121094 530.640625 264.429688 529.769531 264.742188 C 536.015625 262.839844 542.292969 260.964844 548.59375 259.238281 C 552.464844 258.175781 556.347656 257.148438 560.214844 256.070312 C 564.628906 254.832031 569.117188 253.816406 573.527344 252.554688 C 586.449219 248.96875 599.714844 245.65625 612.75 242.484375 C 617.214844 241.410156 621.671875 240.328125 626.136719 239.261719 C 666.972656 229.613281 712.304688 221.054688 752.179688 210.082031 C 751.25 210.410156 750.316406 210.714844 749.378906 211.015625 C 750.5 210.71875 751.613281 210.417969 752.734375 210.109375 C 753.710938 209.84375 754.710938 209.578125 755.671875 209.265625 C 756.164062 209.085938 756.652344 208.894531 757.117188 208.65625 C 763.023438 205.777344 758.148438 198.96875 759.75 201.949219 C 760.558594 205.136719 759.753906 207.535156 756.703125 208.699219 C 761.929688 206.328125 760.410156 199.003906 754.253906 199.015625 C 753.613281 199.027344 752.976562 199.078125 752.335938 199.136719 C 752.328125 199.078125 739.816406 200.347656 738.488281 200.480469 C 723.460938 202.085938 707.753906 204.417969 692.84375 206.589844 C 672.078125 209.800781 650.121094 213.238281 629.535156 217.65625 C 625.15625 218.5 620.78125 219.355469 616.410156 220.226562 C 613.019531 220.859375 609.632812 221.496094 606.246094 222.144531 C 600.925781 223.167969 595.609375 224.210938 590.292969 225.269531 C 588.558594 225.683594 586.824219 226.101562 585.09375 226.519531 C 582.066406 227.167969 579.039062 227.820312 576.011719 228.46875 C 573.207031 229.066406 570.390625 229.636719 567.597656 230.273438 C 558.390625 232.371094 549.191406 234.464844 539.996094 236.613281 C 538.644531 236.875 537.292969 237.132812 535.941406 237.394531 C 529.335938 238.933594 522.742188 240.5 516.140625 242.050781 C 507.027344 244.175781 497.921875 246.46875 488.839844 248.730469 C 469.699219 253.46875 450.511719 258.246094 431.457031 263.3125 C 425 265.078125 418.421875 266.519531 411.960938 268.320312 C 407.714844 269.503906 403.480469 270.628906 399.222656 271.769531 C 398.664062 272.242188 396.832031 272.789062 396.152344 272.984375 C 387.996094 275.257812 379.8125 277.46875 371.691406 279.855469 C 365.191406 281.761719 358.601562 283.472656 352.132812 285.457031 C 343.722656 287.984375 335.261719 290.460938 326.832031 292.910156 C 312.664062 297.015625 298.386719 300.757812 284.335938 305.269531 C 283.277344 305.605469 274.199219 308.511719 280.210938 306.460938 C 278.824219 306.875 277.4375 307.289062 276.050781 307.703125 C 272.710938 308.648438 269.371094 309.601562 266.035156 310.558594 C 264.363281 310.976562 262.691406 311.394531 261.019531 311.8125 C 260.640625 311.925781 255.945312 313.308594 257.25 313.074219 C 259.160156 312.640625 261.171875 312.027344 263.058594 311.464844 C 267.691406 315.140625 290.289062 311.964844 295.316406 311.261719 C 299.195312 310.039062 305.707031 307.792969 309.449219 307.140625 C 311.765625 306.882812 316.125 305.488281 318.488281 304.808594 C 321.144531 304.046875 323.78125 303.230469 326.445312 302.472656 C 331.878906 300.929688 337.324219 299.355469 342.785156 297.929688 C 349.9375 296 357.136719 293.664062 364.304688 291.636719 C 378.882812 287.542969 393.402344 283.332031 408.050781 279.484375 C 417.976562 276.875 427.898438 274.269531 437.816406 271.640625 C 434.371094 272.65625 430.921875 273.671875 427.480469 274.695312 C 434.851562 272.792969 442.226562 270.878906 449.585938 268.925781 C 454.414062 267.640625 459.261719 266.355469 464.109375 265.152344 C 466.316406 264.671875 468.523438 264.191406 470.734375 263.714844 C 488.371094 259.363281 506.101562 255.183594 523.699219 250.710938 C 527.660156 249.679688 531.605469 248.632812 535.578125 247.644531 C 539.933594 246.578125 544.316406 245.601562 548.71875 244.746094 C 554.832031 243.351562 560.945312 241.972656 567.070312 240.636719 C 570.980469 239.78125 574.890625 238.894531 578.789062 237.980469 C 587.753906 236.003906 596.726562 234.074219 605.714844 232.191406 C 609.480469 231.46875 613.246094 230.742188 617.007812 230.003906 C 635.160156 226.433594 653.359375 223.074219 671.613281 220.039062 C 678.417969 218.902344 685.230469 217.738281 692.027344 216.53125 C 693.863281 216.253906 695.699219 215.980469 697.535156 215.710938 C 705.335938 214.484375 713.148438 213.332031 720.972656 212.273438 C 724.746094 211.738281 729.324219 211.03125 733.074219 210.871094 C 735.390625 210.847656 737.621094 210.5625 739.929688 210.359375 C 743.996094 210 748.058594 209.65625 752.125 209.332031 C 752.460938 209.292969 752.792969 209.253906 753.128906 209.21875 C 757.667969 208.492188 746.53125 208.546875 751.679688 200.5625 C 754.074219 198.539062 752.566406 199.96875 749.128906 200.882812 Z M 749.128906 200.882812 " fill-opacity="1" fill-rule="nonzero"/></g></g></g></g></g></g></svg>