<svg xmlns="http://www.w3.org/2000/svg" xmlns:xlink="http://www.w3.org/1999/xlink" width="2000" zoomAndPan="magnify" viewBox="0 0 1500 1499.999933" height="2000" preserveAspectRatio="xMidYMid meet" version="1.0"><defs><g/><clipPath id="2c78bf9e9c"><path d="M -3.417969 0 L 1932.007812 1340.882812 L 1118.976562 2514.410156 L -816.449219 1173.527344 Z M -3.417969 0 " clip-rule="nonzero"/></clipPath><clipPath id="5ea730bf81"><path d="M 0 0 L 1500 0 L 1500 1500 L 0 1500 Z M 0 0 " clip-rule="nonzero"/></clipPath><clipPath id="c8fbd2e59b"><path d="M -3.417969 0 L 1932.007812 1340.882812 L 1118.976562 2514.410156 L -816.449219 1173.527344 Z M -3.417969 0 " clip-rule="nonzero"/></clipPath><clipPath id="b0292283ec"><rect x="0" width="1500" y="0" height="1500"/></clipPath><clipPath id="31fbd769cf"><path d="M 0.761719 0.160156 L 1049 0.160156 L 1049 351 L 0.761719 351 Z M 0.761719 0.160156 " clip-rule="nonzero"/></clipPath><clipPath id="0b5aeeb8f3"><rect x="0" width="1049" y="0" height="351"/></clipPath><clipPath id="a327728024"><path d="M 351 272 L 1040 272 L 1040 429 L 351 429 Z M 351 272 " clip-rule="nonzero"/></clipPath><clipPath id="ec30092b2a"><path d="M 344.878906 413.582031 L 1038.976562 254.128906 L 1051.976562 310.714844 L 357.878906 470.167969 Z M 344.878906 413.582031 " clip-rule="nonzero"/></clipPath><clipPath id="3ae6617435"><path d="M 344.878906 413.582031 L 1038.976562 254.128906 L 1051.976562 310.714844 L 357.878906 470.167969 Z M 344.878906 413.582031 " clip-rule="nonzero"/></clipPath><clipPath id="5890d4e1a4"><path d="M 344.878906 413.582031 L 1038.976562 254.128906 L 1051.976562 310.714844 L 357.878906 470.167969 Z M 344.878906 413.582031 " clip-rule="nonzero"/></clipPath><clipPath id="2c28a466f5"><rect x="0" width="1053" y="0" height="471"/></clipPath></defs><rect x="-150" width="1800" fill="#ffffff" y="-149.999993" height="1799.99992" fill-opacity="1"/><rect x="-150" width="1800" fill="#ffffff" y="-149.999993" height="1799.99992" fill-opacity="1"/><g clip-path="url(#2c78bf9e9c)"><g transform="matrix(1, 0, 0, 1, 0, 0.000000000000112861)"><g clip-path="url(#b0292283ec)"><g clip-path="url(#5ea730bf81)"><g clip-path="url(#c8fbd2e59b)"><path fill="#fff500" d="M -3.417969 0 L 1931.066406 1340.230469 L 1118.039062 2513.757812 L -816.449219 1173.527344 Z M -3.417969 0 " fill-opacity="1" fill-rule="nonzero"/></g></g></g></g></g><g transform="matrix(1, 0, 0, 1, 35, 974)"><g clip-path="url(#2c28a466f5)"><g clip-path="url(#31fbd769cf)"><g transform="matrix(1, 0, 0, 1, -0.000000000000007105, 0.000000000000113687)"><g clip-path="url(#0b5aeeb8f3)"><g fill="#010101" fill-opacity="1"><g transform="translate(9.752024, 255.237918)"><g><path d="M 207.328125 -164.515625 C 210.117188 -162.890625 211.132812 -160.492188 210.375 -157.328125 C 209.863281 -155.796875 209.175781 -154.351562 208.3125 -153 C 206.882812 -150.789062 205.160156 -148.804688 203.140625 -147.046875 C 193.753906 -138.410156 182.796875 -132.878906 170.265625 -130.453125 C 167.503906 -129.898438 164.75 -129.300781 162 -128.65625 C 160.757812 -128.320312 159.578125 -128.335938 158.453125 -128.703125 C 157.742188 -128.953125 157.378906 -129.394531 157.359375 -130.03125 C 157.398438 -130.320312 157.484375 -130.601562 157.609375 -130.875 C 157.742188 -131.15625 157.910156 -131.332031 158.109375 -131.40625 C 159.003906 -131.9375 159.9375 -132.316406 160.90625 -132.546875 C 162.125 -132.816406 163.359375 -133.085938 164.609375 -133.359375 C 165.523438 -133.460938 166.453125 -133.625 167.390625 -133.84375 C 173.585938 -135.21875 179.222656 -137.53125 184.296875 -140.78125 C 189.378906 -144.039062 194.054688 -148.015625 198.328125 -152.703125 C 199.609375 -154.015625 200.554688 -155.546875 201.171875 -157.296875 C 201.847656 -159.410156 201.210938 -160.875 199.265625 -161.6875 C 196.703125 -162.5 194.109375 -162.882812 191.484375 -162.84375 C 188.203125 -162.71875 184.96875 -162.59375 181.78125 -162.46875 C 180.40625 -162.40625 179.023438 -162.347656 177.640625 -162.296875 C 169.367188 -161.972656 161.15625 -161.210938 153 -160.015625 C 144.851562 -158.816406 136.722656 -157.472656 128.609375 -155.984375 C 115.671875 -153.796875 102.800781 -151.269531 90 -148.40625 C 90.132812 -146.664062 90.234375 -144.929688 90.296875 -143.203125 C 91.171875 -121.222656 92.039062 -99.269531 92.90625 -77.34375 C 93.195312 -70.125 93.484375 -62.90625 93.765625 -55.6875 C 94.046875 -48.625 94.328125 -41.570312 94.609375 -34.53125 C 95.410156 -14.226562 96.21875 6.085938 97.03125 26.421875 C 97.238281 31.816406 97.359375 37.234375 97.390625 42.671875 C 97.503906 45.566406 96.164062 46.832031 93.375 46.46875 C 91.96875 46.300781 91.128906 45.578125 90.859375 44.296875 C 90.835938 43.734375 90.785156 43.171875 90.703125 42.609375 C 90.378906 39.992188 90.164062 37.328125 90.0625 34.609375 C 89.3125 17.148438 88.585938 -0.359375 87.890625 -17.921875 C 86.191406 -60.878906 84.492188 -103.832031 82.796875 -146.78125 C 82.671875 -146.6875 82.523438 -146.632812 82.359375 -146.625 C 81.953125 -146.550781 81.578125 -146.472656 81.234375 -146.390625 C 71.023438 -143.960938 60.945312 -141.160156 51 -137.984375 C 41.050781 -134.816406 31.269531 -131.164062 21.65625 -127.03125 C 18.21875 -125.59375 14.832031 -124.003906 11.5 -122.265625 C 10.46875 -121.742188 9.488281 -121.25 8.5625 -120.78125 C 6.707031 -120.007812 5.269531 -118.695312 4.25 -116.84375 C 3.53125 -115.71875 2.40625 -115.109375 0.875 -115.015625 C -0.65625 -114.921875 -2.019531 -115.289062 -3.21875 -116.125 C -4.175781 -116.945312 -4.320312 -117.863281 -3.65625 -118.875 C -2.945312 -119.945312 -2.070312 -120.863281 -1.03125 -121.625 C 0.0078125 -122.394531 1.125 -123.117188 2.3125 -123.796875 C 8.132812 -127.054688 14.097656 -129.925781 20.203125 -132.40625 C 35.710938 -138.769531 51.539062 -144.0625 67.6875 -148.28125 C 72.664062 -149.519531 77.632812 -150.703125 82.59375 -151.828125 C 82.601562 -152.878906 82.617188 -153.894531 82.640625 -154.875 C 82.804688 -156.21875 83.414062 -157.171875 84.46875 -157.734375 C 85.519531 -158.296875 86.71875 -158.285156 88.0625 -157.703125 C 89.070312 -157.203125 89.566406 -156.378906 89.546875 -155.234375 C 89.566406 -154.640625 89.625 -154.03125 89.71875 -153.40625 C 101.625 -155.957031 113.578125 -158.3125 125.578125 -160.46875 C 138.054688 -162.757812 150.601562 -164.644531 163.21875 -166.125 C 173.03125 -167.207031 182.878906 -167.695312 192.765625 -167.59375 C 195.960938 -167.519531 199.132812 -167.15625 202.28125 -166.5 C 204.09375 -166.15625 205.773438 -165.492188 207.328125 -164.515625 Z M 207.328125 -164.515625 "/></g></g></g><g fill="#010101" fill-opacity="1"><g transform="translate(125.175181, 250.662786)"><g><path d="M 45.4375 -24.796875 C 48 -27.890625 49.363281 -29.09375 49.53125 -28.40625 C 49.707031 -27.71875 49.203125 -26.078125 48.015625 -23.484375 C 46.828125 -20.890625 44.910156 -18.640625 42.265625 -16.734375 C 40.328125 -15.421875 38.644531 -14.523438 37.21875 -14.046875 C 35.800781 -13.566406 34.507812 -13.269531 33.34375 -13.15625 C 31.050781 -12.9375 29.269531 -13.53125 28 -14.9375 C 26.726562 -16.34375 25.8125 -18.175781 25.25 -20.4375 C 24.6875 -22.707031 24.25 -25.054688 23.9375 -27.484375 C 23.65625 -29.023438 23.390625 -30.398438 23.140625 -31.609375 C 22.785156 -33.554688 22.179688 -34.613281 21.328125 -34.78125 C 20.484375 -34.957031 19.253906 -33.65625 17.640625 -30.875 C 15.953125 -27.90625 14.5 -24.644531 13.28125 -21.09375 C 12.0625 -17.539062 11 -14.066406 10.09375 -10.671875 C 10.03125 -10.535156 9.96875 -10.363281 9.90625 -10.15625 C 9.707031 -9.675781 9.5625 -9.179688 9.46875 -8.671875 C 9.113281 -7.265625 8.675781 -5.890625 8.15625 -4.546875 C 7.738281 -3.421875 6.957031 -2.660156 5.8125 -2.265625 C 4.675781 -1.878906 3.460938 -1.910156 2.171875 -2.359375 C 1.347656 -2.679688 0.773438 -3.25 0.453125 -4.0625 C -0.00390625 -5.300781 -0.195312 -6.566406 -0.125 -7.859375 C -0.132812 -8.015625 -0.140625 -8.125 -0.140625 -8.1875 C -0.078125 -13.6875 -0.390625 -22.816406 -1.078125 -35.578125 C -1.640625 -45.753906 -2.148438 -56.707031 -2.609375 -68.4375 C -3.078125 -80.175781 -3.21875 -91.257812 -3.03125 -101.6875 C -2.84375 -112.125 -2.144531 -120.492188 -0.9375 -126.796875 C -0.40625 -129.085938 0.546875 -131.164062 1.921875 -133.03125 C 3.304688 -134.90625 4.875 -135.960938 6.625 -136.203125 C 8.382812 -136.453125 10.09375 -135.3125 11.75 -132.78125 C 12.875 -130.613281 13.613281 -128.296875 13.96875 -125.828125 C 14.957031 -118.472656 14.78125 -107.109375 13.4375 -91.734375 C 12.101562 -76.367188 10.609375 -62.898438 8.953125 -51.328125 C 7.304688 -39.765625 6.632812 -30.140625 6.9375 -22.453125 C 7.582031 -23.640625 8.21875 -24.910156 8.84375 -26.265625 C 9.75 -28.265625 10.769531 -30.253906 11.90625 -32.234375 C 13.039062 -34.222656 14.410156 -35.925781 16.015625 -37.34375 C 17.628906 -38.769531 19.613281 -39.707031 21.96875 -40.15625 C 23.5625 -40.46875 25.191406 -40.414062 26.859375 -40 C 28.523438 -39.59375 29.679688 -38.484375 30.328125 -36.671875 C 31.148438 -33.515625 31.519531 -30.140625 31.4375 -26.546875 C 31.582031 -22.722656 32.335938 -20.332031 33.703125 -19.375 C 35.078125 -18.414062 36.738281 -18.304688 38.6875 -19.046875 C 40.632812 -19.796875 42.882812 -21.710938 45.4375 -24.796875 Z M 6.234375 -121.203125 C 6.046875 -117.242188 5.914062 -110.644531 5.84375 -101.40625 C 5.769531 -92.164062 5.753906 -82.898438 5.796875 -73.609375 C 5.847656 -64.328125 6 -56.613281 6.25 -50.46875 C 6.789062 -56.050781 7.414062 -63.316406 8.125 -72.265625 C 8.84375 -81.222656 9.429688 -90.425781 9.890625 -99.875 C 10.359375 -109.332031 10.5 -116.429688 10.3125 -121.171875 C 10.144531 -123.660156 9.894531 -125.503906 9.5625 -126.703125 C 9.226562 -127.910156 8.738281 -128.328125 8.09375 -127.953125 C 7.445312 -127.585938 6.976562 -126.6875 6.6875 -125.25 C 6.394531 -123.8125 6.242188 -122.460938 6.234375 -121.203125 Z M 6.234375 -121.203125 "/></g></g></g><g fill="#010101" fill-opacity="1"><g transform="translate(173.189333, 248.759606)"><g><path d="M 23.796875 -20.171875 C 22.898438 -18.117188 21.320312 -15.816406 19.0625 -13.265625 C 16.8125 -10.722656 14.207031 -9.054688 11.25 -8.265625 C 8.300781 -7.484375 5.414062 -8.394531 2.59375 -11 C 1.507812 -12.15625 0.691406 -13.503906 0.140625 -15.046875 C -0.410156 -16.585938 -0.65625 -18.113281 -0.59375 -19.625 C -0.601562 -20.039062 -0.625 -20.5625 -0.65625 -21.1875 C -0.71875 -22.800781 -0.71875 -24.664062 -0.65625 -26.78125 C -0.601562 -28.90625 -0.367188 -30.828125 0.046875 -32.546875 C 0.472656 -34.265625 1.203125 -35.316406 2.234375 -35.703125 C 5.203125 -36.585938 6.867188 -35.613281 7.234375 -32.78125 C 7.265625 -31.875 7.269531 -30.957031 7.25 -30.03125 C 7.195312 -29.5625 7.179688 -29.125 7.203125 -28.71875 C 7.191406 -27.394531 7.179688 -26.066406 7.171875 -24.734375 C 7.210938 -23.691406 7.207031 -22.644531 7.15625 -21.59375 C 7.269531 -17.019531 8.398438 -14.335938 10.546875 -13.546875 C 12.691406 -12.765625 15.066406 -13.785156 17.671875 -16.609375 C 20.273438 -19.441406 21.960938 -21.769531 22.734375 -23.59375 C 23.503906 -25.425781 24.097656 -25.828125 24.515625 -24.796875 C 24.929688 -23.773438 24.691406 -22.234375 23.796875 -20.171875 Z M 6.109375 -45.640625 C 5.710938 -45.265625 5.222656 -45.019531 4.640625 -44.90625 C 4.054688 -44.789062 3.539062 -44.816406 3.09375 -44.984375 C 2.738281 -45.253906 2.503906 -45.613281 2.390625 -46.0625 C 2.285156 -46.519531 2.21875 -47.066406 2.1875 -47.703125 C 2.1875 -47.828125 2.210938 -47.957031 2.265625 -48.09375 C 2.304688 -48.664062 2.425781 -49.234375 2.625 -49.796875 C 3.1875 -51.335938 4.46875 -52.085938 6.46875 -52.046875 C 7.164062 -51.960938 7.71875 -51.691406 8.125 -51.234375 C 8.539062 -50.785156 8.648438 -50.238281 8.453125 -49.59375 C 8.046875 -48.050781 7.265625 -46.734375 6.109375 -45.640625 Z M 6.109375 -45.640625 "/></g></g></g><g fill="#010101" fill-opacity="1"><g transform="translate(196.415875, 247.838955)"><g><path d="M 38.390625 -19.75 C 40.671875 -23.695312 42.019531 -26.203125 42.4375 -27.265625 C 42.851562 -28.328125 43.21875 -28.296875 43.53125 -27.171875 C 43.84375 -26.046875 43.160156 -23.445312 41.484375 -19.375 C 39.816406 -15.3125 37.671875 -12.144531 35.046875 -9.875 C 32.421875 -7.613281 29.921875 -6.722656 27.546875 -7.203125 C 25.171875 -7.679688 23.425781 -9.242188 22.3125 -11.890625 C 21.195312 -14.546875 20.765625 -17.929688 21.015625 -22.046875 C 21.015625 -22.109375 21.039062 -22.289062 21.09375 -22.59375 C 21.125 -23.28125 21.195312 -24.304688 21.3125 -25.671875 C 21.4375 -27.035156 21.507812 -28.441406 21.53125 -29.890625 C 21.550781 -31.347656 21.457031 -32.546875 21.25 -33.484375 C 21.039062 -34.421875 20.59375 -34.734375 19.90625 -34.421875 C 18.269531 -33.441406 16.707031 -31.585938 15.21875 -28.859375 C 13.738281 -26.128906 12.40625 -23.28125 11.21875 -20.3125 C 10.039062 -17.351562 9.226562 -14.960938 8.78125 -13.140625 C 8.582031 -12.566406 8.394531 -11.957031 8.21875 -11.3125 C 7.96875 -10.488281 7.6875 -9.660156 7.375 -8.828125 C 6.550781 -6.421875 4.992188 -5.441406 2.703125 -5.890625 C 1.429688 -6.128906 0.65625 -6.875 0.375 -8.125 C 0.28125 -9.101562 0.210938 -10.03125 0.171875 -10.90625 C 0.148438 -11.46875 0.0976562 -11.984375 0.015625 -12.453125 C -0.378906 -19.453125 -0.828125 -26.492188 -1.328125 -33.578125 C -1.296875 -34.398438 -0.957031 -34.984375 -0.3125 -35.328125 C 0.332031 -35.671875 1.113281 -35.863281 2.03125 -35.90625 C 2.726562 -35.925781 3.390625 -35.757812 4.015625 -35.40625 C 4.648438 -35.050781 5.070312 -34.28125 5.28125 -33.09375 C 5.351562 -32.675781 5.398438 -32.265625 5.421875 -31.859375 C 5.492188 -31.640625 5.53125 -31.4375 5.53125 -31.25 C 5.695312 -30.28125 5.796875 -29.453125 5.828125 -28.765625 C 5.867188 -27.722656 5.96875 -27.015625 6.125 -26.640625 C 6.289062 -26.265625 6.59375 -26.289062 7.03125 -26.71875 C 7.46875 -27.144531 8.171875 -28.148438 9.140625 -29.734375 C 10.828125 -32.578125 12.960938 -35.015625 15.546875 -37.046875 C 17.898438 -38.878906 20.535156 -39.707031 23.453125 -39.53125 C 25.953125 -39.382812 27.671875 -38.144531 28.609375 -35.8125 C 29.003906 -34.625 29.222656 -33.421875 29.265625 -32.203125 C 29.316406 -30.992188 29.289062 -29.773438 29.1875 -28.546875 C 29.164062 -27.285156 29.117188 -25.988281 29.046875 -24.65625 C 28.972656 -24.238281 28.914062 -23.820312 28.875 -23.40625 C 28.644531 -18.882812 28.90625 -15.867188 29.65625 -14.359375 C 30.40625 -12.859375 31.476562 -12.394531 32.875 -12.96875 C 34.269531 -13.550781 36.109375 -15.8125 38.390625 -19.75 Z M 38.390625 -19.75 "/></g></g></g><g fill="#010101" fill-opacity="1"><g transform="translate(238.043899, 246.188908)"><g><path d="M 45.734375 -24.59375 C 46.648438 -25.457031 47.28125 -25.878906 47.625 -25.859375 C 47.976562 -25.847656 48.117188 -25.59375 48.046875 -25.09375 C 47.972656 -24.601562 47.738281 -24.050781 47.34375 -23.4375 C 46.363281 -21.84375 45.101562 -20.203125 43.5625 -18.515625 C 42.019531 -16.828125 40.914062 -15.648438 40.25 -14.984375 C 35.707031 -10.585938 31.566406 -8.140625 27.828125 -7.640625 C 24.097656 -7.148438 20.804688 -7.800781 17.953125 -9.59375 C 15.097656 -11.382812 12.773438 -13.476562 10.984375 -15.875 C 9.191406 -18.269531 7.992188 -20.148438 7.390625 -21.515625 C 7.191406 -21.097656 7.085938 -20.191406 7.078125 -18.796875 C 7.066406 -17.410156 7.101562 -15.773438 7.1875 -13.890625 C 7.195312 -12.015625 7.195312 -10.175781 7.1875 -8.375 C 7.175781 -6.582031 7.050781 -5.113281 6.8125 -3.96875 C 6.488281 -1.738281 5.1875 -0.722656 2.90625 -0.921875 C 1.28125 -1.046875 0.332031 -1.84375 0.0625 -3.3125 C -0.101562 -4.257812 -0.207031 -5.222656 -0.25 -6.203125 C -0.332031 -8.285156 -0.410156 -10.332031 -0.484375 -12.34375 C -0.753906 -20.675781 -0.972656 -28.972656 -1.140625 -37.234375 C -1.304688 -41.242188 -1.367188 -47.59375 -1.328125 -56.28125 C -1.296875 -64.96875 -1.035156 -74.164062 -0.546875 -83.875 C -0.0546875 -93.59375 0.769531 -101.984375 1.9375 -109.046875 C 2.394531 -111.835938 3.226562 -114.5 4.4375 -117.03125 C 5.644531 -119.5625 7.625 -121.226562 10.375 -122.03125 C 11.5625 -122.332031 12.734375 -122.15625 13.890625 -121.5 C 15.054688 -120.851562 16.140625 -119.503906 17.140625 -117.453125 C 18.117188 -115.285156 18.703125 -113.019531 18.890625 -110.65625 C 19.285156 -105.40625 18.914062 -98.726562 17.78125 -90.625 C 16.644531 -82.53125 15.164062 -74.101562 13.34375 -65.34375 C 11.53125 -56.582031 9.804688 -48.585938 8.171875 -41.359375 C 7.222656 -37.273438 6.414062 -33.765625 5.75 -30.828125 C 6.539062 -32.378906 7.601562 -34.132812 8.9375 -36.09375 C 10.28125 -38.0625 11.59375 -39.640625 12.875 -40.828125 C 15.894531 -43.453125 19.425781 -44.460938 23.46875 -43.859375 C 27.945312 -43.054688 29.40625 -40.566406 27.84375 -36.390625 C 26.125 -32.722656 23.925781 -29.878906 21.25 -27.859375 C 18.582031 -25.847656 15.992188 -24.269531 13.484375 -23.125 C 16.316406 -19.488281 19.484375 -16.617188 22.984375 -14.515625 C 25.460938 -13.210938 28.140625 -13.09375 31.015625 -14.15625 C 33.898438 -15.21875 36.660156 -16.789062 39.296875 -18.875 C 41.929688 -20.957031 44.078125 -22.863281 45.734375 -24.59375 Z M 8.109375 -106.171875 C 7.222656 -98.296875 6.550781 -88.390625 6.09375 -76.453125 C 5.632812 -64.515625 5.390625 -54.6875 5.359375 -46.96875 C 6.398438 -50.132812 7.535156 -55.421875 8.765625 -62.828125 C 10.003906 -70.234375 11.128906 -77.90625 12.140625 -85.84375 C 13.148438 -93.78125 13.832031 -100.160156 14.1875 -104.984375 C 14.539062 -110.273438 14.320312 -113.703125 13.53125 -115.265625 C 12.738281 -116.828125 11.796875 -116.800781 10.703125 -115.1875 C 9.617188 -113.582031 8.753906 -110.578125 8.109375 -106.171875 Z M 7.921875 -26.578125 C 8.203125 -26.421875 8.96875 -26.578125 10.21875 -27.046875 C 11.476562 -27.523438 12.875 -28.171875 14.40625 -28.984375 C 15.9375 -29.804688 17.171875 -30.757812 18.109375 -31.84375 C 20.367188 -34.582031 21.363281 -36.425781 21.09375 -37.375 C 20.820312 -38.332031 19.957031 -38.644531 18.5 -38.3125 C 17.039062 -37.988281 15.640625 -37.203125 14.296875 -35.953125 C 12.773438 -34.378906 11.335938 -32.65625 9.984375 -30.78125 C 8.628906 -28.914062 7.941406 -27.515625 7.921875 -26.578125 Z M 7.921875 -26.578125 "/></g></g></g><g fill="#010101" fill-opacity="1"><g transform="translate(283.929342, 244.370105)"><g><path d="M 8.609375 -11.5625 C 11.179688 -11.664062 12.132812 -10.460938 11.46875 -7.953125 C 11.164062 -6.960938 10.8125 -6.03125 10.40625 -5.15625 C 10.019531 -4.375 9.457031 -3.851562 8.71875 -3.59375 C 7.976562 -3.332031 7.171875 -3.351562 6.296875 -3.65625 C 5.585938 -3.914062 5.191406 -4.390625 5.109375 -5.078125 C 4.992188 -6.179688 4.976562 -7.320312 5.0625 -8.5 C 5.207031 -10.582031 6.390625 -11.601562 8.609375 -11.5625 Z M 8.609375 -11.5625 "/></g></g></g><g fill="#010101" fill-opacity="1"><g transform="translate(302.047003, 243.651959)"><g/></g></g><g fill="#010101" fill-opacity="1"><g transform="translate(326.077712, 242.699432)"><g><path d="M 178.546875 -141.578125 C 183.296875 -138.035156 187.21875 -133.925781 190.3125 -129.25 C 193.40625 -124.570312 195.5625 -119.273438 196.78125 -113.359375 C 197.394531 -110.316406 197.617188 -107.296875 197.453125 -104.296875 C 197.285156 -101.304688 196.882812 -98.335938 196.25 -95.390625 C 195.25 -90.472656 193.703125 -85.785156 191.609375 -81.328125 C 189.523438 -76.878906 187.054688 -72.625 184.203125 -68.5625 C 180.359375 -63.257812 176.03125 -58.5 171.21875 -54.28125 C 166.414062 -50.0625 161.273438 -46.203125 155.796875 -42.703125 C 144.210938 -35.296875 131.972656 -29.15625 119.078125 -24.28125 C 118.222656 -23.90625 117.3125 -23.523438 116.34375 -23.140625 C 115.03125 -22.671875 114.101562 -22.269531 113.5625 -21.9375 C 113.019531 -21.601562 112.691406 -21.113281 112.578125 -20.46875 C 112.460938 -19.832031 112.429688 -18.851562 112.484375 -17.53125 C 113.128906 -1.113281 113.75 15.285156 114.34375 31.671875 C 114.425781 33.816406 114.507812 35.929688 114.59375 38.015625 C 114.59375 38.171875 114.597656 38.28125 114.609375 38.34375 C 114.648438 39.507812 114.675781 40.664062 114.6875 41.8125 C 114.707031 42.96875 114.566406 44.097656 114.265625 45.203125 C 113.828125 47.117188 112.710938 48.066406 110.921875 48.046875 C 109.347656 48.046875 108.28125 47.296875 107.71875 45.796875 C 106.976562 43.335938 106.601562 40.785156 106.59375 38.140625 C 106.5 35.640625 106.398438 33.144531 106.296875 30.65625 C 105.742188 16.625 105.191406 2.601562 104.640625 -11.40625 C 104.617188 -11.90625 104.597656 -12.425781 104.578125 -12.96875 C 104.691406 -14.632812 104.445312 -16.4375 103.84375 -18.375 C 102.863281 -18.238281 102 -18.03125 101.25 -17.75 C 100.007812 -17.34375 98.800781 -17.210938 97.625 -17.359375 C 97.175781 -17.410156 96.773438 -17.515625 96.421875 -17.671875 C 96.066406 -17.835938 95.847656 -18.164062 95.765625 -18.65625 C 95.734375 -19.632812 96.132812 -20.273438 96.96875 -20.578125 C 98.582031 -21.328125 100.25 -21.988281 101.96875 -22.5625 C 103.488281 -23.15625 104.1875 -24.257812 104.0625 -25.875 C 104.019531 -26.851562 103.976562 -27.863281 103.9375 -28.90625 C 103.914062 -29.4375 103.894531 -30.019531 103.875 -30.65625 C 103.539062 -39.039062 103.207031 -47.390625 102.875 -55.703125 C 102.195312 -74.316406 101.488281 -92.960938 100.75 -111.640625 C 100.75 -111.828125 100.742188 -112.0625 100.734375 -112.34375 C 100.671875 -113.71875 100.644531 -115.078125 100.65625 -116.421875 C 100.78125 -118.847656 102.054688 -120.113281 104.484375 -120.21875 C 106.816406 -120.25 108.144531 -119.050781 108.46875 -116.625 C 108.570312 -115.425781 108.617188 -114.238281 108.609375 -113.0625 C 108.617188 -112.664062 108.632812 -112.265625 108.65625 -111.859375 C 108.882812 -106.015625 109.113281 -100.207031 109.34375 -94.4375 C 110.207031 -74.269531 111.035156 -54.097656 111.828125 -33.921875 C 111.847656 -33.410156 111.867188 -32.890625 111.890625 -32.359375 C 111.835938 -30.671875 112.046875 -29.03125 112.515625 -27.4375 C 112.941406 -27.101562 113.34375 -26.984375 113.71875 -27.078125 C 114.101562 -27.171875 114.460938 -27.285156 114.796875 -27.421875 C 124.359375 -31.441406 133.503906 -36.117188 142.234375 -41.453125 C 150.960938 -46.785156 159.066406 -53.015625 166.546875 -60.140625 C 176.273438 -69.335938 182.960938 -80.4375 186.609375 -93.4375 C 188.472656 -100.613281 188.816406 -107.21875 187.640625 -113.25 C 186.472656 -119.28125 184.113281 -124.640625 180.5625 -129.328125 C 177.019531 -134.015625 172.609375 -137.953125 167.328125 -141.140625 C 158.203125 -146.617188 147.492188 -149.8125 135.203125 -150.71875 C 122.921875 -151.625 110.109375 -150.664062 96.765625 -147.84375 C 83.421875 -145.019531 70.601562 -140.789062 58.3125 -135.15625 C 46.03125 -129.53125 35.332031 -122.925781 26.21875 -115.34375 C 17.101562 -107.757812 10.597656 -99.6875 6.703125 -91.125 C 5.804688 -89.425781 5.1875 -87.660156 4.84375 -85.828125 C 4.507812 -83.992188 4.617188 -82.09375 5.171875 -80.125 C 5.503906 -79 5.378906 -78.148438 4.796875 -77.578125 C 4.210938 -77.003906 3.367188 -76.769531 2.265625 -76.875 C 0.0351562 -77.144531 -1.539062 -78.253906 -2.46875 -80.203125 C -3.226562 -81.910156 -3.425781 -83.691406 -3.0625 -85.546875 C -2.445312 -89.160156 -1.15625 -92.507812 0.8125 -95.59375 C 7.132812 -105.625 16.128906 -114.675781 27.796875 -122.75 C 39.460938 -130.832031 52.484375 -137.59375 66.859375 -143.03125 C 81.234375 -148.46875 95.675781 -152.179688 110.1875 -154.171875 C 124.707031 -156.171875 137.945312 -156.078125 149.90625 -153.890625 C 155.164062 -152.941406 160.175781 -151.460938 164.9375 -149.453125 C 169.707031 -147.441406 174.242188 -144.816406 178.546875 -141.578125 Z M 178.546875 -141.578125 "/></g></g></g><g fill="#010101" fill-opacity="1"><g transform="translate(501.956105, 235.727982)"><g><path d="M 77.984375 -31.109375 C 78.742188 -31.253906 79.523438 -31.328125 80.328125 -31.328125 C 81.128906 -31.335938 81.914062 -31.144531 82.6875 -30.75 C 82.820312 -30.632812 82.945312 -30.421875 83.0625 -30.109375 C 83.1875 -29.804688 83.285156 -29.507812 83.359375 -29.21875 C 83.367188 -29.09375 83.304688 -28.941406 83.171875 -28.765625 C 83.035156 -28.585938 82.910156 -28.414062 82.796875 -28.25 C 82.441406 -28.050781 82.097656 -27.894531 81.765625 -27.78125 C 77.285156 -26.726562 73.164062 -25.066406 69.40625 -22.796875 C 65.644531 -20.523438 62.082031 -17.929688 58.71875 -15.015625 C 54.132812 -11.140625 49.929688 -6.921875 46.109375 -2.359375 C 42.296875 2.191406 38.722656 6.929688 35.390625 11.859375 C 29.035156 21.148438 23.160156 30.765625 17.765625 40.703125 C 16.523438 42.992188 15.257812 45.238281 13.96875 47.4375 C 13.78125 47.863281 13.550781 48.253906 13.28125 48.609375 C 12.695312 49.671875 12.050781 50.671875 11.34375 51.609375 C 9.40625 53.835938 7.054688 54.453125 4.296875 53.453125 C 3.171875 52.929688 2.503906 52.207031 2.296875 51.28125 C 2.085938 50.351562 2.070312 49.367188 2.25 48.328125 C 3.226562 34.585938 3.585938 20.882812 3.328125 7.21875 C 3.128906 -11.132812 2.753906 -29.472656 2.203125 -47.796875 C 1.660156 -66.117188 0.644531 -84.414062 -0.84375 -102.6875 C -1.75 -113.632812 -2.800781 -124.609375 -4 -135.609375 C -4.539062 -140.648438 -5.085938 -145.703125 -5.640625 -150.765625 C -5.660156 -151.171875 -5.722656 -151.546875 -5.828125 -151.890625 C -5.929688 -152.929688 -6.003906 -153.972656 -6.046875 -155.015625 C -5.953125 -156.628906 -5.085938 -157.5625 -3.453125 -157.8125 C -2.484375 -158.007812 -1.601562 -157.953125 -0.8125 -157.640625 C -0.03125 -157.328125 0.4375 -156.820312 0.59375 -156.125 C 1.332031 -153.570312 1.894531 -150.988281 2.28125 -148.375 C 2.300781 -147.632812 2.359375 -146.867188 2.453125 -146.078125 C 4.066406 -131.828125 5.53125 -117.578125 6.84375 -103.328125 C 8.164062 -89.191406 9.09375 -75.023438 9.625 -60.828125 C 10.15625 -46.640625 10.523438 -32.425781 10.734375 -18.1875 C 10.972656 -6.539062 11.125 5.117188 11.1875 16.796875 C 11.226562 19.515625 11.1875 22.21875 11.0625 24.90625 C 11 26.457031 10.972656 27.988281 10.984375 29.5 C 10.972656 30.820312 10.945312 32.179688 10.90625 33.578125 C 10.9375 34.210938 10.929688 34.847656 10.890625 35.484375 C 11.109375 35.535156 11.273438 35.59375 11.390625 35.65625 C 11.609375 35.644531 11.820312 35.664062 12.03125 35.71875 C 12.351562 35.164062 12.675781 34.632812 13 34.125 C 13.851562 32.625 14.742188 31.128906 15.671875 29.640625 C 21.703125 19.109375 28.429688 9.085938 35.859375 -0.421875 C 39.609375 -5.253906 43.640625 -9.75 47.953125 -13.90625 C 52.273438 -18.070312 57.046875 -21.789062 62.265625 -25.0625 C 64.722656 -26.5625 67.234375 -27.84375 69.796875 -28.90625 C 72.359375 -29.96875 75.085938 -30.703125 77.984375 -31.109375 Z M 77.984375 -31.109375 "/></g></g></g><g fill="#010101" fill-opacity="1"><g transform="translate(578.542235, 232.692269)"><g><path d="M 52.546875 -26.4375 C 51.785156 -23.75 50.1875 -20.640625 47.75 -17.109375 C 45.320312 -13.585938 42.203125 -11.265625 38.390625 -10.140625 C 34.585938 -9.015625 31.253906 -9.015625 28.390625 -10.140625 C 25.535156 -11.273438 23.863281 -14.550781 23.375 -19.96875 C 20.425781 -13.664062 17.539062 -9.585938 14.71875 -7.734375 C 11.90625 -5.890625 8.9375 -5.109375 5.8125 -5.390625 C 2.25 -5.828125 -0.195312 -7.101562 -1.53125 -9.21875 C -2.863281 -11.34375 -3.378906 -13.835938 -3.078125 -16.703125 C -2.773438 -19.578125 -2.015625 -22.351562 -0.796875 -25.03125 C 0.160156 -27.03125 1.53125 -28.898438 3.3125 -30.640625 C 5.09375 -32.378906 6.96875 -33.765625 8.9375 -34.796875 C 11.382812 -36.160156 13.867188 -36.859375 16.390625 -36.890625 C 18.921875 -36.929688 21.65625 -36.203125 24.59375 -34.703125 C 24.65625 -34.640625 24.679688 -34.703125 24.671875 -34.890625 C 24.660156 -35.179688 24.71875 -35.539062 24.84375 -35.96875 C 24.976562 -36.394531 25.210938 -36.742188 25.546875 -37.015625 C 26.460938 -37.742188 27.5625 -38.132812 28.84375 -38.1875 C 30.132812 -38.238281 31.15625 -37.628906 31.90625 -36.359375 C 32.09375 -34.691406 32.003906 -32.5625 31.640625 -29.96875 C 30.828125 -24.25 30.988281 -20.160156 32.125 -17.703125 C 33.269531 -15.253906 35.15625 -14.164062 37.78125 -14.4375 C 40.414062 -14.71875 43.726562 -17.457031 47.71875 -22.65625 C 51.707031 -27.863281 53.316406 -29.125 52.546875 -26.4375 Z M 6.515625 -11.25 C 8.015625 -10.269531 9.671875 -10.472656 11.484375 -11.859375 C 13.304688 -13.253906 15.039062 -15.203125 16.6875 -17.703125 C 18.332031 -20.210938 19.695312 -22.707031 20.78125 -25.1875 C 21.863281 -27.664062 22.445312 -29.484375 22.53125 -30.640625 C 18.914062 -32.390625 15.867188 -32.59375 13.390625 -31.25 C 10.921875 -29.90625 8.992188 -27.789062 7.609375 -24.90625 C 6.222656 -22.03125 5.441406 -19.253906 5.265625 -16.578125 C 5.085938 -13.898438 5.503906 -12.125 6.515625 -11.25 Z M 6.515625 -11.25 "/></g></g></g><g fill="#010101" fill-opacity="1"><g transform="translate(628.68504, 230.704714)"><g><path d="M 38.390625 -19.75 C 40.671875 -23.695312 42.019531 -26.203125 42.4375 -27.265625 C 42.851562 -28.328125 43.21875 -28.296875 43.53125 -27.171875 C 43.84375 -26.046875 43.160156 -23.445312 41.484375 -19.375 C 39.816406 -15.3125 37.671875 -12.144531 35.046875 -9.875 C 32.421875 -7.613281 29.921875 -6.722656 27.546875 -7.203125 C 25.171875 -7.679688 23.425781 -9.242188 22.3125 -11.890625 C 21.195312 -14.546875 20.765625 -17.929688 21.015625 -22.046875 C 21.015625 -22.109375 21.039062 -22.289062 21.09375 -22.59375 C 21.125 -23.28125 21.195312 -24.304688 21.3125 -25.671875 C 21.4375 -27.035156 21.507812 -28.441406 21.53125 -29.890625 C 21.550781 -31.347656 21.457031 -32.546875 21.25 -33.484375 C 21.039062 -34.421875 20.59375 -34.734375 19.90625 -34.421875 C 18.269531 -33.441406 16.707031 -31.585938 15.21875 -28.859375 C 13.738281 -26.128906 12.40625 -23.28125 11.21875 -20.3125 C 10.039062 -17.351562 9.226562 -14.960938 8.78125 -13.140625 C 8.582031 -12.566406 8.394531 -11.957031 8.21875 -11.3125 C 7.96875 -10.488281 7.6875 -9.660156 7.375 -8.828125 C 6.550781 -6.421875 4.992188 -5.441406 2.703125 -5.890625 C 1.429688 -6.128906 0.65625 -6.875 0.375 -8.125 C 0.28125 -9.101562 0.210938 -10.03125 0.171875 -10.90625 C 0.148438 -11.46875 0.0976562 -11.984375 0.015625 -12.453125 C -0.378906 -19.453125 -0.828125 -26.492188 -1.328125 -33.578125 C -1.296875 -34.398438 -0.957031 -34.984375 -0.3125 -35.328125 C 0.332031 -35.671875 1.113281 -35.863281 2.03125 -35.90625 C 2.726562 -35.925781 3.390625 -35.757812 4.015625 -35.40625 C 4.648438 -35.050781 5.070312 -34.28125 5.28125 -33.09375 C 5.351562 -32.675781 5.398438 -32.265625 5.421875 -31.859375 C 5.492188 -31.640625 5.53125 -31.4375 5.53125 -31.25 C 5.695312 -30.28125 5.796875 -29.453125 5.828125 -28.765625 C 5.867188 -27.722656 5.96875 -27.015625 6.125 -26.640625 C 6.289062 -26.265625 6.59375 -26.289062 7.03125 -26.71875 C 7.46875 -27.144531 8.171875 -28.148438 9.140625 -29.734375 C 10.828125 -32.578125 12.960938 -35.015625 15.546875 -37.046875 C 17.898438 -38.878906 20.535156 -39.707031 23.453125 -39.53125 C 25.953125 -39.382812 27.671875 -38.144531 28.609375 -35.8125 C 29.003906 -34.625 29.222656 -33.421875 29.265625 -32.203125 C 29.316406 -30.992188 29.289062 -29.773438 29.1875 -28.546875 C 29.164062 -27.285156 29.117188 -25.988281 29.046875 -24.65625 C 28.972656 -24.238281 28.914062 -23.820312 28.875 -23.40625 C 28.644531 -18.882812 28.90625 -15.867188 29.65625 -14.359375 C 30.40625 -12.859375 31.476562 -12.394531 32.875 -12.96875 C 34.269531 -13.550781 36.109375 -15.8125 38.390625 -19.75 Z M 38.390625 -19.75 "/></g></g></g><g fill="#010101" fill-opacity="1"><g transform="translate(670.313065, 229.054667)"><g><path d="M 8.609375 -11.5625 C 11.179688 -11.664062 12.132812 -10.460938 11.46875 -7.953125 C 11.164062 -6.960938 10.8125 -6.03125 10.40625 -5.15625 C 10.019531 -4.375 9.457031 -3.851562 8.71875 -3.59375 C 7.976562 -3.332031 7.171875 -3.351562 6.296875 -3.65625 C 5.585938 -3.914062 5.191406 -4.390625 5.109375 -5.078125 C 4.992188 -6.179688 4.976562 -7.320312 5.0625 -8.5 C 5.207031 -10.582031 6.390625 -11.601562 8.609375 -11.5625 Z M 8.609375 -11.5625 "/></g></g></g><g fill="#010101" fill-opacity="1"><g transform="translate(688.430726, 228.336521)"><g/></g></g><g fill="#010101" fill-opacity="1"><g transform="translate(712.461435, 227.383994)"><g><path d="M 143.71875 -34.03125 C 144.414062 -34.125 144.753906 -33.609375 144.734375 -32.484375 C 144.722656 -31.367188 144.304688 -30.757812 143.484375 -30.65625 C 142.691406 -30.5 141.984375 -30.085938 141.359375 -29.421875 C 140.742188 -28.765625 140.453125 -28.0625 140.484375 -27.3125 C 140.941406 -20.59375 140.335938 -14.09375 138.671875 -7.8125 C 137.015625 -1.53125 134.707031 4.554688 131.75 10.453125 C 125.914062 22.679688 118.671875 33.644531 110.015625 43.34375 C 101.367188 53.039062 91.132812 61.328125 79.3125 68.203125 C 72.800781 71.929688 66.054688 74.800781 59.078125 76.8125 C 52.097656 78.832031 44.804688 79.773438 37.203125 79.640625 C 30.890625 79.546875 24.898438 78.09375 19.234375 75.28125 C 12.492188 71.625 7.941406 66.695312 5.578125 60.5 C 3.210938 54.3125 3.34375 47.632812 5.96875 40.46875 C 8.757812 33.457031 13.316406 26.859375 19.640625 20.671875 C 25.960938 14.484375 33.375 8.734375 41.875 3.421875 C 50.375 -1.878906 59.269531 -6.625 68.5625 -10.8125 C 77.863281 -15.007812 86.84375 -18.628906 95.5 -21.671875 C 104.15625 -24.710938 111.863281 -27.0625 118.625 -28.71875 C 120.46875 -29.238281 122.285156 -29.707031 124.078125 -30.125 C 126.015625 -30.550781 127.898438 -31.007812 129.734375 -31.5 C 131.335938 -31.84375 131.875 -32.726562 131.34375 -34.15625 C 129.46875 -40.738281 126.039062 -46.335938 121.0625 -50.953125 C 117.457031 -54.203125 113.582031 -56.925781 109.4375 -59.125 C 105.289062 -61.320312 100.929688 -63.128906 96.359375 -64.546875 C 82.640625 -68.816406 68.550781 -70.960938 54.09375 -70.984375 C 53.101562 -71.035156 52.085938 -71.039062 51.046875 -71 C 49.890625 -70.863281 49.300781 -70.210938 49.28125 -69.046875 C 49.175781 -67.648438 49.15625 -66.257812 49.21875 -64.875 C 49.570312 -53.988281 49.96875 -43.085938 50.40625 -32.171875 C 50.53125 -27.378906 50.6875 -22.554688 50.875 -17.703125 C 50.894531 -17.359375 50.910156 -17.054688 50.921875 -16.796875 C 50.941406 -16.109375 50.96875 -15.414062 51 -14.71875 C 50.78125 -11.582031 49.203125 -10.429688 46.265625 -11.265625 C 45.117188 -11.554688 44.492188 -12.269531 44.390625 -13.40625 C 44.191406 -14.976562 44.09375 -16.566406 44.09375 -18.171875 C 43.644531 -28.015625 43.226562 -37.828125 42.84375 -47.609375 C 42.644531 -52.554688 42.445312 -57.457031 42.25 -62.3125 C 42.238281 -62.726562 42.222656 -63.140625 42.203125 -63.546875 C 42.160156 -64.710938 42.082031 -65.925781 41.96875 -67.1875 C 41.914062 -68.507812 41.679688 -69.367188 41.265625 -69.765625 C 40.859375 -70.160156 40.039062 -70.363281 38.8125 -70.375 C 38.25 -70.351562 37.726562 -70.332031 37.25 -70.3125 C 35.914062 -70.351562 34.617188 -70.410156 33.359375 -70.484375 C 32.242188 -70.566406 31.457031 -71.125 31 -72.15625 C 30.601562 -73.457031 30.910156 -74.554688 31.921875 -75.453125 C 33.265625 -76.617188 34.675781 -77.75 36.15625 -78.84375 C 36.757812 -79.28125 37.3125 -79.648438 37.8125 -79.953125 C 38.945312 -80.753906 39.765625 -81.410156 40.265625 -81.921875 C 40.773438 -82.429688 41.070312 -82.992188 41.15625 -83.609375 C 41.238281 -84.234375 41.253906 -85.207031 41.203125 -86.53125 C 41.078125 -87.289062 40.992188 -88.191406 40.953125 -89.234375 C 40.734375 -97.078125 40.46875 -104.957031 40.15625 -112.875 C 39.988281 -117.226562 39.816406 -121.628906 39.640625 -126.078125 C 39.628906 -126.140625 39.625 -126.25 39.625 -126.40625 C 39.5625 -127.925781 39.566406 -129.40625 39.640625 -130.84375 C 39.679688 -132.75 40.75 -133.710938 42.84375 -133.734375 C 44.84375 -133.878906 46.019531 -133.054688 46.375 -131.265625 C 46.582031 -129.453125 46.722656 -127.613281 46.796875 -125.75 C 46.984375 -121.007812 47.171875 -116.289062 47.359375 -111.59375 C 47.585938 -105.832031 47.863281 -100.113281 48.1875 -94.4375 C 48.101562 -94.019531 48.070312 -93.632812 48.09375 -93.28125 C 48.019531 -91.675781 48.34375 -89.847656 49.0625 -87.796875 C 53.53125 -90.609375 58.925781 -94.171875 65.25 -98.484375 C 71.570312 -102.804688 78.003906 -107.425781 84.546875 -112.34375 C 91.085938 -117.257812 96.867188 -122.144531 101.890625 -127 C 106.910156 -131.863281 110.351562 -136.300781 112.21875 -140.3125 C 114.1875 -144.914062 113.0625 -148.585938 108.84375 -151.328125 C 103.664062 -154.535156 97.0625 -156.132812 89.03125 -156.125 C 81.007812 -156.125 72.59375 -154.9375 63.78125 -152.5625 C 54.976562 -150.195312 46.828125 -147.066406 39.328125 -143.171875 C 31.835938 -139.273438 25.976562 -134.976562 21.75 -130.28125 C 20.425781 -128.757812 19.238281 -126.957031 18.1875 -124.875 C 17.144531 -122.789062 16.351562 -120.726562 15.8125 -118.6875 C 15.382812 -117.40625 14.476562 -116.632812 13.09375 -116.375 C 11.71875 -116.125 10.523438 -116.46875 9.515625 -117.40625 C 9.003906 -118.070312 8.832031 -118.820312 9 -119.65625 C 9.53125 -122.039062 10.53125 -124.242188 12 -126.265625 C 16.664062 -132.765625 23.429688 -138.550781 32.296875 -143.625 C 41.160156 -148.695312 50.832031 -152.65625 61.3125 -155.5 C 71.800781 -158.351562 81.804688 -159.757812 91.328125 -159.71875 C 100.847656 -159.6875 108.609375 -157.832031 114.609375 -154.15625 C 120.734375 -150.320312 122.21875 -145.132812 119.0625 -138.59375 C 117.457031 -135.34375 115.035156 -132.003906 111.796875 -128.578125 C 108.566406 -125.148438 105.117188 -121.882812 101.453125 -118.78125 C 97.796875 -115.675781 94.539062 -113 91.6875 -110.75 C 86.507812 -106.664062 81.1875 -102.71875 75.71875 -98.90625 C 70.25 -95.101562 64.726562 -91.394531 59.15625 -87.78125 C 59.03125 -87.707031 58.890625 -87.609375 58.734375 -87.484375 C 55.960938 -85.753906 53.253906 -83.960938 50.609375 -82.109375 C 48.742188 -80.585938 48.238281 -78.628906 49.09375 -76.234375 C 49.164062 -76.003906 49.332031 -75.773438 49.59375 -75.546875 C 49.851562 -75.328125 50.113281 -75.222656 50.375 -75.234375 C 51.507812 -75.054688 52.628906 -74.992188 53.734375 -75.046875 C 53.796875 -75.046875 53.890625 -75.046875 54.015625 -75.046875 C 69.046875 -75.222656 83.765625 -73.238281 98.171875 -69.09375 C 106.148438 -66.914062 113.644531 -63.554688 120.65625 -59.015625 C 124.863281 -56.273438 128.476562 -53.085938 131.5 -49.453125 C 134.519531 -45.816406 136.820312 -41.597656 138.40625 -36.796875 C 138.90625 -35.242188 139.453125 -34.304688 140.046875 -33.984375 C 140.640625 -33.660156 141.863281 -33.675781 143.71875 -34.03125 Z M 132.96875 -21.703125 C 133.144531 -24.554688 132.875 -26.285156 132.15625 -26.890625 C 131.4375 -27.492188 129.65625 -27.394531 126.8125 -26.59375 C 120.09375 -24.925781 112.515625 -22.671875 104.078125 -19.828125 C 95.648438 -16.984375 87 -13.578125 78.125 -9.609375 C 69.25 -5.640625 60.738281 -1.148438 52.59375 3.859375 C 44.457031 8.867188 37.320312 14.359375 31.1875 20.328125 C 25.0625 26.304688 20.539062 32.78125 17.625 39.75 C 15.53125 45.050781 14.675781 50.007812 15.0625 54.625 C 15.445312 59.238281 16.785156 63.175781 19.078125 66.4375 C 21.378906 69.707031 24.328125 71.972656 27.921875 73.234375 C 32.492188 74.785156 37.210938 75.546875 42.078125 75.515625 C 42.421875 75.503906 42.734375 75.457031 43.015625 75.375 C 43.710938 75.25 44.40625 75.171875 45.09375 75.140625 C 54.195312 73.910156 62.742188 71.082031 70.734375 66.65625 C 85.253906 58.71875 97.382812 48.753906 107.125 36.765625 C 116.875 24.773438 124.421875 10.992188 129.765625 -4.578125 C 131.640625 -10.148438 132.707031 -15.859375 132.96875 -21.703125 Z M 132.96875 -21.703125 "/></g></g></g><g fill="#010101" fill-opacity="1"><g transform="translate(863.741482, 221.387571)"><g><path d="M 47.984375 -25.734375 C 48.660156 -25.703125 48.570312 -24.742188 47.71875 -22.859375 C 46.875 -20.972656 45.429688 -18.785156 43.390625 -16.296875 C 41.359375 -13.816406 39.054688 -11.660156 36.484375 -9.828125 C 33.921875 -7.992188 31.332031 -7.101562 28.71875 -7.15625 C 26.75 -7.269531 25.28125 -7.796875 24.3125 -8.734375 C 23.351562 -9.679688 22.675781 -10.734375 22.28125 -11.890625 C 21.882812 -13.054688 21.617188 -14.082031 21.484375 -14.96875 C 21.398438 -15.59375 21.300781 -16.0625 21.1875 -16.375 C 21.082031 -16.6875 20.894531 -16.695312 20.625 -16.40625 C 18.78125 -11.6875 15.367188 -9.226562 10.390625 -9.03125 C 7.617188 -8.925781 5.316406 -10.066406 3.484375 -12.453125 C 1.648438 -14.835938 0.429688 -17.875 -0.171875 -21.5625 C -0.773438 -25.257812 -0.566406 -29.035156 0.453125 -32.890625 C 0.679688 -34.171875 1.421875 -35.066406 2.671875 -35.578125 C 3.535156 -35.972656 4.445312 -35.984375 5.40625 -35.609375 C 6.375 -35.234375 6.90625 -34.632812 7 -33.8125 C 7.03125 -32.957031 7 -32.125 6.90625 -31.3125 C 6.78125 -30.664062 6.695312 -30.0625 6.65625 -29.5 C 6.625 -27.21875 6.757812 -24.722656 7.0625 -22.015625 C 7.375 -19.316406 8.179688 -17.03125 9.484375 -15.15625 C 10.734375 -13.65625 12.0625 -13.507812 13.46875 -14.71875 C 14.882812 -15.925781 16.09375 -17.765625 17.09375 -20.234375 C 17.875 -22.203125 18.472656 -24.148438 18.890625 -26.078125 C 19.304688 -28.003906 19.554688 -29.488281 19.640625 -30.53125 C 19.742188 -30.96875 19.796875 -31.25 19.796875 -31.375 C 19.972656 -32.207031 20.160156 -33.023438 20.359375 -33.828125 C 20.660156 -35.003906 20.960938 -36.15625 21.265625 -37.28125 C 21.785156 -39.445312 23.265625 -40.40625 25.703125 -40.15625 C 27.191406 -40.082031 28.019531 -39.382812 28.1875 -38.0625 C 28.382812 -36.28125 28.488281 -34.484375 28.5 -32.671875 C 28.507812 -30.785156 28.492188 -28.941406 28.453125 -27.140625 C 28.390625 -24.515625 28.378906 -21.90625 28.421875 -19.3125 C 28.503906 -15.5625 29.335938 -13.410156 30.921875 -12.859375 C 32.503906 -12.304688 34.394531 -12.78125 36.59375 -14.28125 C 38.789062 -15.789062 40.882812 -17.804688 42.875 -20.328125 C 43.0625 -20.546875 43.289062 -20.832031 43.5625 -21.1875 C 43.945312 -21.75 44.425781 -22.375 45 -23.0625 C 45.570312 -23.75 46.125 -24.347656 46.65625 -24.859375 C 47.1875 -25.367188 47.628906 -25.660156 47.984375 -25.734375 Z M 47.984375 -25.734375 "/></g></g></g><g fill="#010101" fill-opacity="1"><g transform="translate(909.863451, 219.559393)"><g><path d="M 23.796875 -20.171875 C 22.898438 -18.117188 21.320312 -15.816406 19.0625 -13.265625 C 16.8125 -10.722656 14.207031 -9.054688 11.25 -8.265625 C 8.300781 -7.484375 5.414062 -8.394531 2.59375 -11 C 1.507812 -12.15625 0.691406 -13.503906 0.140625 -15.046875 C -0.410156 -16.585938 -0.65625 -18.113281 -0.59375 -19.625 C -0.601562 -20.039062 -0.625 -20.5625 -0.65625 -21.1875 C -0.71875 -22.800781 -0.71875 -24.664062 -0.65625 -26.78125 C -0.601562 -28.90625 -0.367188 -30.828125 0.046875 -32.546875 C 0.472656 -34.265625 1.203125 -35.316406 2.234375 -35.703125 C 5.203125 -36.585938 6.867188 -35.613281 7.234375 -32.78125 C 7.265625 -31.875 7.269531 -30.957031 7.25 -30.03125 C 7.195312 -29.5625 7.179688 -29.125 7.203125 -28.71875 C 7.191406 -27.394531 7.179688 -26.066406 7.171875 -24.734375 C 7.210938 -23.691406 7.207031 -22.644531 7.15625 -21.59375 C 7.269531 -17.019531 8.398438 -14.335938 10.546875 -13.546875 C 12.691406 -12.765625 15.066406 -13.785156 17.671875 -16.609375 C 20.273438 -19.441406 21.960938 -21.769531 22.734375 -23.59375 C 23.503906 -25.425781 24.097656 -25.828125 24.515625 -24.796875 C 24.929688 -23.773438 24.691406 -22.234375 23.796875 -20.171875 Z M 6.109375 -45.640625 C 5.710938 -45.265625 5.222656 -45.019531 4.640625 -44.90625 C 4.054688 -44.789062 3.539062 -44.816406 3.09375 -44.984375 C 2.738281 -45.253906 2.503906 -45.613281 2.390625 -46.0625 C 2.285156 -46.519531 2.21875 -47.066406 2.1875 -47.703125 C 2.1875 -47.828125 2.210938 -47.957031 2.265625 -48.09375 C 2.304688 -48.664062 2.425781 -49.234375 2.625 -49.796875 C 3.1875 -51.335938 4.46875 -52.085938 6.46875 -52.046875 C 7.164062 -51.960938 7.71875 -51.691406 8.125 -51.234375 C 8.539062 -50.785156 8.648438 -50.238281 8.453125 -49.59375 C 8.046875 -48.050781 7.265625 -46.734375 6.109375 -45.640625 Z M 6.109375 -45.640625 "/></g></g></g><g fill="#010101" fill-opacity="1"><g transform="translate(933.089993, 218.638742)"><g><path d="M 33.28125 -23.40625 C 33.757812 -24.71875 34.3125 -25.382812 34.9375 -25.40625 C 35.570312 -25.425781 35.804688 -24.789062 35.640625 -23.5 C 34.722656 -20.238281 33.597656 -17.101562 32.265625 -14.09375 C 30.929688 -11.09375 29.070312 -8.375 26.6875 -5.9375 C 24.863281 -3.96875 22.65625 -2.664062 20.0625 -2.03125 C 16.507812 -1.375 13.546875 -1.679688 11.171875 -2.953125 C 8.804688 -4.222656 6.894531 -6.097656 5.4375 -8.578125 C 3.976562 -11.054688 2.859375 -13.785156 2.078125 -16.765625 C 1.296875 -19.753906 0.753906 -22.671875 0.453125 -25.515625 C -0.265625 -30.847656 -0.910156 -37.878906 -1.484375 -46.609375 C -2.066406 -55.335938 -2.347656 -64.578125 -2.328125 -74.328125 C -2.304688 -84.085938 -1.707031 -93.160156 -0.53125 -101.546875 C 0.632812 -109.941406 2.570312 -116.484375 5.28125 -121.171875 C 6.863281 -123.472656 8.765625 -124.679688 10.984375 -124.796875 C 13.210938 -124.921875 15.238281 -123.972656 17.0625 -121.953125 C 18.289062 -120.398438 19.238281 -118.734375 19.90625 -116.953125 C 20.582031 -115.171875 21.050781 -113.359375 21.3125 -111.515625 C 22.195312 -105.148438 22.382812 -98.394531 21.875 -91.25 C 21.363281 -84.101562 20.414062 -76.457031 19.03125 -68.3125 C 17.65625 -60.175781 15.90625 -52.984375 13.78125 -46.734375 C 11.65625 -40.492188 9.878906 -35.546875 8.453125 -31.890625 C 7.660156 -30.398438 7.4375 -28.195312 7.78125 -25.28125 C 8.1875 -22.101562 8.921875 -18.796875 9.984375 -15.359375 C 11.046875 -11.929688 12.453125 -9.242188 14.203125 -7.296875 C 15.847656 -5.691406 17.632812 -5.242188 19.5625 -5.953125 C 21.5 -6.660156 23.394531 -8.054688 25.25 -10.140625 C 27.113281 -12.234375 28.738281 -14.5 30.125 -16.9375 C 31.507812 -19.382812 32.5625 -21.539062 33.28125 -23.40625 Z M 6.15625 -70.78125 C 6.039062 -68.695312 5.976562 -65.546875 5.96875 -61.328125 C 5.96875 -57.109375 5.976562 -52.820312 6 -48.46875 C 6.0625 -43.613281 6.070312 -39.820312 6.03125 -37.09375 C 7.425781 -40.625 9.015625 -45.738281 10.796875 -52.4375 C 12.585938 -59.144531 14.148438 -67.023438 15.484375 -76.078125 C 16.816406 -85.128906 17.53125 -94.90625 17.625 -105.40625 C 17.09375 -111.507812 16.191406 -115.625 14.921875 -117.75 C 13.648438 -119.882812 12.359375 -120.023438 11.046875 -118.171875 C 9.734375 -116.316406 8.78125 -112.488281 8.1875 -106.6875 C 7.300781 -97.082031 6.703125 -87.472656 6.390625 -77.859375 C 6.296875 -75.484375 6.21875 -73.125 6.15625 -70.78125 Z M 6.15625 -70.78125 "/></g></g></g><g fill="#010101" fill-opacity="1"><g transform="translate(966.723582, 217.305577)"><g><path d="M 73.296875 -26.03125 C 73.554688 -26.570312 73.976562 -26.867188 74.5625 -26.921875 C 75.144531 -26.984375 75.65625 -26.640625 76.09375 -25.890625 C 76.269531 -25.710938 76.144531 -25.179688 75.71875 -24.296875 C 75.289062 -23.410156 74.71875 -22.410156 74 -21.296875 C 73.289062 -20.179688 72.601562 -19.15625 71.9375 -18.21875 C 71.28125 -17.289062 70.820312 -16.679688 70.5625 -16.390625 C 67.582031 -12.796875 64.546875 -10.125 61.453125 -8.375 C 58.359375 -6.625 54.945312 -6.140625 51.21875 -6.921875 C 47.5 -7.710938 43.269531 -10.175781 38.53125 -14.3125 C 37.800781 -15.039062 37.070312 -15.769531 36.34375 -16.5 C 36.144531 -16.71875 35.960938 -16.914062 35.796875 -17.09375 C 35.003906 -17.914062 34.160156 -17.992188 33.265625 -17.328125 C 32.347656 -16.585938 31.421875 -15.859375 30.484375 -15.140625 C 29.648438 -14.460938 28.804688 -13.84375 27.953125 -13.28125 C 25.097656 -11.15625 22.070312 -9.332031 18.875 -7.8125 C 15.46875 -6.125 11.851562 -5.378906 8.03125 -5.578125 C 2.039062 -6.035156 -1.179688 -9.207031 -1.640625 -15.09375 C -1.867188 -19.25 -1.125 -23.007812 0.59375 -26.375 C 2.3125 -29.75 4.785156 -32.28125 8.015625 -33.96875 C 11.242188 -35.664062 15.019531 -36.128906 19.34375 -35.359375 C 19.820312 -35.273438 20.460938 -35.148438 21.265625 -34.984375 C 21.742188 -34.847656 22.332031 -34.734375 23.03125 -34.640625 C 22.582031 -35.597656 22.171875 -36.453125 21.796875 -37.203125 C 21.109375 -38.441406 20.507812 -39.570312 20 -40.59375 C 16.894531 -46.382812 14.289062 -53.03125 12.1875 -60.53125 C 10.082031 -68.039062 8.890625 -75.785156 8.609375 -83.765625 C 8.328125 -91.742188 9.367188 -99.222656 11.734375 -106.203125 C 14.097656 -113.179688 18.25 -119.019531 24.1875 -123.71875 C 27.957031 -126.488281 31.90625 -128.066406 36.03125 -128.453125 C 40.164062 -128.835938 44.109375 -128.09375 47.859375 -126.21875 C 51.609375 -124.34375 54.710938 -121.429688 57.171875 -117.484375 C 60.359375 -112.054688 62.421875 -106.273438 63.359375 -100.140625 C 65.015625 -90.265625 65.175781 -80.988281 63.84375 -72.3125 C 62.507812 -63.644531 59.878906 -55.390625 55.953125 -47.546875 C 52.023438 -39.710938 46.945312 -32.0625 40.71875 -24.59375 C 40.113281 -23.875 39.804688 -23.304688 39.796875 -22.890625 C 39.785156 -22.484375 40.101562 -21.910156 40.75 -21.171875 C 42.144531 -19.492188 43.65625 -17.863281 45.28125 -16.28125 C 46.914062 -14.707031 48.710938 -13.410156 50.671875 -12.390625 C 53.429688 -11.328125 56.335938 -11.421875 59.390625 -12.671875 C 62.441406 -13.929688 65.234375 -15.8125 67.765625 -18.3125 C 70.296875 -20.8125 72.140625 -23.382812 73.296875 -26.03125 Z M 27.078125 -20.03125 C 27.859375 -20.757812 27.890625 -21.546875 27.171875 -22.390625 C 26.734375 -22.878906 26.300781 -23.382812 25.875 -23.90625 C 24.6875 -25.257812 23.335938 -26.640625 21.828125 -28.046875 C 20.316406 -29.453125 18.765625 -30.5 17.171875 -31.1875 C 15.578125 -31.882812 13.988281 -31.882812 12.40625 -31.1875 C 10.226562 -30.0625 8.484375 -28.148438 7.171875 -25.453125 C 5.867188 -22.765625 5.144531 -20.023438 5 -17.234375 C 4.851562 -14.453125 5.472656 -12.363281 6.859375 -10.96875 C 8.242188 -9.582031 10.503906 -9.53125 13.640625 -10.8125 C 18.578125 -13.226562 23.054688 -16.300781 27.078125 -20.03125 Z M 37.15625 -30.703125 C 43.5 -38.816406 48.164062 -46.738281 51.15625 -54.46875 C 54.15625 -62.207031 56.039062 -71.191406 56.8125 -81.421875 C 57.050781 -83.921875 57.070312 -87.1875 56.875 -91.21875 C 56.6875 -95.257812 56.160156 -99.46875 55.296875 -103.84375 C 54.429688 -108.21875 53.023438 -112.171875 51.078125 -115.703125 C 49.128906 -119.242188 46.507812 -121.75 43.21875 -123.21875 C 39.925781 -124.6875 35.785156 -124.507812 30.796875 -122.6875 C 25.390625 -119.21875 21.453125 -114.742188 18.984375 -109.265625 C 16.515625 -103.785156 15.21875 -97.742188 15.09375 -91.140625 C 14.976562 -84.535156 15.679688 -77.816406 17.203125 -70.984375 C 18.722656 -64.160156 20.71875 -57.707031 23.1875 -51.625 C 25.65625 -45.550781 28.25 -40.28125 30.96875 -35.8125 C 31.289062 -35.25 31.601562 -34.691406 31.90625 -34.140625 C 32.738281 -32.304688 33.910156 -30.664062 35.421875 -29.21875 C 35.628906 -29.414062 35.835938 -29.597656 36.046875 -29.765625 C 36.453125 -30.035156 36.820312 -30.347656 37.15625 -30.703125 Z M 37.15625 -30.703125 "/></g></g></g></g></g></g><g clip-path="url(#a327728024)"><g clip-path="url(#ec30092b2a)"><g clip-path="url(#3ae6617435)"><g clip-path="url(#5890d4e1a4)"><path fill="#000000" d="M 1024.121094 274.570312 C 1024.003906 274.707031 1023.886719 274.847656 1023.769531 274.984375 C 1022.785156 275.300781 1021.746094 275.558594 1020.730469 275.757812 C 1020.03125 275.886719 1020.167969 275.828125 1019.269531 276.03125 C 1015.625 276.847656 1012.136719 277.785156 1008.53125 278.734375 C 1009.457031 278.636719 1010.382812 278.542969 1011.308594 278.449219 C 1008.996094 278.914062 1006.679688 279.375 1004.367188 279.835938 C 1004.066406 279.78125 1003.765625 279.730469 1003.464844 279.675781 C 1004.910156 279.28125 1006.359375 278.886719 1007.804688 278.484375 C 1004.898438 279.003906 1001.722656 279.761719 998.839844 280.457031 C 997.492188 280.8125 996.140625 281.164062 994.789062 281.515625 C 995.0625 281.53125 995.335938 281.542969 995.613281 281.558594 C 992.078125 282.292969 988.550781 283.027344 985.015625 283.761719 C 977.273438 285.5 969.53125 287.230469 961.785156 288.960938 C 964.289062 288.507812 966.789062 288.058594 969.292969 287.609375 C 965.332031 288.492188 961.371094 289.378906 957.398438 290.21875 C 945.597656 292.742188 933.726562 295.441406 921.96875 298.167969 C 919.871094 298.65625 917.773438 299.144531 915.679688 299.636719 C 918.1875 298.964844 899.734375 303.308594 896.027344 304.195312 C 891.75 305.222656 853.152344 314.5625 853.167969 314.632812 C 840.742188 317.796875 828.324219 321.09375 815.898438 324.21875 C 807.339844 326.320312 798.773438 328.464844 790.199219 330.492188 C 778.128906 333.398438 765.890625 336.574219 753.925781 339.886719 C 752.308594 340.339844 750.695312 340.796875 749.082031 341.253906 C 735.074219 345.117188 721.179688 349.148438 707.289062 353.425781 C 689.726562 358.90625 672.402344 364.621094 655.53125 372.007812 C 649.769531 374.605469 644.382812 377.234375 639.097656 380.734375 C 637.054688 382.128906 635.316406 383.457031 633.554688 385.207031 C 631.929688 386.882812 630.8125 388.335938 629.910156 390.511719 C 629.546875 391.554688 629.457031 392.320312 629.660156 393.410156 C 629.785156 393.984375 629.941406 394.421875 630.222656 394.929688 C 630.628906 395.628906 631.039062 396.09375 631.683594 396.582031 C 632.425781 397.105469 633.074219 397.367188 633.96875 397.515625 C 638.011719 397.863281 641.855469 397.605469 645.878906 397.265625 C 650.691406 396.859375 655.492188 396.261719 660.273438 395.5625 C 664.421875 394.941406 668.5625 394.269531 672.699219 393.570312 C 675.691406 393.015625 678.679688 392.449219 681.664062 391.871094 C 684.878906 391.359375 688.089844 390.828125 691.300781 390.289062 C 690.125 390.632812 688.949219 390.976562 687.773438 391.324219 C 690.28125 391.050781 693.367188 390.378906 695.882812 389.882812 C 697.417969 389.558594 698.949219 389.234375 700.480469 388.90625 C 700.492188 388.980469 700.503906 389.054688 700.519531 389.125 C 703.632812 388.835938 704.988281 388.585938 708.296875 387.910156 C 717.414062 386.019531 710.292969 387.210938 706.242188 387.75 C 708.492188 387.207031 710.742188 386.660156 712.992188 386.113281 C 718.011719 385.140625 723.027344 384.152344 728.039062 383.152344 C 737.542969 381.113281 747.113281 379.210938 756.636719 377.257812 C 763.84375 375.78125 771.042969 374.285156 778.238281 372.773438 C 784.039062 371.492188 789.835938 370.199219 795.632812 368.902344 C 802.097656 367.539062 808.558594 366.167969 815.015625 364.789062 C 819.535156 363.902344 824.050781 362.972656 828.558594 362.039062 C 831.898438 361.132812 835.269531 360.308594 838.648438 359.554688 C 844.230469 358.332031 849.785156 356.972656 855.371094 355.738281 C 859.671875 354.789062 863.882812 353.640625 868.164062 352.628906 C 872.128906 351.691406 876.117188 350.769531 880.0625 349.753906 C 880.699219 349.578125 884.359375 348.453125 884.601562 347.867188 C 884.585938 347.796875 884.566406 347.722656 884.550781 347.652344 C 885.199219 344.410156 886.984375 341.585938 890.089844 340.269531 C 892.359375 339.519531 894.648438 338.84375 896.914062 338.097656 C 899.347656 337.210938 902.863281 335.429688 905.117188 334.105469 C 905.753906 333.757812 909.152344 332.566406 908.652344 332.074219 C 908.351562 331.503906 911.308594 330.339844 911.808594 330.132812 C 909.625 330.398438 912.976562 329.648438 913.164062 329.605469 C 913.609375 329.507812 920.175781 327.910156 916.296875 328.6875 C 913.628906 329.246094 910.957031 329.875 908.3125 330.542969 C 907.246094 330.769531 902.925781 331.746094 902.21875 331.722656 C 902.1875 331.589844 902.753906 331.554688 902.1875 331.589844 C 901.683594 331.609375 903.027344 331.304688 901.503906 331.644531 C 900.039062 331.96875 898.550781 332.289062 897.125 332.761719 C 895.351562 333.347656 893.582031 333.675781 891.738281 333.964844 C 890.753906 334.121094 889.773438 334.28125 888.789062 334.441406 C 888.113281 334.421875 886.40625 334.890625 885.765625 335.070312 C 883.738281 335.644531 881.703125 336.203125 879.667969 336.757812 C 875.761719 337.578125 871.816406 338.417969 867.941406 339.367188 C 866.082031 339.824219 865.324219 339.835938 863.503906 340.164062 C 860.96875 340.628906 858.59375 341.207031 856.097656 341.804688 C 852.664062 342.625 849.214844 343.394531 845.792969 344.265625 C 839.136719 345.878906 832.378906 347.359375 825.683594 348.847656 C 817.976562 350.546875 810.304688 352.195312 802.613281 353.980469 C 797.949219 355.0625 793.25 356.320312 788.515625 357.042969 C 784.179688 357.722656 779.765625 358.667969 775.472656 359.609375 C 768.957031 360.976562 762.4375 362.335938 755.914062 363.675781 C 749.273438 365.066406 760.847656 363.042969 761.5625 362.925781 C 755.847656 364.109375 750.09375 365.355469 744.34375 366.355469 C 739.449219 367.253906 734.523438 368.296875 729.648438 369.300781 C 725.886719 370.035156 722.125 370.757812 718.359375 371.476562 C 715.398438 372.15625 712.425781 372.800781 709.453125 373.410156 C 705.652344 374.179688 701.851562 374.9375 698.046875 375.679688 C 683.445312 378.472656 648.976562 385.453125 635.488281 384.746094 C 637.011719 384.964844 637.96875 385.296875 639.234375 386.191406 C 640.183594 386.910156 640.796875 387.597656 641.394531 388.625 C 641.8125 389.378906 642.039062 390.015625 642.226562 390.863281 C 642.5 392.347656 642.417969 393.535156 641.945312 394.972656 C 641.917969 395.328125 641.695312 395.425781 641.898438 395.171875 C 641.980469 395.066406 642.648438 394.304688 642.679688 394.320312 C 642.683594 394.324219 642.765625 394.238281 642.777344 394.230469 C 643.859375 393.171875 645.027344 392.3125 646.273438 391.460938 C 650.867188 388.410156 655.734375 386.070312 660.746094 383.808594 C 662.304688 383.113281 663.863281 382.4375 665.4375 381.777344 C 672.054688 378.972656 678.804688 376.4375 685.578125 374.035156 C 694.027344 371.066406 702.488281 368.320312 711.042969 365.65625 C 716.683594 363.90625 722.332031 362.207031 728 360.539062 C 726.808594 360.960938 725.617188 361.386719 724.429688 361.8125 C 732.964844 359.214844 741.542969 356.65625 750.148438 354.292969 C 755.4375 352.84375 760.742188 351.4375 766.023438 349.96875 C 772.054688 348.273438 778.1875 346.886719 784.214844 345.164062 C 801.867188 340.265625 819.992188 335.738281 837.800781 331.40625 C 843.898438 329.9375 849.988281 328.460938 856.085938 327.003906 C 911.878906 313.820312 973.8125 302.128906 1028.292969 287.136719 C 1027.023438 287.582031 1025.742188 288.003906 1024.460938 288.410156 C 1025.992188 288.007812 1027.519531 287.59375 1029.046875 287.175781 C 1030.382812 286.8125 1031.746094 286.449219 1033.0625 286.019531 C 1033.730469 285.777344 1034.402344 285.511719 1035.035156 285.1875 C 1043.105469 281.253906 1036.445312 271.949219 1038.628906 276.023438 C 1039.734375 280.378906 1038.636719 283.65625 1034.46875 285.246094 C 1041.613281 282.007812 1039.53125 272 1031.125 272.019531 C 1030.25 272.03125 1029.378906 272.105469 1028.503906 272.183594 C 1028.492188 272.101562 1011.398438 273.839844 1009.585938 274.019531 C 989.050781 276.214844 967.597656 279.398438 947.222656 282.363281 C 918.855469 286.75 888.855469 291.445312 860.730469 297.484375 C 854.75 298.636719 848.773438 299.808594 842.800781 300.996094 C 838.167969 301.859375 833.539062 302.730469 828.914062 303.613281 C 821.644531 305.015625 814.378906 306.4375 807.121094 307.886719 C 804.75 308.453125 802.382812 309.023438 800.015625 309.59375 C 795.878906 310.480469 791.742188 311.371094 787.609375 312.257812 C 783.777344 313.074219 779.929688 313.851562 776.109375 314.722656 C 763.535156 317.589844 750.964844 320.449219 738.402344 323.386719 C 736.554688 323.738281 734.707031 324.09375 732.859375 324.449219 C 723.839844 326.550781 714.828125 328.695312 705.8125 330.8125 C 693.359375 333.714844 680.921875 336.847656 668.511719 339.9375 C 642.363281 346.410156 616.152344 352.941406 590.117188 359.859375 C 581.292969 362.269531 572.304688 364.242188 563.476562 366.699219 C 557.675781 368.316406 551.894531 369.855469 546.078125 371.414062 C 545.3125 372.058594 542.808594 372.808594 541.882812 373.074219 C 530.742188 376.179688 519.558594 379.203125 508.464844 382.464844 C 499.585938 385.066406 490.582031 387.402344 481.742188 390.117188 C 470.253906 393.566406 458.695312 396.949219 447.175781 400.296875 C 427.820312 405.90625 408.3125 411.019531 389.117188 417.179688 C 387.671875 417.644531 375.265625 421.609375 383.480469 418.808594 C 381.585938 419.375 379.691406 419.941406 377.800781 420.507812 C 373.234375 421.800781 368.675781 423.097656 364.117188 424.40625 C 361.832031 424.976562 359.546875 425.550781 357.261719 426.121094 C 356.746094 426.277344 350.332031 428.167969 352.109375 427.84375 C 354.722656 427.25 357.472656 426.414062 360.050781 425.644531 C 366.378906 430.667969 397.253906 426.328125 404.121094 425.371094 C 409.421875 423.695312 418.316406 420.632812 423.429688 419.738281 C 426.59375 419.386719 432.546875 417.480469 435.777344 416.554688 C 439.40625 415.515625 443.011719 414.394531 446.648438 413.359375 C 454.070312 411.25 461.507812 409.101562 468.972656 407.15625 C 478.742188 404.519531 488.578125 401.328125 498.371094 398.554688 C 518.289062 392.960938 538.125 387.210938 558.140625 381.953125 C 571.695312 378.390625 585.257812 374.832031 598.804688 371.238281 C 594.09375 372.625 589.386719 374.015625 584.679688 375.414062 C 594.753906 372.8125 604.828125 370.199219 614.882812 367.53125 C 621.480469 365.773438 628.101562 364.015625 634.726562 362.371094 C 637.742188 361.71875 640.757812 361.0625 643.773438 360.414062 C 667.871094 354.464844 692.09375 348.753906 716.136719 342.640625 C 721.550781 341.234375 726.941406 339.804688 732.367188 338.457031 C 738.320312 337 744.304688 335.660156 750.324219 334.492188 C 758.671875 332.589844 767.023438 330.707031 775.390625 328.878906 C 780.734375 327.710938 786.078125 326.5 791.402344 325.25 C 803.648438 322.550781 815.910156 319.914062 828.1875 317.34375 C 833.332031 316.355469 838.476562 315.363281 843.621094 314.355469 C 868.417969 309.472656 893.28125 304.886719 918.21875 300.738281 C 927.515625 299.183594 936.824219 297.59375 946.109375 295.945312 C 948.617188 295.566406 951.125 295.195312 953.632812 294.828125 C 964.289062 293.148438 974.964844 291.574219 985.65625 290.132812 C 990.8125 289.402344 997.066406 288.433594 1002.1875 288.214844 C 1005.351562 288.183594 1008.398438 287.792969 1011.554688 287.515625 C 1017.109375 287.027344 1022.660156 286.554688 1028.214844 286.113281 C 1028.671875 286.058594 1029.128906 286.007812 1029.585938 285.957031 C 1035.785156 284.964844 1020.574219 285.042969 1027.605469 274.132812 C 1030.878906 271.367188 1028.816406 273.320312 1024.121094 274.570312 Z M 1024.121094 274.570312 " fill-opacity="1" fill-rule="nonzero"/></g></g></g></g></g></g></svg>