<svg xmlns="http://www.w3.org/2000/svg" xmlns:xlink="http://www.w3.org/1999/xlink" width="2000" zoomAndPan="magnify" viewBox="0 0 1500 1499.999933" height="2000" preserveAspectRatio="xMidYMid meet" version="1.0"><defs><g/><clipPath id="33255ea885"><path d="M 466 879 L 1477 879 L 1477 1109 L 466 1109 Z M 466 879 " clip-rule="nonzero"/></clipPath><clipPath id="bb73fcf183"><path d="M 456.476562 1087.847656 L 1476.164062 853.597656 L 1495.140625 936.195312 L 475.449219 1170.449219 Z M 456.476562 1087.847656 " clip-rule="nonzero"/></clipPath><clipPath id="06db45208e"><path d="M 456.476562 1087.847656 L 1476.164062 853.597656 L 1495.140625 936.195312 L 475.449219 1170.449219 Z M 456.476562 1087.847656 " clip-rule="nonzero"/></clipPath><clipPath id="38d7eeea48"><path d="M 456.476562 1087.847656 L 1476.164062 853.597656 L 1495.140625 936.195312 L 475.449219 1170.449219 Z M 456.476562 1087.847656 " clip-rule="nonzero"/></clipPath></defs><g fill="#010101" fill-opacity="1"><g transform="translate(54.944177, 875.876137)"><g><path d="M 124.265625 -244.90625 C 134.773438 -242.71875 143.425781 -236.882812 150.21875 -227.40625 C 157.625 -216.707031 162.207031 -205.660156 163.96875 -194.265625 C 164.414062 -190.691406 162.820312 -188.910156 159.1875 -188.921875 C 155.632812 -188.890625 153.132812 -190.71875 151.6875 -194.40625 C 151.039062 -196.25 150.472656 -198.078125 149.984375 -199.890625 C 149.671875 -201.128906 149.332031 -202.367188 148.96875 -203.609375 C 146.476562 -211.304688 142.570312 -218.546875 137.25 -225.328125 C 130.382812 -234.117188 122.128906 -238.5625 112.484375 -238.65625 C 105.722656 -238.488281 99.582031 -237.019531 94.0625 -234.25 C 79.332031 -227.257812 66.734375 -217.109375 56.265625 -203.796875 C 45.796875 -190.484375 37.285156 -175.09375 30.734375 -157.625 C 24.179688 -140.164062 19.460938 -121.75 16.578125 -102.375 C 13.703125 -83.007812 12.378906 -63.78125 12.609375 -44.6875 C 12.847656 -25.601562 14.492188 -7.734375 17.546875 8.921875 C 20.609375 25.578125 24.835938 39.878906 30.234375 51.828125 C 35.640625 63.785156 41.847656 72.878906 48.859375 79.109375 C 55.878906 85.347656 64.210938 87.171875 73.859375 84.578125 C 83.503906 81.984375 95.015625 69.269531 108.390625 46.4375 C 121.765625 23.601562 132.820312 -16.257812 141.5625 -73.15625 C 142.050781 -75.195312 141.90625 -76.578125 141.125 -77.296875 C 140.34375 -78.023438 138.753906 -78.34375 136.359375 -78.25 C 136.253906 -78.25 136.097656 -78.242188 135.890625 -78.234375 C 135.421875 -78.210938 134.953125 -78.140625 134.484375 -78.015625 C 130.273438 -77.585938 125.992188 -77.132812 121.640625 -76.65625 C 110.335938 -75.375 99.023438 -74.113281 87.703125 -72.875 C 84.546875 -72.644531 81.347656 -72.519531 78.109375 -72.5 C 78.003906 -72.5 77.953125 -72.5 77.953125 -72.5 C 77.171875 -72.570312 76.441406 -72.828125 75.765625 -73.265625 C 75.097656 -73.710938 74.597656 -74.269531 74.265625 -74.9375 C 73.867188 -75.59375 73.75 -76.238281 73.90625 -76.875 C 74.0625 -77.507812 74.472656 -77.96875 75.140625 -78.25 C 75.710938 -78.375 76.28125 -78.550781 76.84375 -78.78125 C 78.894531 -79.695312 80.984375 -80.304688 83.109375 -80.609375 C 94.191406 -82.296875 103.726562 -83.53125 111.71875 -84.3125 C 119.71875 -85.101562 130.398438 -86.816406 143.765625 -89.453125 C 157.128906 -92.097656 163.804688 -86.394531 163.796875 -72.34375 C 163.785156 -58.300781 164.773438 -43.085938 166.765625 -26.703125 C 168.066406 -17.691406 169.414062 -8.675781 170.8125 0.34375 C 172.320312 9.457031 173.988281 18.617188 175.8125 27.828125 C 176.539062 31.585938 177.316406 35.410156 178.140625 39.296875 C 178.335938 40.171875 178.554688 41.019531 178.796875 41.84375 C 178.929688 42.71875 179.144531 43.566406 179.4375 44.390625 C 180.132812 47.335938 179.15625 48.914062 176.5 49.125 C 172.96875 49.625 170.453125 48.472656 168.953125 45.671875 C 168.097656 43.984375 167.347656 42.21875 166.703125 40.375 C 166.585938 40.164062 166.472656 39.882812 166.359375 39.53125 C 161.253906 26.550781 157.925781 13.628906 156.375 0.765625 C 155.195312 -7.796875 154.046875 -16.40625 152.921875 -25.0625 C 152.285156 -29.3125 151.648438 -33.53125 151.015625 -37.71875 C 149.804688 -36.625 148.960938 -35.414062 148.484375 -34.09375 C 148.015625 -32.78125 147.757812 -31.421875 147.71875 -30.015625 C 147.632812 -29.335938 147.503906 -28.65625 147.328125 -27.96875 C 139.066406 1.601562 129.484375 27.039062 118.578125 48.34375 C 107.679688 69.644531 95.753906 83.875 82.796875 91.03125 C 69.835938 98.195312 58.414062 99.390625 48.53125 94.609375 C 38.65625 89.835938 29.988281 80.75 22.53125 67.34375 C 15.070312 53.9375 9.125 37.71875 4.6875 18.6875 C 0.257812 -0.332031 -2.410156 -20.796875 -3.328125 -42.703125 C -4.253906 -64.609375 -3.117188 -86.488281 0.078125 -108.34375 C 3.273438 -130.207031 8.820312 -150.632812 16.71875 -169.625 C 24.625 -188.625 35.140625 -204.753906 48.265625 -218.015625 C 61.390625 -231.273438 77.378906 -240.234375 96.234375 -244.890625 C 105.003906 -246.960938 114.347656 -246.96875 124.265625 -244.90625 Z M 124.265625 -244.90625 "/></g></g></g><g fill="#010101" fill-opacity="1"><g transform="translate(233.757548, 868.788351)"><g><path d="M 73.734375 -40.6875 C 74.859375 -41.40625 75.957031 -41.96875 77.03125 -42.375 C 78.113281 -42.78125 78.832031 -42.78125 79.1875 -42.375 C 79.539062 -41.976562 79.125 -41.023438 77.9375 -39.515625 C 74.207031 -34.878906 69.695312 -30.59375 64.40625 -26.65625 C 59.113281 -22.726562 53.660156 -19.375 48.046875 -16.59375 C 43.648438 -14.382812 38.992188 -12.585938 34.078125 -11.203125 C 29.160156 -9.816406 24.25 -9.359375 19.34375 -9.828125 C 14.445312 -10.304688 9.929688 -12.289062 5.796875 -15.78125 C -0.523438 -21.164062 -3.328125 -27.9375 -2.609375 -36.09375 C -1.972656 -42.570312 0.320312 -48.144531 4.28125 -52.8125 C 8.238281 -57.476562 13.332031 -60.742188 19.5625 -62.609375 C 24.769531 -63.960938 30.019531 -64.300781 35.3125 -63.625 C 37.71875 -63.351562 39.9375 -62.628906 41.96875 -61.453125 C 43.84375 -60.117188 44.90625 -58.519531 45.15625 -56.65625 C 45.414062 -54.789062 44.773438 -52.96875 43.234375 -51.1875 C 40.015625 -48.09375 36.234375 -46.171875 31.890625 -45.421875 C 27.035156 -44.398438 22.140625 -43.6875 17.203125 -43.28125 C 14.804688 -43.1875 13.144531 -42.625 12.21875 -41.59375 C 11.300781 -40.570312 10.8125 -38.863281 10.75 -36.46875 C 10.21875 -29.9375 12.507812 -24.710938 17.625 -20.796875 C 20.789062 -18.460938 24.566406 -17.566406 28.953125 -18.109375 C 33.335938 -18.648438 37.957031 -20.019531 42.8125 -22.21875 C 47.664062 -24.414062 52.410156 -26.945312 57.046875 -29.8125 C 61.679688 -32.675781 65.847656 -35.382812 69.546875 -37.9375 C 71.117188 -39.039062 72.515625 -39.957031 73.734375 -40.6875 Z M 18.953125 -52.40625 C 18.960938 -52.300781 18.890625 -52.25 18.734375 -52.25 C 18.523438 -52.03125 18.257812 -51.769531 17.9375 -51.46875 C 17.613281 -51.164062 17.3125 -50.863281 17.03125 -50.5625 C 16.757812 -50.269531 16.625 -50.070312 16.625 -49.96875 C 16.738281 -49.625 17.675781 -49.570312 19.4375 -49.8125 C 21.207031 -50.0625 23.148438 -50.445312 25.265625 -50.96875 C 27.378906 -51.5 29.132812 -52.171875 30.53125 -52.984375 C 31.9375 -53.796875 32.332031 -54.710938 31.71875 -55.734375 C 31.445312 -56.035156 31.109375 -56.296875 30.703125 -56.515625 C 30.304688 -56.734375 29.875 -56.882812 29.40625 -56.96875 C 27.332031 -56.882812 25.453125 -56.40625 23.765625 -55.53125 C 22.078125 -54.65625 20.472656 -53.613281 18.953125 -52.40625 Z M 18.953125 -52.40625 "/></g></g></g><g fill="#010101" fill-opacity="1"><g transform="translate(309.31028, 865.7936)"><g><path d="M 55.796875 -39.8125 C 58.546875 -42.675781 59.753906 -43.410156 59.421875 -42.015625 C 59.085938 -40.628906 57.609375 -38.070312 54.984375 -34.34375 C 52.367188 -30.625 49.09375 -26.570312 45.15625 -22.1875 C 41.21875 -17.8125 37.019531 -13.984375 32.5625 -10.703125 C 28.113281 -7.429688 23.835938 -5.582031 19.734375 -5.15625 C 14.679688 -4.957031 10.570312 -6.289062 7.40625 -9.15625 C 4.25 -12.03125 1.921875 -15.898438 0.421875 -20.765625 C -1.066406 -25.640625 -1.820312 -30.941406 -1.84375 -36.671875 C -1.832031 -43.078125 -1.851562 -49.484375 -1.90625 -55.890625 C -1.925781 -59.117188 -1.945312 -62.273438 -1.96875 -65.359375 C -1.90625 -70.515625 -1.925781 -75.671875 -2.03125 -80.828125 C -1.988281 -82.441406 -2.300781 -83.785156 -2.96875 -84.859375 C -3.632812 -85.929688 -4.78125 -86.484375 -6.40625 -86.515625 C -8.226562 -86.554688 -10.519531 -86.519531 -13.28125 -86.40625 C -15.664062 -86.3125 -17.71875 -86.226562 -19.4375 -86.15625 C -21.84375 -86.320312 -23.46875 -86.894531 -24.3125 -87.875 C -25.164062 -88.851562 -24.570312 -89.90625 -22.53125 -91.03125 C -21.09375 -91.664062 -19.34375 -92.046875 -17.28125 -92.171875 C -15.226562 -92.304688 -13.21875 -92.363281 -11.25 -92.34375 C -10 -92.289062 -8.90625 -92.28125 -7.96875 -92.3125 C -4.894531 -92.4375 -3.035156 -92.992188 -2.390625 -93.984375 C -1.753906 -94.972656 -1.414062 -96.90625 -1.375 -99.78125 C -1.28125 -102.800781 -1.242188 -105.847656 -1.265625 -108.921875 C -1.222656 -110.535156 -1.15625 -112.15625 -1.0625 -113.78125 C -1.15625 -116.175781 -0.617188 -118.351562 0.546875 -120.3125 C 1.828125 -122.195312 3.515625 -122.972656 5.609375 -122.640625 C 7.453125 -122.234375 8.515625 -121.128906 8.796875 -119.328125 C 9.066406 -116.316406 9.265625 -113.273438 9.390625 -110.203125 C 9.554688 -108.492188 9.625 -106.78125 9.59375 -105.0625 C 9.664062 -103.238281 9.789062 -101.335938 9.96875 -99.359375 C 9.976562 -96.648438 10.359375 -94.957031 11.109375 -94.28125 C 11.867188 -93.601562 13.679688 -93.320312 16.546875 -93.4375 C 21.234375 -93.625 25.863281 -93.8125 30.4375 -94 C 32.519531 -94.070312 38.707031 -94.457031 49 -95.15625 C 59.289062 -95.851562 64.875 -95.242188 65.75 -93.328125 C 66.632812 -91.410156 60.160156 -90.019531 46.328125 -89.15625 C 37.984375 -88.351562 31.519531 -87.863281 26.9375 -87.6875 C 23.863281 -87.664062 21.101562 -87.609375 18.65625 -87.515625 C 14.539062 -87.347656 12.03125 -86.53125 11.125 -85.0625 C 10.21875 -83.59375 9.90625 -80.695312 10.1875 -76.375 C 10.226562 -72.675781 10.222656 -68.195312 10.171875 -62.9375 C 9.921875 -52.132812 10.015625 -41.144531 10.453125 -29.96875 C 11.015625 -22.269531 12.59375 -17.320312 15.1875 -15.125 C 17.78125 -12.9375 21.050781 -12.640625 25 -14.234375 C 28.945312 -15.828125 33.175781 -18.550781 37.6875 -22.40625 C 42.195312 -26.257812 46.65625 -30.382812 51.0625 -34.78125 C 52 -36.125 53.148438 -37.394531 54.515625 -38.59375 C 54.960938 -39.03125 55.390625 -39.4375 55.796875 -39.8125 Z M 55.796875 -39.8125 "/></g></g></g><g fill="#010101" fill-opacity="1"><g transform="translate(365.584615, 863.563004)"><g><path d="M 55.796875 -39.8125 C 58.546875 -42.675781 59.753906 -43.410156 59.421875 -42.015625 C 59.085938 -40.628906 57.609375 -38.070312 54.984375 -34.34375 C 52.367188 -30.625 49.09375 -26.570312 45.15625 -22.1875 C 41.21875 -17.8125 37.019531 -13.984375 32.5625 -10.703125 C 28.113281 -7.429688 23.835938 -5.582031 19.734375 -5.15625 C 14.679688 -4.957031 10.570312 -6.289062 7.40625 -9.15625 C 4.25 -12.03125 1.921875 -15.898438 0.421875 -20.765625 C -1.066406 -25.640625 -1.820312 -30.941406 -1.84375 -36.671875 C -1.832031 -43.078125 -1.851562 -49.484375 -1.90625 -55.890625 C -1.925781 -59.117188 -1.945312 -62.273438 -1.96875 -65.359375 C -1.90625 -70.515625 -1.925781 -75.671875 -2.03125 -80.828125 C -1.988281 -82.441406 -2.300781 -83.785156 -2.96875 -84.859375 C -3.632812 -85.929688 -4.78125 -86.484375 -6.40625 -86.515625 C -8.226562 -86.554688 -10.519531 -86.519531 -13.28125 -86.40625 C -15.664062 -86.3125 -17.71875 -86.226562 -19.4375 -86.15625 C -21.84375 -86.320312 -23.46875 -86.894531 -24.3125 -87.875 C -25.164062 -88.851562 -24.570312 -89.90625 -22.53125 -91.03125 C -21.09375 -91.664062 -19.34375 -92.046875 -17.28125 -92.171875 C -15.226562 -92.304688 -13.21875 -92.363281 -11.25 -92.34375 C -10 -92.289062 -8.90625 -92.28125 -7.96875 -92.3125 C -4.894531 -92.4375 -3.035156 -92.992188 -2.390625 -93.984375 C -1.753906 -94.972656 -1.414062 -96.90625 -1.375 -99.78125 C -1.28125 -102.800781 -1.242188 -105.847656 -1.265625 -108.921875 C -1.222656 -110.535156 -1.15625 -112.15625 -1.0625 -113.78125 C -1.15625 -116.175781 -0.617188 -118.351562 0.546875 -120.3125 C 1.828125 -122.195312 3.515625 -122.972656 5.609375 -122.640625 C 7.453125 -122.234375 8.515625 -121.128906 8.796875 -119.328125 C 9.066406 -116.316406 9.265625 -113.273438 9.390625 -110.203125 C 9.554688 -108.492188 9.625 -106.78125 9.59375 -105.0625 C 9.664062 -103.238281 9.789062 -101.335938 9.96875 -99.359375 C 9.976562 -96.648438 10.359375 -94.957031 11.109375 -94.28125 C 11.867188 -93.601562 13.679688 -93.320312 16.546875 -93.4375 C 21.234375 -93.625 25.863281 -93.8125 30.4375 -94 C 32.519531 -94.070312 38.707031 -94.457031 49 -95.15625 C 59.289062 -95.851562 64.875 -95.242188 65.75 -93.328125 C 66.632812 -91.410156 60.160156 -90.019531 46.328125 -89.15625 C 37.984375 -88.351562 31.519531 -87.863281 26.9375 -87.6875 C 23.863281 -87.664062 21.101562 -87.609375 18.65625 -87.515625 C 14.539062 -87.347656 12.03125 -86.53125 11.125 -85.0625 C 10.21875 -83.59375 9.90625 -80.695312 10.1875 -76.375 C 10.226562 -72.675781 10.222656 -68.195312 10.171875 -62.9375 C 9.921875 -52.132812 10.015625 -41.144531 10.453125 -29.96875 C 11.015625 -22.269531 12.59375 -17.320312 15.1875 -15.125 C 17.78125 -12.9375 21.050781 -12.640625 25 -14.234375 C 28.945312 -15.828125 33.175781 -18.550781 37.6875 -22.40625 C 42.195312 -26.257812 46.65625 -30.382812 51.0625 -34.78125 C 52 -36.125 53.148438 -37.394531 54.515625 -38.59375 C 54.960938 -39.03125 55.390625 -39.4375 55.796875 -39.8125 Z M 55.796875 -39.8125 "/></g></g></g><g fill="#010101" fill-opacity="1"><g transform="translate(421.858904, 861.33241)"><g><path d="M 39.25 -33.296875 C 37.769531 -29.910156 35.171875 -26.109375 31.453125 -21.890625 C 27.742188 -17.671875 23.445312 -14.914062 18.5625 -13.625 C 13.6875 -12.34375 8.925781 -13.851562 4.28125 -18.15625 C 2.488281 -20.0625 1.132812 -22.285156 0.21875 -24.828125 C -0.6875 -27.378906 -1.082031 -29.90625 -0.96875 -32.40625 C -1 -33.082031 -1.035156 -33.941406 -1.078125 -34.984375 C -1.179688 -37.640625 -1.179688 -40.710938 -1.078125 -44.203125 C -0.984375 -47.691406 -0.59375 -50.859375 0.09375 -53.703125 C 0.789062 -56.546875 1.988281 -58.285156 3.6875 -58.921875 C 8.570312 -60.367188 11.316406 -58.757812 11.921875 -54.09375 C 11.984375 -52.582031 11.992188 -51.070312 11.953125 -49.5625 C 11.878906 -48.78125 11.851562 -48.050781 11.875 -47.375 C 11.863281 -45.175781 11.847656 -42.984375 11.828125 -40.796875 C 11.890625 -39.085938 11.878906 -37.367188 11.796875 -35.640625 C 11.992188 -28.097656 13.863281 -23.679688 17.40625 -22.390625 C 20.957031 -21.097656 24.878906 -22.773438 29.171875 -27.421875 C 33.460938 -32.078125 36.238281 -35.910156 37.5 -38.921875 C 38.757812 -41.941406 39.734375 -42.609375 40.421875 -40.921875 C 41.117188 -39.234375 40.726562 -36.691406 39.25 -33.296875 Z M 10.0625 -75.28125 C 9.414062 -74.675781 8.613281 -74.273438 7.65625 -74.078125 C 6.707031 -73.890625 5.863281 -73.9375 5.125 -74.21875 C 4.53125 -74.664062 4.140625 -75.265625 3.953125 -76.015625 C 3.765625 -76.765625 3.648438 -77.660156 3.609375 -78.703125 C 3.597656 -78.910156 3.640625 -79.117188 3.734375 -79.328125 C 3.804688 -80.273438 4.003906 -81.222656 4.328125 -82.171875 C 5.273438 -84.710938 7.390625 -85.945312 10.671875 -85.875 C 11.816406 -85.757812 12.726562 -85.320312 13.40625 -84.5625 C 14.09375 -83.8125 14.273438 -82.910156 13.953125 -81.859375 C 13.273438 -79.273438 11.976562 -77.082031 10.0625 -75.28125 Z M 10.0625 -75.28125 "/></g></g></g><g fill="#010101" fill-opacity="1"><g transform="translate(460.181668, 859.813376)"><g><path d="M 63.34375 -32.609375 C 67.101562 -39.117188 69.328125 -43.242188 70.015625 -44.984375 C 70.703125 -46.734375 71.300781 -46.679688 71.8125 -44.828125 C 72.332031 -42.972656 71.210938 -38.691406 68.453125 -31.984375 C 65.703125 -25.285156 62.15625 -20.066406 57.8125 -16.328125 C 53.476562 -12.585938 49.351562 -11.109375 45.4375 -11.890625 C 41.53125 -12.671875 38.65625 -15.253906 36.8125 -19.640625 C 34.976562 -24.023438 34.265625 -29.609375 34.671875 -36.390625 C 34.671875 -36.492188 34.710938 -36.785156 34.796875 -37.265625 C 34.859375 -38.410156 34.988281 -40.101562 35.1875 -42.34375 C 35.382812 -44.59375 35.5 -46.914062 35.53125 -49.3125 C 35.570312 -51.707031 35.414062 -53.679688 35.0625 -55.234375 C 34.71875 -56.785156 33.976562 -57.304688 32.84375 -56.796875 C 30.144531 -55.171875 27.570312 -52.109375 25.125 -47.609375 C 22.675781 -43.117188 20.476562 -38.425781 18.53125 -33.53125 C 16.582031 -28.632812 15.226562 -24.6875 14.46875 -21.6875 C 14.132812 -20.726562 13.832031 -19.722656 13.5625 -18.671875 C 13.144531 -17.296875 12.675781 -15.921875 12.15625 -14.546875 C 10.800781 -10.597656 8.238281 -8.988281 4.46875 -9.71875 C 2.363281 -10.09375 1.085938 -11.316406 0.640625 -13.390625 C 0.472656 -15.003906 0.359375 -16.539062 0.296875 -18 C 0.265625 -18.9375 0.179688 -19.789062 0.046875 -20.5625 C -0.617188 -32.101562 -1.367188 -43.71875 -2.203125 -55.40625 C -2.148438 -56.757812 -1.585938 -57.71875 -0.515625 -58.28125 C 0.554688 -58.851562 1.847656 -59.164062 3.359375 -59.21875 C 4.503906 -59.269531 5.59375 -59.003906 6.625 -58.421875 C 7.664062 -57.835938 8.359375 -56.5625 8.703125 -54.59375 C 8.828125 -53.914062 8.90625 -53.238281 8.9375 -52.5625 C 9.050781 -52.195312 9.113281 -51.859375 9.125 -51.546875 C 9.394531 -49.953125 9.554688 -48.582031 9.609375 -47.4375 C 9.671875 -45.71875 9.832031 -44.550781 10.09375 -43.9375 C 10.351562 -43.320312 10.847656 -43.367188 11.578125 -44.078125 C 12.304688 -44.785156 13.476562 -46.445312 15.09375 -49.0625 C 17.882812 -53.75 21.40625 -57.769531 25.65625 -61.125 C 29.539062 -64.144531 33.882812 -65.515625 38.6875 -65.234375 C 42.8125 -64.984375 45.648438 -62.929688 47.203125 -59.078125 C 47.859375 -57.128906 48.222656 -55.15625 48.296875 -53.15625 C 48.378906 -51.15625 48.332031 -49.132812 48.15625 -47.09375 C 48.132812 -45 48.0625 -42.859375 47.9375 -40.671875 C 47.800781 -39.992188 47.703125 -39.3125 47.640625 -38.625 C 47.253906 -31.164062 47.679688 -26.195312 48.921875 -23.71875 C 50.160156 -21.238281 51.9375 -20.472656 54.25 -21.421875 C 56.5625 -22.367188 59.59375 -26.097656 63.34375 -32.609375 Z M 63.34375 -32.609375 "/></g></g></g><g fill="#010101" fill-opacity="1"><g transform="translate(528.86598, 857.090874)"><g><path d="M 83.28125 -42.78125 C 84.3125 -43.082031 85.191406 -43.207031 85.921875 -43.15625 C 86.648438 -43.113281 87.0625 -42.867188 87.15625 -42.421875 C 87.25 -41.984375 86.617188 -41.269531 85.265625 -40.28125 C 84.703125 -39.945312 84.039062 -39.476562 83.28125 -38.875 C 80.59375 -36.78125 77.476562 -34.46875 73.9375 -31.9375 C 70.132812 -29.132812 66.675781 -26.5625 63.5625 -24.21875 C 60.445312 -21.875 58.394531 -20.109375 57.40625 -18.921875 C 56.320312 -17.265625 55.671875 -15.484375 55.453125 -13.578125 C 55.242188 -11.671875 55.132812 -9.617188 55.125 -7.421875 C 55.03125 -5.703125 54.914062 -3.976562 54.78125 -2.25 C 52.539062 16.289062 48.15625 32.21875 41.625 45.53125 C 35.101562 58.84375 27.582031 69.535156 19.0625 77.609375 C 10.550781 85.679688 2.140625 91.066406 -6.171875 93.765625 C -14.484375 96.472656 -21.585938 96.445312 -27.484375 93.6875 C -33.378906 90.925781 -37.007812 85.398438 -38.375 77.109375 C -39.207031 70.367188 -38.097656 63.40625 -35.046875 56.21875 C -32.003906 49.039062 -27.835938 42.117188 -22.546875 35.453125 C -17.265625 28.785156 -11.632812 22.632812 -5.65625 17 C 0.320312 11.363281 5.867188 6.671875 10.984375 2.921875 C 12.398438 1.828125 13.894531 0.726562 15.46875 -0.375 C 22.707031 -5.832031 30.082031 -11.101562 37.59375 -16.1875 C 42.363281 -19.132812 44.488281 -23.234375 43.96875 -28.484375 C 43.945312 -29.054688 43.914062 -29.863281 43.875 -30.90625 C 43.65625 -32.40625 43.515625 -34.015625 43.453125 -35.734375 C 40.671875 -30.929688 36.664062 -26.519531 31.4375 -22.5 C 26.207031 -18.488281 20.800781 -15.550781 15.21875 -13.6875 C 9.632812 -11.820312 4.800781 -11.722656 0.71875 -13.390625 C -3.363281 -15.054688 -5.613281 -19.21875 -6.03125 -25.875 C -6.007812 -29.3125 -5.144531 -32.5 -3.4375 -35.4375 C 0.582031 -43.25 6.351562 -49.492188 13.875 -54.171875 C 16.675781 -55.835938 20.09375 -57.101562 24.125 -57.96875 C 28.15625 -58.832031 32.070312 -58.9375 35.875 -58.28125 C 39.675781 -57.625 42.78125 -55.910156 45.1875 -53.140625 C 45.71875 -54.097656 46.519531 -54.738281 47.59375 -55.0625 C 48.675781 -55.394531 49.6875 -55.582031 50.625 -55.625 C 50.832031 -55.632812 50.988281 -55.640625 51.09375 -55.640625 C 55.351562 -56.222656 57.4375 -54.351562 57.34375 -50.03125 C 57.363281 -46.90625 57.382812 -43.804688 57.40625 -40.734375 C 57.382812 -38.441406 57.34375 -36.195312 57.28125 -34 C 57.539062 -31.414062 59.019531 -30.628906 61.71875 -31.640625 C 64.414062 -32.660156 67.664062 -34.34375 71.46875 -36.6875 C 75.84375 -39.46875 79.78125 -41.5 83.28125 -42.78125 Z M 33.34375 -36.5 C 37.9375 -41.519531 40.414062 -45.34375 40.78125 -47.96875 C 39.550781 -50 37.71875 -51.1875 35.28125 -51.53125 C 32.84375 -51.875 30.382812 -51.75 27.90625 -51.15625 C 25.4375 -50.5625 23.363281 -49.71875 21.6875 -48.625 C 17.0625 -45.46875 13.726562 -41.722656 11.6875 -37.390625 C 9.65625 -33.066406 8.976562 -29.421875 9.65625 -26.453125 C 10.34375 -23.484375 12.609375 -22.546875 16.453125 -23.640625 C 20.296875 -24.734375 25.925781 -29.019531 33.34375 -36.5 Z M 41.171875 -2.5625 C 41.160156 -2.71875 41.207031 -2.851562 41.3125 -2.96875 C 41.4375 -3.644531 41.53125 -4.503906 41.59375 -5.546875 C 41.65625 -6.597656 41.582031 -7.457031 41.375 -8.125 C 41.164062 -8.800781 40.734375 -8.890625 40.078125 -8.390625 C 35.421875 -4.867188 30.550781 -1 25.46875 3.21875 C 22.425781 5.632812 19.566406 7.851562 16.890625 9.875 C 13.148438 12.894531 8.789062 16.796875 3.8125 21.578125 C -1.15625 26.367188 -5.992188 31.695312 -10.703125 37.5625 C -15.421875 43.425781 -19.265625 49.398438 -22.234375 55.484375 C -25.203125 61.566406 -26.578125 67.335938 -26.359375 72.796875 C -25.691406 80.597656 -23.320312 85.210938 -19.25 86.640625 C -15.175781 88.066406 -10.175781 86.890625 -4.25 83.109375 C 1.675781 79.328125 7.742188 73.347656 13.953125 65.171875 C 20.171875 57.003906 25.75 47.15625 30.6875 35.625 C 35.625 24.101562 39.117188 11.375 41.171875 -2.5625 Z M 41.171875 -2.5625 "/></g></g></g><g fill="#010101" fill-opacity="1"><g transform="translate(611.5213, 853.814591)"><g/></g></g><g fill="#010101" fill-opacity="1"><g transform="translate(651.170858, 852.242966)"><g><path d="M 55.796875 -39.8125 C 58.546875 -42.675781 59.753906 -43.410156 59.421875 -42.015625 C 59.085938 -40.628906 57.609375 -38.070312 54.984375 -34.34375 C 52.367188 -30.625 49.09375 -26.570312 45.15625 -22.1875 C 41.21875 -17.8125 37.019531 -13.984375 32.5625 -10.703125 C 28.113281 -7.429688 23.835938 -5.582031 19.734375 -5.15625 C 14.679688 -4.957031 10.570312 -6.289062 7.40625 -9.15625 C 4.25 -12.03125 1.921875 -15.898438 0.421875 -20.765625 C -1.066406 -25.640625 -1.820312 -30.941406 -1.84375 -36.671875 C -1.832031 -43.078125 -1.851562 -49.484375 -1.90625 -55.890625 C -1.925781 -59.117188 -1.945312 -62.273438 -1.96875 -65.359375 C -1.90625 -70.515625 -1.925781 -75.671875 -2.03125 -80.828125 C -1.988281 -82.441406 -2.300781 -83.785156 -2.96875 -84.859375 C -3.632812 -85.929688 -4.78125 -86.484375 -6.40625 -86.515625 C -8.226562 -86.554688 -10.519531 -86.519531 -13.28125 -86.40625 C -15.664062 -86.3125 -17.71875 -86.226562 -19.4375 -86.15625 C -21.84375 -86.320312 -23.46875 -86.894531 -24.3125 -87.875 C -25.164062 -88.851562 -24.570312 -89.90625 -22.53125 -91.03125 C -21.09375 -91.664062 -19.34375 -92.046875 -17.28125 -92.171875 C -15.226562 -92.304688 -13.21875 -92.363281 -11.25 -92.34375 C -10 -92.289062 -8.90625 -92.28125 -7.96875 -92.3125 C -4.894531 -92.4375 -3.035156 -92.992188 -2.390625 -93.984375 C -1.753906 -94.972656 -1.414062 -96.90625 -1.375 -99.78125 C -1.28125 -102.800781 -1.242188 -105.847656 -1.265625 -108.921875 C -1.222656 -110.535156 -1.15625 -112.15625 -1.0625 -113.78125 C -1.15625 -116.175781 -0.617188 -118.351562 0.546875 -120.3125 C 1.828125 -122.195312 3.515625 -122.972656 5.609375 -122.640625 C 7.453125 -122.234375 8.515625 -121.128906 8.796875 -119.328125 C 9.066406 -116.316406 9.265625 -113.273438 9.390625 -110.203125 C 9.554688 -108.492188 9.625 -106.78125 9.59375 -105.0625 C 9.664062 -103.238281 9.789062 -101.335938 9.96875 -99.359375 C 9.976562 -96.648438 10.359375 -94.957031 11.109375 -94.28125 C 11.867188 -93.601562 13.679688 -93.320312 16.546875 -93.4375 C 21.234375 -93.625 25.863281 -93.8125 30.4375 -94 C 32.519531 -94.070312 38.707031 -94.457031 49 -95.15625 C 59.289062 -95.851562 64.875 -95.242188 65.75 -93.328125 C 66.632812 -91.410156 60.160156 -90.019531 46.328125 -89.15625 C 37.984375 -88.351562 31.519531 -87.863281 26.9375 -87.6875 C 23.863281 -87.664062 21.101562 -87.609375 18.65625 -87.515625 C 14.539062 -87.347656 12.03125 -86.53125 11.125 -85.0625 C 10.21875 -83.59375 9.90625 -80.695312 10.1875 -76.375 C 10.226562 -72.675781 10.222656 -68.195312 10.171875 -62.9375 C 9.921875 -52.132812 10.015625 -41.144531 10.453125 -29.96875 C 11.015625 -22.269531 12.59375 -17.320312 15.1875 -15.125 C 17.78125 -12.9375 21.050781 -12.640625 25 -14.234375 C 28.945312 -15.828125 33.175781 -18.550781 37.6875 -22.40625 C 42.195312 -26.257812 46.65625 -30.382812 51.0625 -34.78125 C 52 -36.125 53.148438 -37.394531 54.515625 -38.59375 C 54.960938 -39.03125 55.390625 -39.4375 55.796875 -39.8125 Z M 55.796875 -39.8125 "/></g></g></g><g fill="#010101" fill-opacity="1"><g transform="translate(707.445193, 850.01237)"><g><path d="M 74.984375 -40.921875 C 79.210938 -46.015625 81.46875 -47.992188 81.75 -46.859375 C 82.03125 -45.722656 81.1875 -43.019531 79.21875 -38.75 C 77.25 -34.476562 74.082031 -30.769531 69.71875 -27.625 C 66.53125 -25.46875 63.765625 -23.988281 61.421875 -23.1875 C 59.078125 -22.394531 56.945312 -21.910156 55.03125 -21.734375 C 51.226562 -21.367188 48.28125 -22.34375 46.1875 -24.65625 C 44.09375 -26.976562 42.578125 -30.007812 41.640625 -33.75 C 40.710938 -37.488281 39.988281 -41.347656 39.46875 -45.328125 C 39 -47.867188 38.570312 -50.144531 38.1875 -52.15625 C 37.59375 -55.363281 36.597656 -57.109375 35.203125 -57.390625 C 33.816406 -57.679688 31.78125 -55.53125 29.09375 -50.9375 C 26.320312 -46.039062 23.929688 -40.660156 21.921875 -34.796875 C 19.910156 -28.929688 18.15625 -23.207031 16.65625 -17.625 C 16.5625 -17.414062 16.46875 -17.125 16.375 -16.75 C 16.039062 -15.957031 15.785156 -15.140625 15.609375 -14.296875 C 15.023438 -11.972656 14.304688 -9.707031 13.453125 -7.5 C 12.742188 -5.644531 11.453125 -4.390625 9.578125 -3.734375 C 7.710938 -3.085938 5.71875 -3.144531 3.59375 -3.90625 C 2.21875 -4.414062 1.269531 -5.34375 0.75 -6.6875 C -0.0078125 -8.738281 -0.328125 -10.832031 -0.203125 -12.96875 C -0.210938 -13.226562 -0.21875 -13.410156 -0.21875 -13.515625 C -0.113281 -22.597656 -0.632812 -37.660156 -1.78125 -58.703125 C -2.707031 -75.503906 -3.550781 -93.582031 -4.3125 -112.9375 C -5.082031 -132.289062 -5.3125 -150.570312 -5 -167.78125 C -4.695312 -185 -3.550781 -198.800781 -1.5625 -209.1875 C -0.664062 -212.976562 0.914062 -216.414062 3.1875 -219.5 C 5.457031 -222.59375 8.046875 -224.335938 10.953125 -224.734375 C 13.859375 -225.140625 16.671875 -223.257812 19.390625 -219.09375 C 21.242188 -215.519531 22.460938 -211.6875 23.046875 -207.59375 C 24.671875 -195.46875 24.382812 -176.722656 22.1875 -151.359375 C 19.988281 -125.992188 17.519531 -103.769531 14.78125 -84.6875 C 12.039062 -65.613281 10.921875 -49.734375 11.421875 -37.046875 C 12.492188 -39.015625 13.5625 -41.109375 14.625 -43.328125 C 16.101562 -46.628906 17.78125 -49.914062 19.65625 -53.1875 C 21.539062 -56.46875 23.800781 -59.28125 26.4375 -61.625 C 29.082031 -63.976562 32.347656 -65.515625 36.234375 -66.234375 C 38.859375 -66.753906 41.550781 -66.675781 44.3125 -66 C 47.070312 -65.332031 48.984375 -63.507812 50.046875 -60.53125 C 51.398438 -55.3125 52.007812 -49.734375 51.875 -43.796875 C 52.125 -37.503906 53.375 -33.566406 55.625 -31.984375 C 57.882812 -30.410156 60.617188 -30.234375 63.828125 -31.453125 C 67.035156 -32.671875 70.753906 -35.828125 74.984375 -40.921875 Z M 10.296875 -199.984375 C 9.972656 -193.453125 9.75 -182.5625 9.625 -167.3125 C 9.5 -152.0625 9.476562 -136.773438 9.5625 -121.453125 C 9.65625 -106.140625 9.898438 -93.410156 10.296875 -83.265625 C 11.179688 -92.472656 12.21875 -104.460938 13.40625 -119.234375 C 14.601562 -134.003906 15.582031 -149.191406 16.34375 -164.796875 C 17.101562 -180.410156 17.328125 -192.125 17.015625 -199.9375 C 16.753906 -204.039062 16.347656 -207.082031 15.796875 -209.0625 C 15.253906 -211.039062 14.445312 -211.722656 13.375 -211.109375 C 12.300781 -210.492188 11.523438 -209.003906 11.046875 -206.640625 C 10.566406 -204.285156 10.316406 -202.066406 10.296875 -199.984375 Z M 10.296875 -199.984375 "/></g></g></g><g fill="#010101" fill-opacity="1"><g transform="translate(786.666274, 846.872213)"><g><path d="M 73.734375 -40.6875 C 74.859375 -41.40625 75.957031 -41.96875 77.03125 -42.375 C 78.113281 -42.78125 78.832031 -42.78125 79.1875 -42.375 C 79.539062 -41.976562 79.125 -41.023438 77.9375 -39.515625 C 74.207031 -34.878906 69.695312 -30.59375 64.40625 -26.65625 C 59.113281 -22.726562 53.660156 -19.375 48.046875 -16.59375 C 43.648438 -14.382812 38.992188 -12.585938 34.078125 -11.203125 C 29.160156 -9.816406 24.25 -9.359375 19.34375 -9.828125 C 14.445312 -10.304688 9.929688 -12.289062 5.796875 -15.78125 C -0.523438 -21.164062 -3.328125 -27.9375 -2.609375 -36.09375 C -1.972656 -42.570312 0.320312 -48.144531 4.28125 -52.8125 C 8.238281 -57.476562 13.332031 -60.742188 19.5625 -62.609375 C 24.769531 -63.960938 30.019531 -64.300781 35.3125 -63.625 C 37.71875 -63.351562 39.9375 -62.628906 41.96875 -61.453125 C 43.84375 -60.117188 44.90625 -58.519531 45.15625 -56.65625 C 45.414062 -54.789062 44.773438 -52.96875 43.234375 -51.1875 C 40.015625 -48.09375 36.234375 -46.171875 31.890625 -45.421875 C 27.035156 -44.398438 22.140625 -43.6875 17.203125 -43.28125 C 14.804688 -43.1875 13.144531 -42.625 12.21875 -41.59375 C 11.300781 -40.570312 10.8125 -38.863281 10.75 -36.46875 C 10.21875 -29.9375 12.507812 -24.710938 17.625 -20.796875 C 20.789062 -18.460938 24.566406 -17.566406 28.953125 -18.109375 C 33.335938 -18.648438 37.957031 -20.019531 42.8125 -22.21875 C 47.664062 -24.414062 52.410156 -26.945312 57.046875 -29.8125 C 61.679688 -32.675781 65.847656 -35.382812 69.546875 -37.9375 C 71.117188 -39.039062 72.515625 -39.957031 73.734375 -40.6875 Z M 18.953125 -52.40625 C 18.960938 -52.300781 18.890625 -52.25 18.734375 -52.25 C 18.523438 -52.03125 18.257812 -51.769531 17.9375 -51.46875 C 17.613281 -51.164062 17.3125 -50.863281 17.03125 -50.5625 C 16.757812 -50.269531 16.625 -50.070312 16.625 -49.96875 C 16.738281 -49.625 17.675781 -49.570312 19.4375 -49.8125 C 21.207031 -50.0625 23.148438 -50.445312 25.265625 -50.96875 C 27.378906 -51.5 29.132812 -52.171875 30.53125 -52.984375 C 31.9375 -53.796875 32.332031 -54.710938 31.71875 -55.734375 C 31.445312 -56.035156 31.109375 -56.296875 30.703125 -56.515625 C 30.304688 -56.734375 29.875 -56.882812 29.40625 -56.96875 C 27.332031 -56.882812 25.453125 -56.40625 23.765625 -55.53125 C 22.078125 -54.65625 20.472656 -53.613281 18.953125 -52.40625 Z M 18.953125 -52.40625 "/></g></g></g><g fill="#010101" fill-opacity="1"><g transform="translate(862.219064, 843.87746)"><g/></g></g><g fill="#010101" fill-opacity="1"><g transform="translate(901.868621, 842.305835)"><g><path d="M 5.6875 -77.6875 C 3.769531 -77.40625 2.363281 -78.003906 1.46875 -79.484375 C 0.625 -81.015625 0.804688 -82.375 2.015625 -83.5625 C 3.367188 -84.769531 4.976562 -85.472656 6.84375 -85.671875 C 8.707031 -85.878906 10.414062 -85.492188 11.96875 -84.515625 C 12.289062 -84.316406 12.535156 -84.039062 12.703125 -83.6875 C 12.710938 -83.476562 12.773438 -83.242188 12.890625 -82.984375 C 12.796875 -82.878906 12.75 -82.722656 12.75 -82.515625 C 12.613281 -82.140625 12.445312 -81.765625 12.25 -81.390625 C 10.5 -79.390625 8.3125 -78.15625 5.6875 -77.6875 Z M 57.6875 -41.296875 C 58.488281 -40.960938 58.796875 -40.453125 58.609375 -39.765625 C 58.429688 -39.085938 58.066406 -38.5 57.515625 -38 C 55.847656 -36.425781 54.234375 -34.929688 52.671875 -33.515625 C 47.148438 -28.453125 41.765625 -23.421875 36.515625 -18.421875 C 31.273438 -13.421875 25.957031 -7.941406 20.5625 -1.984375 C 16.90625 1.859375 14.320312 4.863281 12.8125 7.03125 C 11.3125 9.195312 10.40625 11.578125 10.09375 14.171875 C 9.789062 16.765625 9.6875 20.644531 9.78125 25.8125 C 10.15625 47.101562 8.832031 68.359375 5.8125 89.578125 C 4.800781 96.765625 2.992188 103.769531 0.390625 110.59375 C -0.910156 114.457031 -2.929688 117.925781 -5.671875 121 C -8.316406 123.96875 -11.695312 125.585938 -15.8125 125.859375 C -21.0625 126.328125 -24.910156 124.472656 -27.359375 120.296875 C -29.710938 116.273438 -31.160156 112.035156 -31.703125 107.578125 C -32.671875 100.054688 -32.820312 92.550781 -32.15625 85.0625 C -31.488281 77.582031 -30.257812 70.132812 -28.46875 62.71875 C -24.445312 46.101562 -17.03125 30.75 -6.21875 16.65625 C -2.851562 12.050781 -1.332031 7.066406 -1.65625 1.703125 C -1.726562 -12.046875 -1.75 -25.753906 -1.71875 -39.421875 C -1.6875 -43.785156 -1.703125 -48.128906 -1.765625 -52.453125 C -1.679688 -54.328125 -1.570312 -56.128906 -1.4375 -57.859375 C -0.945312 -60.171875 0.726562 -61.304688 3.59375 -61.265625 C 5.988281 -61.359375 7.507812 -60.457031 8.15625 -58.5625 C 8.945312 -55.507812 9.441406 -52.410156 9.640625 -49.265625 C 9.847656 -46.128906 9.882812 -42.945312 9.75 -39.71875 C 9.757812 -36.84375 9.71875 -34.023438 9.625 -31.265625 C 9.425781 -24.273438 9.492188 -16.59375 9.828125 -8.21875 C 9.835938 -7.90625 9.992188 -7.582031 10.296875 -7.25 C 10.597656 -6.925781 10.921875 -6.703125 11.265625 -6.578125 C 11.609375 -6.460938 12.007812 -6.597656 12.46875 -6.984375 C 13.21875 -7.691406 13.992188 -8.398438 14.796875 -9.109375 C 16.109375 -10.304688 17.414062 -11.554688 18.71875 -12.859375 C 20.925781 -15.023438 24.753906 -18.394531 30.203125 -22.96875 C 35.648438 -27.539062 41.070312 -31.742188 46.46875 -35.578125 C 51.863281 -39.410156 55.601562 -41.316406 57.6875 -41.296875 Z M -6.65625 96.109375 C -4.601562 84.921875 -3.203125 72.65625 -2.453125 59.3125 C -1.710938 45.96875 -1.285156 33.507812 -1.171875 21.9375 C -4.921875 26 -8.148438 31.640625 -10.859375 38.859375 C -13.566406 46.078125 -15.71875 53.84375 -17.3125 62.15625 C -18.914062 70.476562 -20.039062 78.265625 -20.6875 85.515625 C -21.34375 92.765625 -21.59375 98.394531 -21.4375 102.40625 C -20.9375 110.976562 -19.75 115.828125 -17.875 116.953125 C -16.007812 118.078125 -14.007812 116.617188 -11.875 112.578125 C -9.738281 108.535156 -8 103.046875 -6.65625 96.109375 Z M -6.65625 96.109375 "/></g></g></g><g fill="#010101" fill-opacity="1"><g transform="translate(955.098974, 840.195895)"><g><path d="M 58.25 -45.0625 C 59 -45.875 59.453125 -44.941406 59.609375 -42.265625 C 59.765625 -39.585938 57.476562 -35.742188 52.75 -30.734375 C 48.03125 -25.734375 43.039062 -23.257812 37.78125 -23.3125 C 36.625 -23.375 35.648438 -23.242188 34.859375 -22.921875 C 34.066406 -22.609375 33.40625 -21.914062 32.875 -20.84375 C 32.332031 -19.882812 31.6875 -19 30.9375 -18.1875 C 30.9375 -18.1875 30.882812 -18.132812 30.78125 -18.03125 C 27.707031 -14.46875 24.015625 -12.050781 19.703125 -10.78125 C 15.398438 -9.519531 11.257812 -9.695312 7.28125 -11.3125 C 3.3125 -12.925781 0.375 -16.171875 -1.53125 -21.046875 C -2.957031 -25.472656 -3.238281 -29.914062 -2.375 -34.375 C -1.644531 -38.3125 -0.359375 -42.035156 1.484375 -45.546875 C 3.691406 -50.210938 6.671875 -53.570312 10.421875 -55.625 C 14.171875 -57.6875 18.460938 -58.914062 23.296875 -59.3125 C 30.460938 -59.957031 35.125 -56.753906 37.28125 -49.703125 C 38.582031 -45.640625 39.03125 -41.492188 38.625 -37.265625 C 38.507812 -36.316406 38.367188 -35.316406 38.203125 -34.265625 C 38.023438 -33.578125 37.867188 -32.894531 37.734375 -32.21875 C 37.617188 -29.925781 38.644531 -28.925781 40.8125 -29.21875 C 46.800781 -30.5 52.613281 -35.78125 58.25 -45.0625 Z M 16.84375 -16.765625 C 20.476562 -18.628906 22.941406 -21.648438 24.234375 -25.828125 C 17.929688 -29.484375 13.59375 -34.9375 11.21875 -42.1875 C 9.425781 -38.675781 8.414062 -34.625 8.1875 -30.03125 C 7.957031 -25.4375 8.5625 -21.664062 10 -18.71875 C 11.445312 -15.78125 13.726562 -15.128906 16.84375 -16.765625 Z M 26.71875 -34.046875 C 27.65625 -35.546875 28.171875 -37.363281 28.265625 -39.5 C 28.359375 -41.632812 28.171875 -43.75 27.703125 -45.84375 C 27.234375 -47.9375 26.625 -49.566406 25.875 -50.734375 C 25.125 -51.898438 24.363281 -52.234375 23.59375 -51.734375 C 22.238281 -50.441406 21.53125 -48.617188 21.46875 -46.265625 C 21.40625 -43.910156 21.847656 -41.582031 22.796875 -39.28125 C 23.753906 -36.976562 25.0625 -35.234375 26.71875 -34.046875 Z M 26.71875 -34.046875 "/></g></g></g><g fill="#010101" fill-opacity="1"><g transform="translate(1013.246517, 837.891049)"><g><path d="M 74.484375 -39.703125 C 67.984375 -35.421875 60.460938 -32.492188 51.921875 -30.921875 C 50.335938 -27.515625 48.738281 -24.582031 47.125 -22.125 C 42.945312 -16.789062 38.019531 -13.410156 32.34375 -11.984375 C 26.675781 -10.566406 21.519531 -10.675781 16.875 -12.3125 C 16.757812 -12.414062 16.648438 -12.460938 16.546875 -12.453125 C 15.378906 -12.984375 14.21875 -13.34375 13.0625 -13.53125 C 11.90625 -13.71875 10.71875 -13.445312 9.5 -12.71875 C 8.84375 -12.332031 8.046875 -12.171875 7.109375 -12.234375 C 6.898438 -12.222656 6.71875 -12.21875 6.5625 -12.21875 C 2.445312 -12.050781 0.253906 -14.023438 -0.015625 -18.140625 C -0.285156 -22.296875 -0.5 -26.375 -0.65625 -30.375 C -0.957031 -35.269531 -1.332031 -40.128906 -1.78125 -44.953125 C -3.195312 -63.546875 -4.109375 -82.238281 -4.515625 -101.03125 C -4.921875 -119.832031 -5.15625 -138.644531 -5.21875 -157.46875 C -5.132812 -159.289062 -5.128906 -161.113281 -5.203125 -162.9375 C -5.265625 -167.15625 -4.988281 -172.425781 -4.375 -178.75 C -3.769531 -185.082031 -2.785156 -191.179688 -1.421875 -197.046875 C -0.0664062 -202.910156 1.695312 -207.238281 3.875 -210.03125 C 5.832031 -213.132812 8.367188 -215.140625 11.484375 -216.046875 C 14.609375 -216.953125 17.671875 -216.953125 20.671875 -216.046875 C 23.679688 -215.148438 26.039062 -213.585938 27.75 -211.359375 C 31.382812 -206.085938 33.515625 -198.515625 34.140625 -188.640625 C 34.765625 -178.765625 34.34375 -167.710938 32.875 -155.484375 C 31.414062 -143.253906 29.378906 -130.992188 26.765625 -118.703125 C 24.148438 -106.410156 21.382812 -95.210938 18.46875 -85.109375 C 15.5625 -75.015625 12.890625 -67.160156 10.453125 -61.546875 C 14.929688 -64.378906 18.5625 -66.1875 21.34375 -66.96875 C 24.132812 -67.757812 27.359375 -67.941406 31.015625 -67.515625 C 43.554688 -66.453125 51.113281 -59.769531 53.6875 -47.46875 C 53.707031 -46.894531 53.726562 -46.375 53.75 -45.90625 C 53.875 -45.4375 53.945312 -44.992188 53.96875 -44.578125 C 54.238281 -42.878906 54.535156 -41.515625 54.859375 -40.484375 C 55.191406 -39.453125 58.109375 -39.875 63.609375 -41.75 C 69.109375 -43.632812 73.101562 -45.75 75.59375 -48.09375 C 78.082031 -50.4375 79.675781 -51.441406 80.375 -51.109375 C 83.144531 -48.347656 81.179688 -44.546875 74.484375 -39.703125 Z M 8.515625 -76.78125 C 8.921875 -77.164062 10.097656 -81.75 12.046875 -90.53125 C 13.992188 -99.3125 16 -110.164062 18.0625 -123.09375 C 20.132812 -136.019531 21.691406 -148.953125 22.734375 -161.890625 C 23.785156 -174.835938 23.617188 -185.6875 22.234375 -194.4375 C 21.585938 -199.144531 20.695312 -202.929688 19.5625 -205.796875 C 18.4375 -208.671875 17.203125 -209.628906 15.859375 -208.671875 C 14.515625 -207.710938 13.21875 -203.925781 11.96875 -197.3125 C 10.0625 -187.488281 8.957031 -174.175781 8.65625 -157.375 C 8.351562 -140.582031 8.289062 -124.039062 8.46875 -107.75 C 8.601562 -95.25 8.617188 -84.925781 8.515625 -76.78125 Z M 24.25 -21.375 C 23.894531 -19.84375 24.316406 -19.070312 25.515625 -19.0625 C 26.710938 -19.0625 28.226562 -19.523438 30.0625 -20.453125 C 31.90625 -21.390625 33.515625 -22.578125 34.890625 -24.015625 C 36.265625 -25.453125 36.875 -26.925781 36.71875 -28.4375 C 36.707031 -28.539062 36.625 -28.640625 36.46875 -28.734375 C 36.3125 -28.835938 36.15625 -28.882812 36 -28.875 C 33.957031 -28.894531 32.097656 -28.414062 30.421875 -27.4375 C 28.742188 -26.457031 27.175781 -25.265625 25.71875 -23.859375 C 25.070312 -23.148438 24.582031 -22.320312 24.25 -21.375 Z M 40.875 -41.65625 C 40.914062 -45.65625 39.773438 -49.445312 37.453125 -53.03125 C 35.128906 -56.613281 32.289062 -58.910156 28.9375 -59.921875 C 25.59375 -60.941406 22.425781 -59.671875 19.4375 -56.109375 C 17.257812 -52.992188 15.90625 -48.941406 15.375 -43.953125 C 14.84375 -38.960938 14.726562 -33.945312 15.03125 -28.90625 C 18.75 -31.125 22.492188 -33.023438 26.265625 -34.609375 C 30.035156 -36.203125 33.96875 -37.3125 38.0625 -37.9375 C 38.976562 -38.082031 39.679688 -38.503906 40.171875 -39.203125 C 40.671875 -39.898438 40.90625 -40.71875 40.875 -41.65625 Z M 40.875 -41.65625 "/></g></g></g><g fill="#010101" fill-opacity="1"><g transform="translate(1089.033406, 834.887016)"><g/></g></g><g fill="#010101" fill-opacity="1"><g transform="translate(1128.682963, 833.315391)"><g><path d="M 120.9375 -42.953125 C 121.375 -43.847656 122.070312 -44.34375 123.03125 -44.4375 C 124 -44.53125 124.84375 -43.960938 125.5625 -42.734375 C 125.84375 -42.429688 125.628906 -41.546875 124.921875 -40.078125 C 124.222656 -38.617188 123.285156 -36.96875 122.109375 -35.125 C 120.929688 -33.289062 119.800781 -31.609375 118.71875 -30.078125 C 117.632812 -28.546875 116.867188 -27.539062 116.421875 -27.0625 C 111.492188 -21.125 106.476562 -16.710938 101.375 -13.828125 C 96.28125 -10.941406 90.660156 -10.144531 84.515625 -11.4375 C 78.367188 -12.726562 71.382812 -16.789062 63.5625 -23.625 C 62.363281 -24.832031 61.164062 -26.039062 59.96875 -27.25 C 59.644531 -27.59375 59.34375 -27.914062 59.0625 -28.21875 C 57.757812 -29.582031 56.375 -29.710938 54.90625 -28.609375 C 53.382812 -27.398438 51.84375 -26.191406 50.28125 -24.984375 C 48.925781 -23.878906 47.535156 -22.859375 46.109375 -21.921875 C 41.410156 -18.398438 36.425781 -15.382812 31.15625 -12.875 C 25.53125 -10.101562 19.554688 -8.878906 13.234375 -9.203125 C 3.359375 -9.953125 -1.953125 -15.191406 -2.703125 -24.921875 C -3.078125 -31.773438 -1.851562 -37.976562 0.96875 -43.53125 C 3.800781 -49.082031 7.882812 -53.253906 13.21875 -56.046875 C 18.5625 -58.847656 24.800781 -59.609375 31.9375 -58.328125 C 32.71875 -58.203125 33.765625 -58.007812 35.078125 -57.75 C 35.867188 -57.519531 36.835938 -57.320312 37.984375 -57.15625 C 37.253906 -58.738281 36.578125 -60.144531 35.953125 -61.375 C 34.828125 -63.414062 33.84375 -65.28125 33 -66.96875 C 27.882812 -76.507812 23.59375 -87.476562 20.125 -99.875 C 16.65625 -112.28125 14.6875 -125.0625 14.21875 -138.21875 C 13.75 -151.382812 15.460938 -163.722656 19.359375 -175.234375 C 23.253906 -186.753906 30.101562 -196.382812 39.90625 -204.125 C 46.132812 -208.6875 52.648438 -211.285156 59.453125 -211.921875 C 66.253906 -212.554688 72.75 -211.332031 78.9375 -208.25 C 85.132812 -205.164062 90.269531 -200.363281 94.34375 -193.84375 C 99.582031 -184.882812 102.976562 -175.351562 104.53125 -165.25 C 107.257812 -148.9375 107.523438 -133.625 105.328125 -119.3125 C 103.140625 -105 98.8125 -91.378906 92.34375 -78.453125 C 85.875 -65.535156 77.488281 -52.910156 67.1875 -40.578125 C 66.1875 -39.390625 65.671875 -38.457031 65.640625 -37.78125 C 65.617188 -37.101562 66.15625 -36.160156 67.25 -34.953125 C 69.539062 -32.179688 72.03125 -29.492188 74.71875 -26.890625 C 77.40625 -24.285156 80.375 -22.132812 83.625 -20.4375 C 88.164062 -18.6875 92.953125 -18.847656 97.984375 -20.921875 C 103.015625 -23.003906 107.625 -26.109375 111.8125 -30.234375 C 116 -34.359375 119.039062 -38.597656 120.9375 -42.953125 Z M 44.65625 -33.03125 C 45.957031 -34.238281 46.007812 -35.546875 44.8125 -36.953125 C 44.101562 -37.765625 43.390625 -38.597656 42.671875 -39.453125 C 40.710938 -41.660156 38.488281 -43.925781 36 -46.25 C 33.507812 -48.582031 30.953125 -50.316406 28.328125 -51.453125 C 25.710938 -52.597656 23.097656 -52.597656 20.484375 -51.453125 C 16.898438 -49.597656 14.019531 -46.453125 11.84375 -42.015625 C 9.675781 -37.578125 8.476562 -33.0625 8.25 -28.46875 C 8.019531 -23.875 9.039062 -20.421875 11.3125 -18.109375 C 13.59375 -15.804688 17.328125 -15.722656 22.515625 -17.859375 C 30.640625 -21.828125 38.019531 -26.882812 44.65625 -33.03125 Z M 61.3125 -50.65625 C 71.78125 -64.050781 79.484375 -77.125 84.421875 -89.875 C 89.359375 -102.632812 92.457031 -117.453125 93.71875 -134.328125 C 94.132812 -138.460938 94.179688 -143.859375 93.859375 -150.515625 C 93.546875 -157.179688 92.671875 -164.117188 91.234375 -171.328125 C 89.804688 -178.546875 87.488281 -185.070312 84.28125 -190.90625 C 81.082031 -196.75 76.757812 -200.878906 71.3125 -203.296875 C 65.875 -205.710938 59.046875 -205.425781 50.828125 -202.4375 C 41.890625 -196.71875 35.382812 -189.335938 31.3125 -180.296875 C 27.238281 -171.253906 25.101562 -161.28125 24.90625 -150.375 C 24.71875 -139.46875 25.875 -128.382812 28.375 -117.125 C 30.882812 -105.863281 34.175781 -95.21875 38.25 -85.1875 C 42.320312 -75.164062 46.613281 -66.460938 51.125 -59.078125 C 51.625 -58.160156 52.128906 -57.242188 52.640625 -56.328125 C 54.003906 -53.304688 55.9375 -50.597656 58.4375 -48.203125 C 58.789062 -48.523438 59.144531 -48.828125 59.5 -49.109375 C 60.15625 -49.546875 60.757812 -50.0625 61.3125 -50.65625 Z M 61.3125 -50.65625 "/></g></g></g><g fill="#010101" fill-opacity="1"><g transform="translate(1250.441563, 828.489137)"><g><path d="M 58.25 -45.0625 C 59 -45.875 59.453125 -44.941406 59.609375 -42.265625 C 59.765625 -39.585938 57.476562 -35.742188 52.75 -30.734375 C 48.03125 -25.734375 43.039062 -23.257812 37.78125 -23.3125 C 36.625 -23.375 35.648438 -23.242188 34.859375 -22.921875 C 34.066406 -22.609375 33.40625 -21.914062 32.875 -20.84375 C 32.332031 -19.882812 31.6875 -19 30.9375 -18.1875 C 30.9375 -18.1875 30.882812 -18.132812 30.78125 -18.03125 C 27.707031 -14.46875 24.015625 -12.050781 19.703125 -10.78125 C 15.398438 -9.519531 11.257812 -9.695312 7.28125 -11.3125 C 3.3125 -12.925781 0.375 -16.171875 -1.53125 -21.046875 C -2.957031 -25.472656 -3.238281 -29.914062 -2.375 -34.375 C -1.644531 -38.3125 -0.359375 -42.035156 1.484375 -45.546875 C 3.691406 -50.210938 6.671875 -53.570312 10.421875 -55.625 C 14.171875 -57.6875 18.460938 -58.914062 23.296875 -59.3125 C 30.460938 -59.957031 35.125 -56.753906 37.28125 -49.703125 C 38.582031 -45.640625 39.03125 -41.492188 38.625 -37.265625 C 38.507812 -36.316406 38.367188 -35.316406 38.203125 -34.265625 C 38.023438 -33.578125 37.867188 -32.894531 37.734375 -32.21875 C 37.617188 -29.925781 38.644531 -28.925781 40.8125 -29.21875 C 46.800781 -30.5 52.613281 -35.78125 58.25 -45.0625 Z M 16.84375 -16.765625 C 20.476562 -18.628906 22.941406 -21.648438 24.234375 -25.828125 C 17.929688 -29.484375 13.59375 -34.9375 11.21875 -42.1875 C 9.425781 -38.675781 8.414062 -34.625 8.1875 -30.03125 C 7.957031 -25.4375 8.5625 -21.664062 10 -18.71875 C 11.445312 -15.78125 13.726562 -15.128906 16.84375 -16.765625 Z M 26.71875 -34.046875 C 27.65625 -35.546875 28.171875 -37.363281 28.265625 -39.5 C 28.359375 -41.632812 28.171875 -43.75 27.703125 -45.84375 C 27.234375 -47.9375 26.625 -49.566406 25.875 -50.734375 C 25.125 -51.898438 24.363281 -52.234375 23.59375 -51.734375 C 22.238281 -50.441406 21.53125 -48.617188 21.46875 -46.265625 C 21.40625 -43.910156 21.847656 -41.582031 22.796875 -39.28125 C 23.753906 -36.976562 25.0625 -35.234375 26.71875 -34.046875 Z M 26.71875 -34.046875 "/></g></g></g><g fill="#010101" fill-opacity="1"><g transform="translate(1308.589014, 826.184294)"><g><path d="M 63.34375 -32.609375 C 67.101562 -39.117188 69.328125 -43.242188 70.015625 -44.984375 C 70.703125 -46.734375 71.300781 -46.679688 71.8125 -44.828125 C 72.332031 -42.972656 71.210938 -38.691406 68.453125 -31.984375 C 65.703125 -25.285156 62.15625 -20.066406 57.8125 -16.328125 C 53.476562 -12.585938 49.351562 -11.109375 45.4375 -11.890625 C 41.53125 -12.671875 38.65625 -15.253906 36.8125 -19.640625 C 34.976562 -24.023438 34.265625 -29.609375 34.671875 -36.390625 C 34.671875 -36.492188 34.710938 -36.785156 34.796875 -37.265625 C 34.859375 -38.410156 34.988281 -40.101562 35.1875 -42.34375 C 35.382812 -44.59375 35.5 -46.914062 35.53125 -49.3125 C 35.570312 -51.707031 35.414062 -53.679688 35.0625 -55.234375 C 34.71875 -56.785156 33.976562 -57.304688 32.84375 -56.796875 C 30.144531 -55.171875 27.570312 -52.109375 25.125 -47.609375 C 22.675781 -43.117188 20.476562 -38.425781 18.53125 -33.53125 C 16.582031 -28.632812 15.226562 -24.6875 14.46875 -21.6875 C 14.132812 -20.726562 13.832031 -19.722656 13.5625 -18.671875 C 13.144531 -17.296875 12.675781 -15.921875 12.15625 -14.546875 C 10.800781 -10.597656 8.238281 -8.988281 4.46875 -9.71875 C 2.363281 -10.09375 1.085938 -11.316406 0.640625 -13.390625 C 0.472656 -15.003906 0.359375 -16.539062 0.296875 -18 C 0.265625 -18.9375 0.179688 -19.789062 0.046875 -20.5625 C -0.617188 -32.101562 -1.367188 -43.71875 -2.203125 -55.40625 C -2.148438 -56.757812 -1.585938 -57.71875 -0.515625 -58.28125 C 0.554688 -58.851562 1.847656 -59.164062 3.359375 -59.21875 C 4.503906 -59.269531 5.59375 -59.003906 6.625 -58.421875 C 7.664062 -57.835938 8.359375 -56.5625 8.703125 -54.59375 C 8.828125 -53.914062 8.90625 -53.238281 8.9375 -52.5625 C 9.050781 -52.195312 9.113281 -51.859375 9.125 -51.546875 C 9.394531 -49.953125 9.554688 -48.582031 9.609375 -47.4375 C 9.671875 -45.71875 9.832031 -44.550781 10.09375 -43.9375 C 10.351562 -43.320312 10.847656 -43.367188 11.578125 -44.078125 C 12.304688 -44.785156 13.476562 -46.445312 15.09375 -49.0625 C 17.882812 -53.75 21.40625 -57.769531 25.65625 -61.125 C 29.539062 -64.144531 33.882812 -65.515625 38.6875 -65.234375 C 42.8125 -64.984375 45.648438 -62.929688 47.203125 -59.078125 C 47.859375 -57.128906 48.222656 -55.15625 48.296875 -53.15625 C 48.378906 -51.15625 48.332031 -49.132812 48.15625 -47.09375 C 48.132812 -45 48.0625 -42.859375 47.9375 -40.671875 C 47.800781 -39.992188 47.703125 -39.3125 47.640625 -38.625 C 47.253906 -31.164062 47.679688 -26.195312 48.921875 -23.71875 C 50.160156 -21.238281 51.9375 -20.472656 54.25 -21.421875 C 56.5625 -22.367188 59.59375 -26.097656 63.34375 -32.609375 Z M 63.34375 -32.609375 "/></g></g></g><g fill="#010101" fill-opacity="1"><g transform="translate(1377.273326, 823.461793)"><g><path d="M 73.734375 -40.6875 C 74.859375 -41.40625 75.957031 -41.96875 77.03125 -42.375 C 78.113281 -42.78125 78.832031 -42.78125 79.1875 -42.375 C 79.539062 -41.976562 79.125 -41.023438 77.9375 -39.515625 C 74.207031 -34.878906 69.695312 -30.59375 64.40625 -26.65625 C 59.113281 -22.726562 53.660156 -19.375 48.046875 -16.59375 C 43.648438 -14.382812 38.992188 -12.585938 34.078125 -11.203125 C 29.160156 -9.816406 24.25 -9.359375 19.34375 -9.828125 C 14.445312 -10.304688 9.929688 -12.289062 5.796875 -15.78125 C -0.523438 -21.164062 -3.328125 -27.9375 -2.609375 -36.09375 C -1.972656 -42.570312 0.320312 -48.144531 4.28125 -52.8125 C 8.238281 -57.476562 13.332031 -60.742188 19.5625 -62.609375 C 24.769531 -63.960938 30.019531 -64.300781 35.3125 -63.625 C 37.71875 -63.351562 39.9375 -62.628906 41.96875 -61.453125 C 43.84375 -60.117188 44.90625 -58.519531 45.15625 -56.65625 C 45.414062 -54.789062 44.773438 -52.96875 43.234375 -51.1875 C 40.015625 -48.09375 36.234375 -46.171875 31.890625 -45.421875 C 27.035156 -44.398438 22.140625 -43.6875 17.203125 -43.28125 C 14.804688 -43.1875 13.144531 -42.625 12.21875 -41.59375 C 11.300781 -40.570312 10.8125 -38.863281 10.75 -36.46875 C 10.21875 -29.9375 12.507812 -24.710938 17.625 -20.796875 C 20.789062 -18.460938 24.566406 -17.566406 28.953125 -18.109375 C 33.335938 -18.648438 37.957031 -20.019531 42.8125 -22.21875 C 47.664062 -24.414062 52.410156 -26.945312 57.046875 -29.8125 C 61.679688 -32.675781 65.847656 -35.382812 69.546875 -37.9375 C 71.117188 -39.039062 72.515625 -39.957031 73.734375 -40.6875 Z M 18.953125 -52.40625 C 18.960938 -52.300781 18.890625 -52.25 18.734375 -52.25 C 18.523438 -52.03125 18.257812 -51.769531 17.9375 -51.46875 C 17.613281 -51.164062 17.3125 -50.863281 17.03125 -50.5625 C 16.757812 -50.269531 16.625 -50.070312 16.625 -49.96875 C 16.738281 -49.625 17.675781 -49.570312 19.4375 -49.8125 C 21.207031 -50.0625 23.148438 -50.445312 25.265625 -50.96875 C 27.378906 -51.5 29.132812 -52.171875 30.53125 -52.984375 C 31.9375 -53.796875 32.332031 -54.710938 31.71875 -55.734375 C 31.445312 -56.035156 31.109375 -56.296875 30.703125 -56.515625 C 30.304688 -56.734375 29.875 -56.882812 29.40625 -56.96875 C 27.332031 -56.882812 25.453125 -56.40625 23.765625 -55.53125 C 22.078125 -54.65625 20.472656 -53.613281 18.953125 -52.40625 Z M 18.953125 -52.40625 "/></g></g></g><g clip-path="url(#33255ea885)"><g clip-path="url(#bb73fcf183)"><g clip-path="url(#06db45208e)"><g clip-path="url(#38d7eeea48)"><path fill="#000000" d="M 1454.277344 883.480469 C 1454.105469 883.683594 1453.933594 883.886719 1453.761719 884.085938 C 1452.3125 884.546875 1450.785156 884.925781 1449.296875 885.222656 C 1448.273438 885.410156 1448.472656 885.324219 1447.148438 885.625 C 1441.792969 886.828125 1436.671875 888.199219 1431.375 889.589844 C 1432.734375 889.449219 1434.09375 889.308594 1435.457031 889.175781 C 1432.054688 889.855469 1428.65625 890.53125 1425.257812 891.210938 C 1424.816406 891.132812 1424.371094 891.054688 1423.929688 890.980469 C 1426.058594 890.402344 1428.183594 889.820312 1430.308594 889.230469 C 1426.042969 889.996094 1421.375 891.109375 1417.140625 892.128906 C 1415.15625 892.648438 1413.175781 893.167969 1411.191406 893.683594 C 1411.59375 893.703125 1411.996094 893.722656 1412.394531 893.742188 C 1407.207031 894.824219 1402.019531 895.902344 1396.832031 896.980469 C 1385.460938 899.539062 1374.082031 902.078125 1362.707031 904.621094 C 1366.382812 903.957031 1370.058594 903.292969 1373.734375 902.636719 C 1367.917969 903.929688 1362.09375 905.234375 1356.261719 906.46875 C 1338.925781 910.175781 1321.488281 914.144531 1304.214844 918.144531 C 1301.132812 918.863281 1298.054688 919.582031 1294.976562 920.304688 C 1298.65625 919.316406 1271.550781 925.699219 1266.105469 927 C 1259.824219 928.507812 1203.125 942.222656 1203.140625 942.328125 C 1184.886719 946.972656 1166.648438 951.8125 1148.390625 956.402344 C 1135.820312 959.484375 1123.234375 962.632812 1110.640625 965.609375 C 1092.910156 969.878906 1074.929688 974.542969 1057.351562 979.402344 C 1054.976562 980.070312 1052.605469 980.738281 1050.238281 981.40625 C 1029.65625 987.078125 1009.246094 992.992188 988.835938 999.265625 C 963.035156 1007.304688 937.582031 1015.683594 912.792969 1026.503906 C 904.324219 1030.308594 896.40625 1034.160156 888.640625 1039.277344 C 885.632812 1041.324219 883.082031 1043.265625 880.488281 1045.824219 C 878.101562 1048.273438 876.457031 1050.394531 875.128906 1053.574219 C 874.589844 1055.097656 874.457031 1056.214844 874.75 1057.808594 C 874.9375 1058.644531 875.167969 1059.28125 875.578125 1060.027344 C 876.171875 1061.046875 876.777344 1061.722656 877.71875 1062.433594 C 878.808594 1063.195312 879.757812 1063.582031 881.070312 1063.796875 C 887.007812 1064.292969 892.652344 1063.910156 898.5625 1063.40625 C 905.632812 1062.800781 912.6875 1061.917969 919.703125 1060.890625 C 925.800781 1059.976562 931.882812 1058.984375 937.957031 1057.957031 C 942.351562 1057.140625 946.742188 1056.304688 951.128906 1055.457031 C 955.847656 1054.699219 960.566406 1053.921875 965.28125 1053.125 C 963.554688 1053.632812 961.828125 1054.136719 960.101562 1054.640625 C 963.785156 1054.242188 968.316406 1053.25 972.015625 1052.523438 C 974.265625 1052.046875 976.511719 1051.570312 978.761719 1051.089844 C 978.78125 1051.195312 978.800781 1051.304688 978.820312 1051.410156 C 983.394531 1050.980469 985.386719 1050.609375 990.246094 1049.613281 C 1003.636719 1046.839844 993.179688 1048.589844 987.226562 1049.390625 C 990.535156 1048.589844 993.839844 1047.789062 997.148438 1046.984375 C 1004.515625 1045.554688 1011.882812 1044.101562 1019.246094 1042.628906 C 1033.207031 1039.632812 1047.269531 1036.839844 1061.257812 1033.96875 C 1071.839844 1031.792969 1082.417969 1029.59375 1092.992188 1027.371094 C 1101.511719 1025.488281 1110.027344 1023.59375 1118.539062 1021.6875 C 1128.035156 1019.683594 1137.527344 1017.667969 1147.015625 1015.640625 C 1153.652344 1014.335938 1160.285156 1012.972656 1166.910156 1011.597656 C 1171.816406 1010.269531 1176.769531 1009.058594 1181.730469 1007.953125 C 1189.933594 1006.15625 1198.09375 1004.15625 1206.292969 1002.34375 C 1212.613281 1000.949219 1218.800781 999.261719 1225.089844 997.773438 C 1230.917969 996.398438 1236.773438 995.046875 1242.570312 993.554688 C 1243.503906 993.296875 1248.882812 991.644531 1249.238281 990.792969 C 1249.214844 990.6875 1249.1875 990.582031 1249.164062 990.472656 C 1250.125 985.742188 1252.75 981.613281 1257.3125 979.683594 C 1260.648438 978.585938 1264.007812 977.59375 1267.335938 976.503906 C 1270.914062 975.199219 1276.082031 972.59375 1279.394531 970.652344 C 1280.328125 970.144531 1285.324219 968.398438 1284.589844 967.683594 C 1284.152344 966.847656 1288.492188 965.144531 1289.226562 964.84375 C 1286.023438 965.230469 1290.941406 964.132812 1291.21875 964.070312 C 1291.875 963.921875 1301.523438 961.578125 1295.824219 962.722656 C 1291.902344 963.539062 1287.980469 964.46875 1284.09375 965.445312 C 1282.527344 965.78125 1276.179688 967.210938 1275.140625 967.179688 C 1275.097656 966.988281 1275.925781 966.933594 1275.097656 966.988281 C 1274.355469 967.019531 1276.332031 966.566406 1274.09375 967.066406 C 1271.9375 967.546875 1269.757812 968.015625 1267.660156 968.707031 C 1265.050781 969.566406 1262.457031 970.050781 1259.746094 970.472656 C 1258.304688 970.707031 1256.859375 970.945312 1255.414062 971.179688 C 1254.421875 971.152344 1251.914062 971.839844 1250.972656 972.101562 C 1247.992188 972.949219 1245.007812 973.765625 1242.015625 974.578125 C 1236.277344 975.785156 1230.484375 977.019531 1224.789062 978.410156 C 1222.058594 979.082031 1220.941406 979.105469 1218.269531 979.582031 C 1214.550781 980.269531 1211.058594 981.121094 1207.394531 981.992188 C 1202.351562 983.199219 1197.28125 984.328125 1192.253906 985.609375 C 1182.472656 987.980469 1172.546875 990.15625 1162.714844 992.34375 C 1151.394531 994.839844 1140.121094 997.265625 1128.824219 999.882812 C 1121.972656 1001.472656 1115.066406 1003.320312 1108.113281 1004.382812 C 1101.746094 1005.386719 1095.261719 1006.773438 1088.953125 1008.15625 C 1079.382812 1010.167969 1069.804688 1012.164062 1060.222656 1014.136719 C 1050.46875 1016.179688 1067.46875 1013.203125 1068.523438 1013.027344 C 1060.121094 1014.769531 1051.671875 1016.601562 1043.226562 1018.074219 C 1036.035156 1019.390625 1028.804688 1020.925781 1021.640625 1022.402344 C 1016.113281 1023.480469 1010.585938 1024.546875 1005.054688 1025.601562 C 1000.707031 1026.597656 996.34375 1027.550781 991.972656 1028.445312 C 986.390625 1029.574219 980.804688 1030.6875 975.21875 1031.777344 C 953.769531 1035.886719 903.140625 1046.148438 883.328125 1045.144531 C 885.566406 1045.464844 886.972656 1045.945312 888.828125 1047.246094 C 890.222656 1048.296875 891.121094 1049.296875 892 1050.796875 C 892.605469 1051.894531 892.941406 1052.828125 893.214844 1054.0625 C 893.613281 1056.230469 893.488281 1057.964844 892.792969 1060.0625 C 892.753906 1060.585938 892.421875 1060.730469 892.722656 1060.359375 C 892.84375 1060.203125 893.824219 1059.085938 893.871094 1059.113281 C 893.878906 1059.117188 894 1058.992188 894.011719 1058.980469 C 895.605469 1057.433594 897.324219 1056.175781 899.15625 1054.925781 C 905.910156 1050.464844 913.058594 1047.039062 920.425781 1043.722656 C 922.710938 1042.703125 925.007812 1041.714844 927.316406 1040.746094 C 937.039062 1036.640625 946.957031 1032.921875 956.910156 1029.402344 C 969.328125 1025.054688 981.757812 1021.023438 994.320312 1017.121094 C 1002.613281 1014.554688 1010.910156 1012.058594 1019.238281 1009.613281 C 1017.488281 1010.230469 1015.738281 1010.855469 1013.992188 1011.480469 C 1026.53125 1007.664062 1039.132812 1003.914062 1051.773438 1000.445312 C 1059.542969 998.316406 1067.339844 996.257812 1075.097656 994.097656 C 1083.957031 991.613281 1092.964844 989.574219 1101.820312 987.046875 C 1127.757812 979.859375 1154.378906 973.214844 1180.546875 966.847656 C 1189.5 964.691406 1198.449219 962.523438 1207.40625 960.382812 C 1289.367188 941.019531 1380.339844 923.824219 1460.375 901.824219 C 1458.511719 902.476562 1456.632812 903.09375 1454.75 903.691406 C 1457 903.101562 1459.242188 902.492188 1461.484375 901.875 C 1463.445312 901.34375 1465.449219 900.8125 1467.382812 900.179688 C 1468.367188 899.828125 1469.351562 899.4375 1470.285156 898.964844 C 1482.144531 893.203125 1472.382812 879.632812 1475.582031 885.574219 C 1477.195312 891.929688 1475.574219 896.71875 1469.453125 899.050781 C 1479.949219 894.304688 1476.914062 879.699219 1464.566406 879.742188 C 1463.28125 879.761719 1462 879.871094 1460.722656 879.988281 C 1460.699219 879.867188 1435.597656 882.4375 1432.933594 882.707031 C 1402.773438 885.953125 1371.261719 890.648438 1341.332031 895.019531 C 1299.667969 901.484375 1255.597656 908.398438 1214.285156 917.273438 C 1205.5 918.96875 1196.71875 920.6875 1187.945312 922.4375 C 1181.144531 923.703125 1174.347656 924.988281 1167.550781 926.289062 C 1156.871094 928.347656 1146.199219 930.441406 1135.535156 932.570312 C 1132.054688 933.402344 1128.574219 934.238281 1125.097656 935.078125 C 1119.019531 936.378906 1112.949219 937.691406 1106.871094 938.992188 C 1101.242188 940.191406 1095.59375 941.335938 1089.984375 942.617188 C 1071.507812 946.824219 1053.042969 951.027344 1034.589844 955.339844 C 1031.875 955.863281 1029.164062 956.382812 1026.449219 956.90625 C 1013.195312 959.996094 999.960938 963.140625 986.714844 966.253906 C 968.421875 970.515625 950.148438 975.117188 931.917969 979.652344 C 893.503906 989.15625 854.996094 998.746094 816.753906 1008.898438 C 803.789062 1012.441406 790.585938 1015.335938 777.617188 1018.945312 C 769.09375 1021.316406 760.597656 1023.574219 752.054688 1025.859375 C 750.933594 1026.800781 747.25 1027.902344 745.890625 1028.296875 C 729.523438 1032.851562 713.097656 1037.289062 696.792969 1042.070312 C 683.75 1045.886719 670.523438 1049.320312 657.539062 1053.300781 C 640.660156 1058.363281 623.679688 1063.324219 606.753906 1068.234375 C 578.320312 1076.46875 549.660156 1083.972656 521.460938 1093.007812 C 519.335938 1093.683594 501.109375 1099.503906 513.179688 1095.394531 C 510.394531 1096.222656 507.613281 1097.054688 504.832031 1097.886719 C 498.128906 1099.785156 491.425781 1101.691406 484.726562 1103.609375 C 481.371094 1104.445312 478.015625 1105.285156 474.65625 1106.125 C 473.898438 1106.355469 464.480469 1109.128906 467.09375 1108.652344 C 470.929688 1107.78125 474.96875 1106.550781 478.753906 1105.425781 C 488.035156 1112.75 533.386719 1106.347656 543.472656 1104.933594 C 551.261719 1102.480469 564.332031 1097.984375 571.84375 1096.671875 C 576.488281 1096.152344 585.238281 1093.355469 589.980469 1092 C 595.316406 1090.472656 600.609375 1088.828125 605.953125 1087.3125 C 616.855469 1084.214844 627.785156 1081.0625 638.75 1078.207031 C 653.101562 1074.335938 667.554688 1069.65625 681.9375 1065.589844 C 711.203125 1057.382812 740.34375 1048.945312 769.746094 1041.226562 C 789.664062 1035.992188 809.582031 1030.769531 829.488281 1025.5 C 822.566406 1027.53125 815.652344 1029.570312 808.738281 1031.621094 C 823.535156 1027.804688 838.332031 1023.96875 853.105469 1020.050781 C 862.796875 1017.46875 872.523438 1014.890625 882.257812 1012.480469 C 886.6875 1011.515625 891.117188 1010.554688 895.546875 1009.597656 C 930.949219 1000.867188 966.535156 992.476562 1001.847656 983.503906 C 1009.800781 981.441406 1017.722656 979.335938 1025.695312 977.359375 C 1034.441406 975.21875 1043.230469 973.253906 1052.070312 971.535156 C 1064.335938 968.738281 1076.605469 965.972656 1088.898438 963.289062 C 1096.746094 961.570312 1104.59375 959.792969 1112.417969 957.957031 C 1130.410156 953.992188 1148.421875 950.113281 1166.453125 946.335938 C 1174.011719 944.882812 1181.570312 943.421875 1189.121094 941.941406 C 1225.550781 934.765625 1262.074219 928.015625 1298.699219 921.910156 C 1312.359375 919.617188 1326.03125 917.277344 1339.667969 914.851562 C 1343.351562 914.292969 1347.035156 913.742188 1350.722656 913.203125 C 1366.375 910.734375 1382.054688 908.410156 1397.761719 906.28125 C 1405.332031 905.207031 1414.515625 903.777344 1422.039062 903.449219 C 1426.683594 903.398438 1431.164062 902.820312 1435.796875 902.40625 C 1443.953125 901.683594 1452.105469 900.984375 1460.265625 900.324219 C 1460.9375 900.25 1461.609375 900.171875 1462.28125 900.09375 C 1471.386719 898.636719 1449.046875 898.777344 1459.394531 882.835938 C 1464.207031 878.789062 1461.175781 881.644531 1454.277344 883.480469 Z M 1454.277344 883.480469 " fill-opacity="1" fill-rule="nonzero"/></g></g></g></g></svg>